<svg width="16" height="16" viewBox="0 0 16 16" fill="none" xmlns="http://www.w3.org/2000/svg">
<g clip-path="url(#clip0_5_208)">
<path d="M8.40003 3.13281C8.34806 3.13337 8.29649 3.12369 8.24826 3.10432C8.20003 3.08495 8.15609 3.05627 8.11895 3.01992C8.0818 2.98357 8.05218 2.94026 8.03178 2.89246C8.01138 2.84466 8.00059 2.79331 8.00003 2.74134C8.00003 1.22667 9.25443 5.69443e-06 10.799 5.69443e-06C10.851 -0.000698842 10.9026 0.00888344 10.9509 0.0282016C10.9992 0.0475198 11.0432 0.0761928 11.0804 0.112572C11.1175 0.148952 11.1471 0.19232 11.1675 0.240183C11.1879 0.288047 11.1985 0.339462 11.199 0.391472C11.199 1.90614 9.94563 3.13281 8.40003 3.13281Z" fill="black"/>
<path d="M8.40003 3.13281C8.34806 3.13337 8.29649 3.12369 8.24826 3.10432C8.20003 3.08495 8.15609 3.05627 8.11895 3.01992C8.0818 2.98357 8.05218 2.94026 8.03178 2.89246C8.01137 2.84466 8.00059 2.79331 8.00003 2.74134C8.00003 1.22667 9.25443 5.69443e-06 10.799 5.69443e-06C10.851 -0.000698842 10.9026 0.00888344 10.9509 0.0282016C10.9992 0.0475198 11.0432 0.0761928 11.0804 0.112572C11.1175 0.148952 11.1471 0.19232 11.1675 0.240183C11.1879 0.288047 11.1985 0.339462 11.199 0.391472C11.199 1.90614 9.94563 3.13281 8.40003 3.13281ZM14.24 11.3792C14.3947 11.4923 14.4448 11.6992 14.3574 11.8677C12.9494 14.6261 11.8262 16 10.8 16C10.3222 16 9.85283 15.8485 9.39523 15.5541C9.06679 15.3433 8.68646 15.2273 8.29624 15.219C7.90603 15.2107 7.52112 15.3105 7.18403 15.5072C6.62936 15.8325 6.10136 16 5.60003 16C4.0907 16 1.60003 11.4485 1.60003 8.95147C1.60003 6.28481 3.0283 4.25174 5.20003 4.25174C6.2219 4.25174 7.10403 4.39894 7.84536 4.69867C8.15896 4.82454 8.51416 4.81601 8.8203 4.67201C9.4219 4.38827 10.2155 4.25174 11.199 4.25174C12.4011 4.25174 13.4496 4.83841 14.32 5.97441C14.3515 6.01537 14.3745 6.06224 14.3875 6.11223C14.4005 6.16223 14.4034 6.21433 14.396 6.26545C14.3885 6.31658 14.3709 6.36569 14.3441 6.40987C14.3173 6.45405 14.2819 6.49241 14.24 6.52267C13.2683 7.23734 12.8 8.03841 12.8 8.95147C12.8 9.86347 13.2683 10.6656 14.24 11.3792Z" fill="black"/>
<path d="M14.24 11.3792C14.3947 11.4923 14.4448 11.6992 14.3574 11.8677C12.9494 14.6261 11.8262 16 10.8 16C10.3222 16 9.85283 15.8485 9.39523 15.5541C9.06679 15.3433 8.68646 15.2273 8.29624 15.219C7.90603 15.2107 7.52112 15.3105 7.18403 15.5072C6.62936 15.8325 6.10136 16 5.60003 16C4.0907 16 1.60003 11.4485 1.60003 8.95147C1.60003 6.28481 3.0283 4.25174 5.20003 4.25174C6.2219 4.25174 7.10403 4.39894 7.84536 4.69867C8.15896 4.82454 8.51416 4.81601 8.8203 4.67201C9.4219 4.38827 10.2155 4.25174 11.199 4.25174C12.4011 4.25174 13.4496 4.83841 14.32 5.97441C14.3515 6.01537 14.3745 6.06224 14.3875 6.11223C14.4005 6.16223 14.4034 6.21433 14.396 6.26545C14.3885 6.31658 14.3709 6.36569 14.3441 6.40987C14.3173 6.45405 14.2819 6.49241 14.24 6.52267C13.2683 7.23734 12.8 8.03841 12.8 8.95147C12.8 9.86347 13.2683 10.6656 14.24 11.3792Z" fill="black"/>
</g>
<defs>
<clipPath id="clip0_5_208">
<rect width="16" height="16" fill="white"/>
</clipPath>
</defs>
</svg>
