<svg width="16" height="16" viewBox="0 0 16 16" fill="none" xmlns="http://www.w3.org/2000/svg">
<path d="M15.8444 6.43306H15.2V6.39986H8V9.59987H12.5212C11.8616 11.4627 10.0892 12.7999 8 12.7999C5.34919 12.7999 3.19998 10.6507 3.19998 7.99987C3.19998 5.34906 5.34919 3.19985 8 3.19985C9.22361 3.19985 10.3368 3.66145 11.1844 4.41545L13.4472 2.15264C12.0184 0.821036 10.1072 -0.000167847 8 -0.000167847C3.58198 -0.000167847 -3.05176e-05 3.58185 -3.05176e-05 7.99987C-3.05176e-05 12.4179 3.58198 15.9999 8 15.9999C12.418 15.9999 16 12.4179 16 7.99987C16 7.46346 15.9448 6.93986 15.8444 6.43306Z" fill="#FFC107"/>
<path d="M0.921814 4.27625L3.55023 6.20386C4.26143 4.44305 5.98384 3.19985 7.99944 3.19985C9.22305 3.19985 10.3363 3.66145 11.1839 4.41545L13.4467 2.15264C12.0179 0.821036 10.1067 -0.000167847 7.99944 -0.000167847C4.92663 -0.000167847 2.26182 1.73464 0.921814 4.27625Z" fill="#FF3D00"/>
<path d="M8.00009 16.0002C10.0665 16.0002 11.9441 15.2094 13.3637 13.9234L10.8877 11.8282C10.0845 12.4366 9.0861 12.8002 8.00009 12.8002C5.91929 12.8002 4.15248 11.4734 3.48688 9.62175L0.878064 11.6318C2.20207 14.2226 4.89088 16.0002 8.00009 16.0002Z" fill="#4CAF50"/>
<path d="M15.8444 6.43306H15.2V6.39986H7.99997V9.59987H12.5212C12.2044 10.4947 11.6288 11.2663 10.8864 11.8283C10.8868 11.8279 10.8872 11.8279 10.8876 11.8275L13.3636 13.9227C13.1884 14.0819 16 11.9999 16 7.99986C16 7.46346 15.9448 6.93986 15.8444 6.43306Z" fill="#1976D2"/>
</svg>
