<svg width="134" height="68" viewBox="0 0 134 68" fill="none" xmlns="http://www.w3.org/2000/svg">
<g clip-path="url(#clip0_13_65)">
<path d="M36.9802 20.204H50.8173L50.9317 20.338V22.7955L50.8173 22.9104H37.7958V30.3941H43.7978L43.9312 30.528V32.9664L43.7978 33.1004H37.7958V41.2004H50.9317L51.065 41.3344V43.8417L50.9317 43.9757H34.7357L34.6023 43.8417V22.0874C34.6023 20.8318 35.3949 20.204 36.9802 20.204Z" fill="url(#paint0_linear_13_65)"/>
<path d="M56.2211 20.2346H62.3413C66.5205 20.2346 69.5857 21.7428 71.5368 24.7593C72.581 26.4665 73.1018 28.7276 73.0992 31.5424V31.6611C73.0992 37.4413 71.1824 41.1876 67.3487 42.9C65.9387 43.6171 63.6878 43.9744 60.5959 43.9718H53.7936L53.6602 43.8379V22.118C53.6602 20.8624 54.5138 20.2346 56.2211 20.2346ZM56.8537 22.941V41.2157H62.4061C65.7215 41.2157 68.0169 39.5786 69.2922 36.3044C69.722 34.88 69.934 33.3983 69.921 31.9099C69.921 27.3164 68.4627 24.4939 65.5462 23.4425C64.6052 23.1128 63.616 22.9433 62.6195 22.941H56.8537Z" fill="url(#paint1_linear_13_65)"/>
<path d="M75.3476 18.6958H78.4725L78.6059 18.8298V29.5213H91.7265V18.8298L91.8599 18.6958H95.0724L95.202 18.8298V43.8379L95.0724 43.9719H91.879L91.7456 43.8379V32.4114H78.6059V43.8379L78.4725 43.9719H75.3476L75.2142 43.8379V18.8298L75.3476 18.6958Z" fill="url(#paint2_linear_13_65)"/>
<path d="M100.408 18.6958H109.321C112.748 18.6958 115.016 20.1441 116.123 23.0405C116.471 24.0238 116.651 25.0594 116.653 26.1029C116.653 29.6451 115.213 31.9891 112.332 33.1349C111.404 33.4452 110.432 33.6029 109.454 33.6019H101.288V43.8264L101.155 43.9604H98.0296L97.8962 43.8264V20.7017C97.8962 19.367 98.7333 18.6984 100.408 18.6958ZM101.273 21.5706V30.7233H108.41C110.781 30.7233 112.315 29.788 113.014 27.9174C113.138 27.437 113.206 26.9436 113.216 26.4474V25.8464C113.216 23.787 112.212 22.451 110.205 21.8386C109.51 21.6541 108.794 21.564 108.075 21.5706H101.273Z" fill="url(#paint3_linear_13_65)"/>
<path fill-rule="evenodd" clip-rule="evenodd" d="M16.9506 62.5337C17.5884 62.7215 18.1375 63.1341 18.497 63.6957C18.8565 64.2573 19.0024 64.9303 18.908 65.5913C18.8135 66.2522 18.485 66.8567 17.9826 67.294C17.4803 67.7314 16.8379 67.9721 16.1732 67.9721C15.5084 67.9721 14.866 67.7314 14.3637 67.294C13.8614 66.8567 13.5328 66.2522 13.4384 65.5913C13.3439 64.9303 13.4898 64.2573 13.8493 63.6957C14.2089 63.1341 14.7579 62.7215 15.3958 62.5337V51.8383L1.55485 38.8462C1.67679 47.107 4.43964 55.8232 10.5217 63.9691L9.2832 64.8994C1.95498 55.1036 -0.727837 44.4542 0.167707 34.6814C0.801671 27.5206 3.40775 20.6785 7.69408 14.9214C11.9758 9.18128 17.8188 4.80756 24.5189 2.3274C33.3714 -0.926369 44.0455 -1.01441 55.558 3.61743L54.994 5.07205C50.5146 3.2316 45.7816 2.08917 40.9588 1.6843L33.0018 8.89236C33.0559 8.99525 33.1005 9.10288 33.1351 9.21391L57.231 8.23778C57.4263 7.63683 57.819 7.1203 58.3448 6.77281C58.8705 6.42531 59.4982 6.26742 60.1249 6.32501C60.7517 6.3826 61.3404 6.65225 61.7946 7.0898C62.2489 7.52735 62.5418 8.10686 62.6253 8.73345C62.7089 9.36004 62.5782 9.99656 62.2546 10.5388C61.931 11.081 61.4337 11.4968 60.8442 11.7181C60.2547 11.9393 59.6078 11.953 59.0095 11.7567C58.4112 11.5605 57.897 11.166 57.5511 10.6379L17.5374 22.918L16.4971 23.8635C16.6807 24.2401 16.7759 24.6539 16.7753 25.0732C16.7745 25.7857 16.5017 26.4707 16.0131 26.9872L20.0869 34.0498C20.816 34.0598 21.5119 34.3579 22.024 34.8794C22.5361 35.4009 22.8231 36.104 22.8231 36.8365C22.8238 36.9645 22.8162 37.0924 22.8002 37.2193L35.8713 45.683C36.2096 45.3892 36.6137 45.1821 37.049 45.0793C37.4843 44.9765 37.9379 44.981 38.371 45.0926C38.8042 45.2041 39.204 45.4193 39.5364 45.7198C39.8688 46.0203 40.1238 46.3971 40.2797 46.8181C40.4356 47.2391 40.4877 47.6918 40.4317 48.1374C40.3756 48.583 40.2129 49.0084 39.9576 49.3772C39.7023 49.746 39.3619 50.0472 38.9656 50.2551C38.5692 50.4631 38.1286 50.5715 37.6814 50.5713C37.1628 50.5705 36.6545 50.4248 36.2137 50.1503C35.7728 49.8758 35.4168 49.4834 35.1854 49.0171L16.9506 52.1637V62.5337ZM17.305 50.5177L34.9567 47.4553C34.9679 47.2942 34.9973 47.135 35.0444 46.9806L22.1676 38.6548C21.8093 39.0753 21.3364 39.3814 20.8071 39.5352L17.305 50.5177ZM38.7866 1.57329C34.1145 1.44301 29.46 2.20018 25.0676 3.805C21.2053 5.22296 17.6218 7.31304 14.4812 9.9795L27.8457 9.43593C27.9923 8.83482 28.3342 8.29995 28.8173 7.91587C29.3004 7.5318 29.8972 7.32046 30.5133 7.31524C31.0285 7.31393 31.5334 7.45997 31.969 7.73632L38.7866 1.57329ZM12.6901 11.614C11.3272 12.9247 10.0754 14.3473 8.94784 15.8669C4.82799 21.3872 2.32073 27.9513 1.70728 34.823C1.70728 34.9455 1.68441 35.0795 1.67298 35.2058L11.5201 26.279C11.3403 25.9036 11.2465 25.4925 11.2454 25.0759C11.2444 24.6593 11.3363 24.2478 11.5143 23.8715C11.6922 23.4952 11.9518 23.1637 12.274 22.9014C12.5962 22.639 12.9727 22.4524 13.376 22.3553L13.9476 11.549L12.6901 11.614ZM29.0957 12.4792L20.2965 20.4528L54.6282 9.91443L33.2342 10.7796C33.1284 11.2036 32.9247 11.5968 32.6396 11.9271C32.3545 12.2575 31.996 12.5159 31.5931 12.6813C31.1902 12.8468 30.7542 12.9147 30.3204 12.8796C29.8865 12.8445 29.467 12.7073 29.0957 12.4792ZM12.5796 27.4503L2.82766 36.2815H17.3545C17.4286 35.9228 17.5729 35.5824 17.779 35.2801C17.985 34.9779 18.2488 34.7197 18.5549 34.5206L14.6641 27.7834C14.4503 27.8334 14.2319 27.8604 14.0124 27.8638C13.4973 27.8634 12.9923 27.7203 12.5529 27.4503H12.5796ZM15.4834 22.7075L28.0591 11.3116C28.0087 11.2084 27.9679 11.1008 27.9372 10.9901L15.5406 11.503L14.9651 22.451C15.1517 22.5138 15.3297 22.6 15.4948 22.7075H15.4834ZM2.78955 37.8471L15.8149 50.0966L19.2028 39.4893C18.8144 39.3597 18.4595 39.1452 18.1636 38.8612C17.8677 38.5773 17.6383 38.2309 17.4917 37.8471H2.78955Z" fill="url(#paint4_linear_13_65)"/>
<path opacity="0.68" d="M119.376 53H21.6238C20.727 53 20 53.8214 20 54.8346V62.1654C20 63.1786 20.727 64 21.6238 64H119.376C120.273 64 121 63.1786 121 62.1654V54.8346C121 53.8214 120.273 53 119.376 53Z" fill="#929497"/>
<path d="M24.9748 60.9696V56.606H27.6083V57.0747H25.5032V58.5491H27.472V59.0179H25.5032V60.5009H27.6424V60.9696H24.9748ZM29.8136 62.2651C29.5707 62.2651 29.3619 62.2338 29.1872 62.1713C29.0125 62.1102 28.8669 62.0293 28.7504 61.9284C28.6353 61.829 28.5437 61.7224 28.4755 61.6088L28.8761 61.3276C28.9216 61.3872 28.9791 61.4554 29.0487 61.5321C29.1183 61.6102 29.2135 61.6777 29.3342 61.7345C29.4564 61.7928 29.6162 61.8219 29.8136 61.8219C30.0778 61.8219 30.2958 61.758 30.4677 61.6301C30.6396 61.5023 30.7255 61.302 30.7255 61.0293V60.3645H30.6829C30.646 60.4241 30.5934 60.498 30.5252 60.5861C30.4585 60.6727 30.3619 60.7501 30.2355 60.8183C30.1105 60.8851 29.9414 60.9185 29.7284 60.9185C29.4642 60.9185 29.227 60.856 29.0167 60.731C28.8079 60.606 28.6424 60.4241 28.5203 60.1855C28.3995 59.9469 28.3392 59.6571 28.3392 59.3162C28.3392 58.981 28.3981 58.6891 28.516 58.4405C28.6339 58.1905 28.798 57.9973 29.0082 57.8609C29.2184 57.7232 29.4613 57.6543 29.7369 57.6543C29.95 57.6543 30.119 57.6898 30.244 57.7608C30.3704 57.8304 30.467 57.9099 30.5338 57.9994C30.602 58.0875 30.6545 58.1599 30.6914 58.2168H30.7426V57.6969H31.2284V61.0634C31.2284 61.3446 31.1645 61.5733 31.0366 61.7494C30.9102 61.927 30.7397 62.057 30.5252 62.1393C30.3122 62.2232 30.075 62.2651 29.8136 62.2651ZM29.7966 60.4668C29.9983 60.4668 30.1687 60.4206 30.3079 60.3283C30.4471 60.2359 30.5529 60.1031 30.6254 59.9298C30.6978 59.7565 30.7341 59.5491 30.7341 59.3077C30.7341 59.0719 30.6985 58.8638 30.6275 58.6834C30.5565 58.503 30.4514 58.3616 30.3122 58.2594C30.173 58.1571 30.0011 58.106 29.7966 58.106C29.5835 58.106 29.4059 58.1599 29.2639 58.2679C29.1233 58.3759 29.0174 58.5207 28.9464 58.7026C28.8768 58.8844 28.842 59.0861 28.842 59.3077C28.842 59.5349 28.8775 59.7359 28.9485 59.9107C29.021 60.084 29.1275 60.2203 29.2681 60.3197C29.4102 60.4178 29.5863 60.4668 29.7966 60.4668ZM32.4727 62.1969C32.3875 62.1969 32.3115 62.1898 32.2447 62.1756C32.1779 62.1628 32.1318 62.15 32.1062 62.1372L32.2341 61.694C32.3562 61.7253 32.4642 61.7366 32.5579 61.7281C32.6517 61.7196 32.7348 61.6777 32.8072 61.6024C32.8811 61.5286 32.9485 61.4085 33.0096 61.2423L33.1034 60.9866L31.8931 57.6969H32.4386L33.342 60.3048H33.3761L34.2795 57.6969H34.825L33.4358 61.4469C33.3733 61.6159 33.2958 61.7558 33.2035 61.8666C33.1112 61.9788 33.0039 62.0619 32.8818 62.1159C32.761 62.1699 32.6247 62.1969 32.4727 62.1969ZM35.4887 62.1969V57.6969H35.9745V58.2168H36.0341C36.0711 58.1599 36.1222 58.0875 36.1875 57.9994C36.2543 57.9099 36.3495 57.8304 36.473 57.7608C36.598 57.6898 36.7671 57.6543 36.9801 57.6543C37.2557 57.6543 37.4986 57.7232 37.7088 57.8609C37.9191 57.9987 38.0831 58.194 38.201 58.4469C38.3189 58.6997 38.3779 58.998 38.3779 59.3418C38.3779 59.6884 38.3189 59.9888 38.201 60.243C38.0831 60.4959 37.9198 60.6919 37.711 60.8311C37.5022 60.9689 37.2614 61.0378 36.9887 61.0378C36.7784 61.0378 36.6101 61.003 36.4837 60.9334C36.3573 60.8624 36.26 60.7821 36.1918 60.6926C36.1236 60.6017 36.0711 60.5264 36.0341 60.4668H35.9915V62.1969H35.4887ZM35.983 59.3332C35.983 59.5804 36.0192 59.7984 36.0917 59.9874C36.1641 60.1749 36.2699 60.3219 36.4091 60.4284C36.5483 60.5335 36.7188 60.5861 36.9205 60.5861C37.1307 60.5861 37.3061 60.5307 37.4468 60.4199C37.5888 60.3077 37.6953 60.1571 37.7664 59.9682C37.8388 59.7778 37.875 59.5662 37.875 59.3332C37.875 59.1031 37.8395 58.8957 37.7685 58.7111C37.6989 58.525 37.5931 58.378 37.451 58.27C37.3104 58.1607 37.1336 58.106 36.9205 58.106C36.7159 58.106 36.5441 58.1578 36.4049 58.2615C36.2657 58.3638 36.1605 58.5072 36.0895 58.6919C36.0185 58.8751 35.983 59.0889 35.983 59.3332ZM40.5682 57.6969V58.123H38.8722V57.6969H40.5682ZM39.3665 56.9128H39.8694V60.0321C39.8694 60.1741 39.8899 60.2807 39.9311 60.3517C39.9738 60.4213 40.0277 60.4682 40.0931 60.4923C40.1598 60.5151 40.2301 60.5264 40.304 60.5264C40.3594 60.5264 40.4049 60.5236 40.4404 60.5179C40.4759 60.5108 40.5043 60.5051 40.5256 60.5009L40.6279 60.9526C40.5938 60.9653 40.5462 60.9781 40.4851 60.9909C40.424 61.0051 40.3466 61.0122 40.2529 61.0122C40.1108 61.0122 39.9716 60.9817 39.8353 60.9206C39.7003 60.8595 39.5881 60.7665 39.4986 60.6415C39.4105 60.5165 39.3665 60.3588 39.3665 60.1685V56.9128ZM41.3246 60.9696V57.6969H41.8274V60.9696H41.3246ZM41.5803 57.1514C41.4823 57.1514 41.3978 57.118 41.3267 57.0513C41.2571 56.9845 41.2223 56.9043 41.2223 56.8105C41.2223 56.7168 41.2571 56.6365 41.3267 56.5697C41.3978 56.503 41.4823 56.4696 41.5803 56.4696C41.6783 56.4696 41.7621 56.503 41.8317 56.5697C41.9027 56.6365 41.9382 56.7168 41.9382 56.8105C41.9382 56.9043 41.9027 56.9845 41.8317 57.0513C41.7621 57.118 41.6783 57.1514 41.5803 57.1514ZM43.7115 61.0463C43.5041 61.0463 43.3159 61.0072 43.1469 60.9291C42.9778 60.8496 42.8436 60.7352 42.7442 60.5861C42.6447 60.4355 42.595 60.2537 42.595 60.0406C42.595 59.8531 42.632 59.7011 42.7058 59.5847C42.7797 59.4668 42.8784 59.3744 43.002 59.3077C43.1256 59.2409 43.2619 59.1912 43.4111 59.1585C43.5616 59.1244 43.7129 59.0974 43.8649 59.0776C44.0638 59.052 44.225 59.0328 44.3486 59.02C44.4736 59.0058 44.5645 58.9824 44.6213 58.9497C44.6795 58.917 44.7087 58.8602 44.7087 58.7793V58.7622C44.7087 58.552 44.6511 58.3886 44.5361 58.2722C44.4224 58.1557 44.2499 58.0974 44.0183 58.0974C43.7783 58.0974 43.5901 58.15 43.4537 58.2551C43.3173 58.3602 43.2214 58.4724 43.166 58.5918L42.6888 58.4213C42.774 58.2224 42.8876 58.0676 43.0297 57.9568C43.1732 57.8446 43.3294 57.7665 43.4984 57.7224C43.6689 57.677 43.8365 57.6543 44.0013 57.6543C44.1064 57.6543 44.2271 57.667 44.3635 57.6926C44.5013 57.7168 44.6341 57.7672 44.7619 57.8439C44.8912 57.9206 44.9984 58.0364 45.0837 58.1912C45.1689 58.346 45.2115 58.5534 45.2115 58.8134V60.9696H44.7087V60.5264H44.6831C44.649 60.5974 44.5922 60.6734 44.5126 60.7544C44.4331 60.8354 44.3273 60.9043 44.1952 60.9611C44.0631 61.0179 43.9018 61.0463 43.7115 61.0463ZM43.7882 60.5946C43.9871 60.5946 44.1547 60.5555 44.291 60.4774C44.4288 60.3993 44.5325 60.2984 44.6021 60.1749C44.6732 60.0513 44.7087 59.9213 44.7087 59.7849V59.3247C44.6874 59.3503 44.6405 59.3737 44.568 59.395C44.497 59.4149 44.4146 59.4327 44.3209 59.4483C44.2285 59.4625 44.1384 59.4753 44.0503 59.4866C43.9636 59.4966 43.8933 59.5051 43.8393 59.5122C43.7087 59.5293 43.5865 59.557 43.4729 59.5953C43.3607 59.6322 43.2697 59.6884 43.2001 59.7636C43.132 59.8375 43.0979 59.9384 43.0979 60.0662C43.0979 60.2409 43.1625 60.373 43.2918 60.4625C43.4224 60.5506 43.5879 60.5946 43.7882 60.5946ZM46.6321 59.0009V60.9696H46.1293V57.6969H46.6151V58.2082H46.6577C46.7344 58.042 46.8509 57.9085 47.0071 57.8077C47.1634 57.7054 47.3651 57.6543 47.6122 57.6543C47.8338 57.6543 48.0277 57.6997 48.1939 57.7906C48.3601 57.8801 48.4894 58.0165 48.5817 58.1997C48.674 58.3815 48.7202 58.6116 48.7202 58.8901V60.9696H48.2174V58.9241C48.2174 58.667 48.1506 58.4668 48.0171 58.3233C47.8836 58.1784 47.7003 58.106 47.4674 58.106C47.3069 58.106 47.1634 58.1408 47.037 58.2104C46.912 58.28 46.8132 58.3815 46.7408 58.5151C46.6684 58.6486 46.6321 58.8105 46.6321 59.0009ZM52.7413 60.9696H51.3947V56.606H52.801C53.2243 56.606 53.5865 56.6933 53.8876 56.868C54.1888 57.0413 54.4196 57.2906 54.5801 57.6159C54.7406 57.9398 54.8209 58.3276 54.8209 58.7793C54.8209 59.2338 54.7399 59.6251 54.578 59.9533C54.416 60.28 54.1803 60.5314 53.8706 60.7075C53.5609 60.8822 53.1845 60.9696 52.7413 60.9696ZM51.9232 60.5009H52.7072C53.068 60.5009 53.367 60.4313 53.6043 60.292C53.8415 60.1528 54.0183 59.9547 54.1348 59.6976C54.2513 59.4405 54.3095 59.1344 54.3095 58.7793C54.3095 58.427 54.252 58.1237 54.1369 57.8695C54.0219 57.6138 53.85 57.4178 53.6213 57.2814C53.3926 57.1436 53.1078 57.0747 52.7669 57.0747H51.9232V60.5009ZM55.6391 60.9696V57.6969H56.1419V60.9696H55.6391ZM55.8947 57.1514C55.7967 57.1514 55.7122 57.118 55.6412 57.0513C55.5716 56.9845 55.5368 56.9043 55.5368 56.8105C55.5368 56.7168 55.5716 56.6365 55.6412 56.5697C55.7122 56.503 55.7967 56.4696 55.8947 56.4696C55.9928 56.4696 56.0766 56.503 56.1462 56.5697C56.2172 56.6365 56.2527 56.7168 56.2527 56.8105C56.2527 56.9043 56.2172 56.9845 56.1462 57.0513C56.0766 57.118 55.9928 57.1514 55.8947 57.1514ZM58.3839 62.2651C58.141 62.2651 57.9322 62.2338 57.7575 62.1713C57.5828 62.1102 57.4372 62.0293 57.3207 61.9284C57.2056 61.829 57.114 61.7224 57.0458 61.6088L57.4464 61.3276C57.4919 61.3872 57.5494 61.4554 57.619 61.5321C57.6886 61.6102 57.7838 61.6777 57.9045 61.7345C58.0267 61.7928 58.1865 61.8219 58.3839 61.8219C58.6481 61.8219 58.8662 61.758 59.038 61.6301C59.2099 61.5023 59.2958 61.302 59.2958 61.0293V60.3645H59.2532C59.2163 60.4241 59.1637 60.498 59.0956 60.5861C59.0288 60.6727 58.9322 60.7501 58.8058 60.8183C58.6808 60.8851 58.5118 60.9185 58.2987 60.9185C58.0345 60.9185 57.7973 60.856 57.587 60.731C57.3782 60.606 57.2127 60.4241 57.0906 60.1855C56.9698 59.9469 56.9095 59.6571 56.9095 59.3162C56.9095 58.981 56.9684 58.6891 57.0863 58.4405C57.2042 58.1905 57.3683 57.9973 57.5785 57.8609C57.7887 57.7232 58.0316 57.6543 58.3072 57.6543C58.5203 57.6543 58.6893 57.6898 58.8143 57.7608C58.9407 57.8304 59.0373 57.9099 59.1041 57.9994C59.1723 58.0875 59.2248 58.1599 59.2618 58.2168H59.3129V57.6969H59.7987V61.0634C59.7987 61.3446 59.7348 61.5733 59.6069 61.7494C59.4805 61.927 59.31 62.057 59.0956 62.1393C58.8825 62.2232 58.6453 62.2651 58.3839 62.2651ZM58.3669 60.4668C58.5686 60.4668 58.739 60.4206 58.8782 60.3283C59.0174 60.2359 59.1233 60.1031 59.1957 59.9298C59.2681 59.7565 59.3044 59.5491 59.3044 59.3077C59.3044 59.0719 59.2689 58.8638 59.1978 58.6834C59.1268 58.503 59.0217 58.3616 58.8825 58.2594C58.7433 58.1571 58.5714 58.106 58.3669 58.106C58.1538 58.106 57.9762 58.1599 57.8342 58.2679C57.6936 58.3759 57.5877 58.5207 57.5167 58.7026C57.4471 58.8844 57.4123 59.0861 57.4123 59.3077C57.4123 59.5349 57.4478 59.7359 57.5189 59.9107C57.5913 60.084 57.6978 60.2203 57.8385 60.3197C57.9805 60.4178 58.1566 60.4668 58.3669 60.4668ZM60.7191 60.9696V57.6969H61.222V60.9696H60.7191ZM60.9748 57.1514C60.8768 57.1514 60.7923 57.118 60.7213 57.0513C60.6517 56.9845 60.6169 56.9043 60.6169 56.8105C60.6169 56.7168 60.6517 56.6365 60.7213 56.5697C60.7923 56.503 60.8768 56.4696 60.9748 56.4696C61.0728 56.4696 61.1566 56.503 61.2262 56.5697C61.2973 56.6365 61.3328 56.7168 61.3328 56.8105C61.3328 56.9043 61.2973 56.9845 61.2262 57.0513C61.1566 57.118 61.0728 57.1514 60.9748 57.1514ZM63.5663 57.6969V58.123H61.8702V57.6969H63.5663ZM62.3646 56.9128H62.8674V60.0321C62.8674 60.1741 62.888 60.2807 62.9292 60.3517C62.9718 60.4213 63.0258 60.4682 63.0911 60.4923C63.1579 60.5151 63.2282 60.5264 63.3021 60.5264C63.3575 60.5264 63.4029 60.5236 63.4384 60.5179C63.4739 60.5108 63.5023 60.5051 63.5236 60.5009L63.6259 60.9526C63.5918 60.9653 63.5442 60.9781 63.4832 60.9909C63.4221 61.0051 63.3447 61.0122 63.2509 61.0122C63.1089 61.0122 62.9697 60.9817 62.8333 60.9206C62.6984 60.8595 62.5861 60.7665 62.4967 60.6415C62.4086 60.5165 62.3646 60.3588 62.3646 60.1685V56.9128ZM65.2857 61.0463C65.0783 61.0463 64.8901 61.0072 64.7211 60.9291C64.5521 60.8496 64.4178 60.7352 64.3184 60.5861C64.219 60.4355 64.1692 60.2537 64.1692 60.0406C64.1692 59.8531 64.2062 59.7011 64.28 59.5847C64.3539 59.4668 64.4526 59.3744 64.5762 59.3077C64.6998 59.2409 64.8361 59.1912 64.9853 59.1585C65.1359 59.1244 65.2871 59.0974 65.4391 59.0776C65.638 59.052 65.7992 59.0328 65.9228 59.02C66.0478 59.0058 66.1387 58.9824 66.1955 58.9497C66.2538 58.917 66.2829 58.8602 66.2829 58.7793V58.7622C66.2829 58.552 66.2254 58.3886 66.1103 58.2722C65.9967 58.1557 65.8241 58.0974 65.5925 58.0974C65.3525 58.0974 65.1643 58.15 65.0279 58.2551C64.8915 58.3602 64.7957 58.4724 64.7403 58.5918L64.263 58.4213C64.3482 58.2224 64.4619 58.0676 64.6039 57.9568C64.7474 57.8446 64.9036 57.7665 65.0727 57.7224C65.2431 57.677 65.4107 57.6543 65.5755 57.6543C65.6806 57.6543 65.8013 57.667 65.9377 57.6926C66.0755 57.7168 66.2083 57.7672 66.3361 57.8439C66.4654 57.9206 66.5727 58.0364 66.6579 58.1912C66.7431 58.346 66.7857 58.5534 66.7857 58.8134V60.9696H66.2829V60.5264H66.2573C66.2232 60.5974 66.1664 60.6734 66.0869 60.7544C66.0073 60.8354 65.9015 60.9043 65.7694 60.9611C65.6373 61.0179 65.4761 61.0463 65.2857 61.0463ZM65.3624 60.5946C65.5613 60.5946 65.7289 60.5555 65.8653 60.4774C66.0031 60.3993 66.1067 60.2984 66.1763 60.1749C66.2474 60.0513 66.2829 59.9213 66.2829 59.7849V59.3247C66.2616 59.3503 66.2147 59.3737 66.1423 59.395C66.0712 59.4149 65.9888 59.4327 65.8951 59.4483C65.8028 59.4625 65.7126 59.4753 65.6245 59.4866C65.5379 59.4966 65.4675 59.5051 65.4136 59.5122C65.2829 59.5293 65.1607 59.557 65.0471 59.5953C64.9349 59.6322 64.844 59.6884 64.7744 59.7636C64.7062 59.8375 64.6721 59.9384 64.6721 60.0662C64.6721 60.2409 64.7367 60.373 64.866 60.4625C64.9967 60.5506 65.1621 60.5946 65.3624 60.5946ZM68.2064 56.606V60.9696H67.7035V56.606H68.2064ZM70.883 60.9696V56.606H71.4114V58.5491H73.7381V56.606H74.2665V60.9696H73.7381V59.0179H71.4114V60.9696H70.883ZM76.6284 61.0378C76.3131 61.0378 76.041 60.9682 75.8124 60.829C75.5851 60.6884 75.4097 60.4923 75.2861 60.2409C75.1639 59.9881 75.1028 59.694 75.1028 59.3588C75.1028 59.0236 75.1639 58.7281 75.2861 58.4724C75.4097 58.2153 75.5815 58.0151 75.8017 57.8716C76.0233 57.7267 76.2818 57.6543 76.5773 57.6543C76.7477 57.6543 76.916 57.6827 77.0822 57.7395C77.2484 57.7963 77.3997 57.8886 77.5361 58.0165C77.6724 58.1429 77.7811 58.3105 77.8621 58.5193C77.943 58.7281 77.9835 58.9852 77.9835 59.2906V59.5037H75.4608V59.069H77.4722C77.4722 58.8844 77.4352 58.7196 77.3614 58.5747C77.2889 58.4298 77.1852 58.3155 77.0503 58.2317C76.9168 58.1479 76.7591 58.106 76.5773 58.106C76.377 58.106 76.2037 58.1557 76.0574 58.2551C75.9125 58.3531 75.801 58.481 75.7229 58.6386C75.6447 58.7963 75.6057 58.9653 75.6057 59.1457V59.4355C75.6057 59.6827 75.6483 59.8922 75.7335 60.0641C75.8202 60.2345 75.9402 60.3645 76.0936 60.454C76.247 60.542 76.4253 60.5861 76.6284 60.5861C76.7605 60.5861 76.8798 60.5676 76.9864 60.5307C77.0943 60.4923 77.1874 60.4355 77.2655 60.3602C77.3436 60.2835 77.404 60.1884 77.4466 60.0747L77.9324 60.2111C77.8812 60.3759 77.7953 60.5207 77.6746 60.6457C77.5538 60.7693 77.4047 60.8659 77.2271 60.9355C77.0496 61.0037 76.85 61.0378 76.6284 61.0378ZM79.7115 61.0463C79.5041 61.0463 79.3159 61.0072 79.1469 60.9291C78.9778 60.8496 78.8436 60.7352 78.7442 60.5861C78.6447 60.4355 78.595 60.2537 78.595 60.0406C78.595 59.8531 78.632 59.7011 78.7058 59.5847C78.7797 59.4668 78.8784 59.3744 79.002 59.3077C79.1256 59.2409 79.2619 59.1912 79.4111 59.1585C79.5616 59.1244 79.7129 59.0974 79.8649 59.0776C80.0638 59.052 80.225 59.0328 80.3486 59.02C80.4736 59.0058 80.5645 58.9824 80.6213 58.9497C80.6795 58.917 80.7087 58.8602 80.7087 58.7793V58.7622C80.7087 58.552 80.6511 58.3886 80.5361 58.2722C80.4224 58.1557 80.2499 58.0974 80.0183 58.0974C79.7783 58.0974 79.5901 58.15 79.4537 58.2551C79.3173 58.3602 79.2214 58.4724 79.166 58.5918L78.6888 58.4213C78.774 58.2224 78.8876 58.0676 79.0297 57.9568C79.1732 57.8446 79.3294 57.7665 79.4984 57.7224C79.6689 57.677 79.8365 57.6543 80.0013 57.6543C80.1064 57.6543 80.2271 57.667 80.3635 57.6926C80.5013 57.7168 80.6341 57.7672 80.7619 57.8439C80.8912 57.9206 80.9984 58.0364 81.0837 58.1912C81.1689 58.346 81.2115 58.5534 81.2115 58.8134V60.9696H80.7087V60.5264H80.6831C80.649 60.5974 80.5922 60.6734 80.5126 60.7544C80.4331 60.8354 80.3273 60.9043 80.1952 60.9611C80.0631 61.0179 79.9018 61.0463 79.7115 61.0463ZM79.7882 60.5946C79.9871 60.5946 80.1547 60.5555 80.291 60.4774C80.4288 60.3993 80.5325 60.2984 80.6021 60.1749C80.6732 60.0513 80.7087 59.9213 80.7087 59.7849V59.3247C80.6874 59.3503 80.6405 59.3737 80.568 59.395C80.497 59.4149 80.4146 59.4327 80.3209 59.4483C80.2285 59.4625 80.1384 59.4753 80.0503 59.4866C79.9636 59.4966 79.8933 59.5051 79.8393 59.5122C79.7087 59.5293 79.5865 59.557 79.4729 59.5953C79.3607 59.6322 79.2697 59.6884 79.2001 59.7636C79.132 59.8375 79.0979 59.9384 79.0979 60.0662C79.0979 60.2409 79.1625 60.373 79.2918 60.4625C79.4224 60.5506 79.5879 60.5946 79.7882 60.5946ZM82.6321 56.606V60.9696H82.1293V56.606H82.6321ZM84.9764 57.6969V58.123H83.2804V57.6969H84.9764ZM83.7747 56.9128H84.2776V60.0321C84.2776 60.1741 84.2982 60.2807 84.3393 60.3517C84.382 60.4213 84.4359 60.4682 84.5013 60.4923C84.568 60.5151 84.6384 60.5264 84.7122 60.5264C84.7676 60.5264 84.8131 60.5236 84.8486 60.5179C84.8841 60.5108 84.9125 60.5051 84.9338 60.5009L85.0361 60.9526C85.002 60.9653 84.9544 60.9781 84.8933 60.9909C84.8322 61.0051 84.7548 61.0122 84.6611 61.0122C84.519 61.0122 84.3798 60.9817 84.2435 60.9206C84.1085 60.8595 83.9963 60.7665 83.9068 60.6415C83.8187 60.5165 83.7747 60.3588 83.7747 60.1685V56.9128ZM86.306 59.0009V60.9696H85.8031V56.606H86.306V58.2082H86.3486C86.4253 58.0392 86.5403 57.905 86.6937 57.8055C86.8486 57.7047 87.0545 57.6543 87.3116 57.6543C87.5347 57.6543 87.73 57.699 87.8976 57.7885C88.0652 57.8766 88.1952 58.0122 88.2875 58.1955C88.3812 58.3773 88.4281 58.6088 88.4281 58.8901V60.9696H87.9253V58.9241C87.9253 58.6642 87.8578 58.4632 87.7229 58.3212C87.5893 58.1777 87.404 58.106 87.1668 58.106C87.002 58.106 86.8543 58.1408 86.7236 58.2104C86.5943 58.28 86.492 58.3815 86.4168 58.5151C86.3429 58.6486 86.306 58.8105 86.306 59.0009ZM91.1037 60.9696V56.606H92.5782C92.9205 56.606 93.2003 56.6678 93.4176 56.7913C93.6364 56.9135 93.7983 57.079 93.9034 57.2878C94.0086 57.4966 94.0611 57.7295 94.0611 57.9866C94.0611 58.2438 94.0086 58.4774 93.9034 58.6876C93.7997 58.8979 93.6392 59.0655 93.4219 59.1905C93.2046 59.3141 92.9262 59.3759 92.5867 59.3759H91.5299V58.9071H92.5696C92.804 58.9071 92.9922 58.8666 93.1343 58.7857C93.2763 58.7047 93.3793 58.5953 93.4432 58.4575C93.5086 58.3183 93.5412 58.1614 93.5412 57.9866C93.5412 57.8119 93.5086 57.6557 93.4432 57.5179C93.3793 57.3801 93.2756 57.2722 93.1321 57.194C92.9887 57.1145 92.7983 57.0747 92.5611 57.0747H91.6321V60.9696H91.1037ZM95.347 56.606V60.9696H94.8441V56.606H95.347ZM97.231 61.0463C97.0236 61.0463 96.8354 61.0072 96.6664 60.9291C96.4974 60.8496 96.3631 60.7352 96.2637 60.5861C96.1643 60.4355 96.1146 60.2537 96.1146 60.0406C96.1146 59.8531 96.1515 59.7011 96.2254 59.5847C96.2992 59.4668 96.3979 59.3744 96.5215 59.3077C96.6451 59.2409 96.7815 59.1912 96.9306 59.1585C97.0812 59.1244 97.2325 59.0974 97.3844 59.0776C97.5833 59.052 97.7445 59.0328 97.8681 59.02C97.9931 59.0058 98.084 58.9824 98.1408 58.9497C98.1991 58.917 98.2282 58.8602 98.2282 58.7793V58.7622C98.2282 58.552 98.1707 58.3886 98.0556 58.2722C97.942 58.1557 97.7694 58.0974 97.5379 58.0974C97.2978 58.0974 97.1096 58.15 96.9732 58.2551C96.8369 58.3602 96.741 58.4724 96.6856 58.5918L96.2083 58.4213C96.2935 58.2224 96.4072 58.0676 96.5492 57.9568C96.6927 57.8446 96.8489 57.7665 97.018 57.7224C97.1884 57.677 97.356 57.6543 97.5208 57.6543C97.6259 57.6543 97.7467 57.667 97.883 57.6926C98.0208 57.7168 98.1536 57.7672 98.2815 57.8439C98.4107 57.9206 98.518 58.0364 98.6032 58.1912C98.6884 58.346 98.731 58.5534 98.731 58.8134V60.9696H98.2282V60.5264H98.2026C98.1685 60.5974 98.1117 60.6734 98.0322 60.7544C97.9526 60.8354 97.8468 60.9043 97.7147 60.9611C97.5826 61.0179 97.4214 61.0463 97.231 61.0463ZM97.3077 60.5946C97.5066 60.5946 97.6742 60.5555 97.8106 60.4774C97.9484 60.3993 98.0521 60.2984 98.1217 60.1749C98.1927 60.0513 98.2282 59.9213 98.2282 59.7849V59.3247C98.2069 59.3503 98.16 59.3737 98.0876 59.395C98.0165 59.4149 97.9342 59.4327 97.8404 59.4483C97.7481 59.4625 97.6579 59.4753 97.5698 59.4866C97.4832 59.4966 97.4129 59.5051 97.3589 59.5122C97.2282 59.5293 97.106 59.557 96.9924 59.5953C96.8802 59.6322 96.7893 59.6884 96.7197 59.7636C96.6515 59.8375 96.6174 59.9384 96.6174 60.0662C96.6174 60.2409 96.682 60.373 96.8113 60.4625C96.942 60.5506 97.1075 60.5946 97.3077 60.5946ZM101.072 57.6969V58.123H99.3761V57.6969H101.072ZM99.8704 56.9128H100.373V60.0321C100.373 60.1741 100.394 60.2807 100.435 60.3517C100.478 60.4213 100.532 60.4682 100.597 60.4923C100.664 60.5151 100.734 60.5264 100.808 60.5264C100.863 60.5264 100.909 60.5236 100.944 60.5179C100.98 60.5108 101.008 60.5051 101.03 60.5009L101.132 60.9526C101.098 60.9653 101.05 60.9781 100.989 60.9909C100.928 61.0051 100.851 61.0122 100.757 61.0122C100.615 61.0122 100.476 60.9817 100.339 60.9206C100.204 60.8595 100.092 60.7665 100.003 60.6415C99.9145 60.5165 99.8704 60.3588 99.8704 60.1685V56.9128ZM103.286 57.6969V58.123H101.522V57.6969H103.286ZM102.05 60.9696V57.2452C102.05 57.0577 102.094 56.9014 102.182 56.7764C102.27 56.6514 102.385 56.5577 102.525 56.4952C102.666 56.4327 102.814 56.4014 102.971 56.4014C103.094 56.4014 103.195 56.4114 103.273 56.4313C103.351 56.4511 103.409 56.4696 103.448 56.4866L103.303 56.9213C103.277 56.9128 103.242 56.9021 103.196 56.8893C103.152 56.8766 103.094 56.8702 103.022 56.8702C102.856 56.8702 102.735 56.9121 102.662 56.9959C102.589 57.0797 102.553 57.2026 102.553 57.3645V60.9696H102.05ZM105.185 61.0378C104.89 61.0378 104.631 60.9675 104.408 60.8268C104.186 60.6862 104.013 60.4895 103.888 60.2366C103.764 59.9838 103.702 59.6884 103.702 59.3503C103.702 59.0094 103.764 58.7118 103.888 58.4575C104.013 58.2033 104.186 58.0058 104.408 57.8652C104.631 57.7246 104.89 57.6543 105.185 57.6543C105.481 57.6543 105.739 57.7246 105.961 57.8652C106.184 58.0058 106.357 58.2033 106.481 58.4575C106.606 58.7118 106.668 59.0094 106.668 59.3503C106.668 59.6884 106.606 59.9838 106.481 60.2366C106.357 60.4895 106.184 60.6862 105.961 60.8268C105.739 60.9675 105.481 61.0378 105.185 61.0378ZM105.185 60.5861C105.41 60.5861 105.594 60.5286 105.739 60.4135C105.884 60.2984 105.992 60.1472 106.061 59.9597C106.131 59.7722 106.166 59.569 106.166 59.3503C106.166 59.1315 106.131 58.9277 106.061 58.7388C105.992 58.5499 105.884 58.3972 105.739 58.2807C105.594 58.1642 105.41 58.106 105.185 58.106C104.961 58.106 104.776 58.1642 104.631 58.2807C104.487 58.3972 104.379 58.5499 104.31 58.7388C104.24 58.9277 104.205 59.1315 104.205 59.3503C104.205 59.569 104.24 59.7722 104.31 59.9597C104.379 60.1472 104.487 60.2984 104.631 60.4135C104.776 60.5286 104.961 60.5861 105.185 60.5861ZM107.436 60.9696V57.6969H107.922V58.1912H107.956C108.015 58.0293 108.123 57.8979 108.28 57.797C108.436 57.6962 108.612 57.6457 108.808 57.6457C108.845 57.6457 108.891 57.6465 108.947 57.6479C109.002 57.6493 109.044 57.6514 109.072 57.6543V58.1656C109.055 58.1614 109.016 58.155 108.955 58.1465C108.895 58.1365 108.832 58.1315 108.765 58.1315C108.606 58.1315 108.464 58.1649 108.339 58.2317C108.216 58.297 108.118 58.3879 108.045 58.5044C107.974 58.6195 107.939 58.7509 107.939 58.8986V60.9696H107.436ZM109.668 60.9696V57.6969H110.154V58.2082H110.197C110.265 58.0335 110.375 57.8979 110.527 57.8013C110.679 57.7033 110.862 57.6543 111.075 57.6543C111.291 57.6543 111.47 57.7033 111.614 57.8013C111.759 57.8979 111.871 58.0335 111.952 58.2082H111.987C112.07 58.0392 112.196 57.905 112.364 57.8055C112.531 57.7047 112.732 57.6543 112.967 57.6543C113.259 57.6543 113.499 57.7459 113.685 57.9291C113.871 58.1109 113.964 58.3943 113.964 58.7793V60.9696H113.461V58.7793C113.461 58.5378 113.395 58.3652 113.263 58.2615C113.131 58.1578 112.975 58.106 112.796 58.106C112.566 58.106 112.388 58.1756 112.261 58.3148C112.135 58.4526 112.072 58.6273 112.072 58.8389V60.9696H111.56V58.7281C111.56 58.542 111.5 58.3922 111.379 58.2786C111.259 58.1635 111.103 58.106 110.913 58.106C110.782 58.106 110.66 58.1408 110.546 58.2104C110.434 58.28 110.343 58.3766 110.273 58.5001C110.205 58.6223 110.171 58.7636 110.171 58.9241V60.9696H109.668Z" fill="black"/>
</g>
<defs>
<linearGradient id="paint0_linear_13_65" x1="39.6059" y1="129.959" x2="44.5508" y2="-17.2703" gradientUnits="userSpaceOnUse">
<stop offset="0.28" stop-color="#60C9E5"/>
<stop offset="0.46" stop-color="#E3E43B"/>
<stop offset="0.66" stop-color="#00B3BB"/>
<stop offset="1" stop-color="#00466B"/>
</linearGradient>
<linearGradient id="paint1_linear_13_65" x1="59.9328" y1="130.641" x2="64.8777" y2="-16.5889" gradientUnits="userSpaceOnUse">
<stop offset="0.23" stop-color="#60C9E5"/>
<stop offset="0.29" stop-color="#E3E43B"/>
<stop offset="0.43" stop-color="#E1E43C"/>
<stop offset="0.48" stop-color="#DAE240"/>
<stop offset="0.52" stop-color="#CEE047"/>
<stop offset="0.55" stop-color="#BEDC50"/>
<stop offset="0.57" stop-color="#A8D75D"/>
<stop offset="0.6" stop-color="#8CD16C"/>
<stop offset="0.62" stop-color="#6CCA7E"/>
<stop offset="0.63" stop-color="#46C293"/>
<stop offset="0.65" stop-color="#1DB9AB"/>
<stop offset="0.66" stop-color="#00B3BB"/>
<stop offset="0.98" stop-color="#00466B"/>
</linearGradient>
<linearGradient id="paint2_linear_13_65" x1="81.8679" y1="131.38" x2="86.8128" y2="-15.8501" gradientUnits="userSpaceOnUse">
<stop offset="0.26" stop-color="#60C9E5"/>
<stop offset="0.38" stop-color="#E3E43B"/>
<stop offset="0.49" stop-color="#E1E43C"/>
<stop offset="0.52" stop-color="#DAE240"/>
<stop offset="0.55" stop-color="#CEE047"/>
<stop offset="0.57" stop-color="#BEDC50"/>
<stop offset="0.59" stop-color="#A8D75D"/>
<stop offset="0.61" stop-color="#8CD16C"/>
<stop offset="0.63" stop-color="#6CCA7E"/>
<stop offset="0.64" stop-color="#46C293"/>
<stop offset="0.65" stop-color="#1DB9AB"/>
<stop offset="0.66" stop-color="#00B3BB"/>
<stop offset="1" stop-color="#00466B"/>
</linearGradient>
<linearGradient id="paint3_linear_13_65" x1="103.67" y1="132.111" x2="108.611" y2="-15.119" gradientUnits="userSpaceOnUse">
<stop offset="0.23" stop-color="#60C9E5"/>
<stop offset="0.44" stop-color="#E3E43B" stop-opacity="0.47"/>
<stop offset="0.53" stop-color="#E0E33D" stop-opacity="0.48"/>
<stop offset="0.56" stop-color="#D7E142" stop-opacity="0.5"/>
<stop offset="0.59" stop-color="#C6DE4B" stop-opacity="0.54"/>
<stop offset="0.61" stop-color="#AED959" stop-opacity="0.59"/>
<stop offset="0.62" stop-color="#8ED26B" stop-opacity="0.67"/>
<stop offset="0.64" stop-color="#68C981" stop-opacity="0.76"/>
<stop offset="0.65" stop-color="#3AC09A" stop-opacity="0.86"/>
<stop offset="0.66" stop-color="#06B4B7" stop-opacity="0.99"/>
<stop offset="0.67" stop-color="#00B3BB"/>
<stop offset="1" stop-color="#00466B"/>
</linearGradient>
<linearGradient id="paint4_linear_13_65" x1="3.0655e-05" y1="34" x2="62.6538" y2="34" gradientUnits="userSpaceOnUse">
<stop stop-color="#E3E43B"/>
<stop offset="0.34" stop-color="#60C9E5"/>
<stop offset="0.66" stop-color="#00B3BB"/>
<stop offset="1" stop-color="#00466B"/>
</linearGradient>
<clipPath id="clip0_13_65">
<rect width="134" height="68" fill="white"/>
</clipPath>
</defs>
</svg>
