<svg xmlns="http://www.w3.org/2000/svg" xmlns:xlink="http://www.w3.org/1999/xlink" width="131" height="129" viewBox="0 0 131 129">
  <defs>
    <filter id="Rectangle_5383" x="0" y="0" width="131" height="129" filterUnits="userSpaceOnUse">
      <feOffset input="SourceAlpha"/>
      <feGaussianBlur stdDeviation="5" result="blur"/>
      <feFlood flood-color="#b7cee6" flood-opacity="0.149"/>
      <feComposite operator="in" in2="blur"/>
      <feComposite in="SourceGraphic"/>
    </filter>
    <linearGradient id="linear-gradient" x1="0.5" x2="0.5" y2="1" gradientUnits="objectBoundingBox">
      <stop offset="0" stop-color="#e6f2ff" stop-opacity="0.4"/>
      <stop offset="1" stop-color="#e7f3ff"/>
    </linearGradient>
    <linearGradient id="linear-gradient-2" x1="0.5" x2="0.5" y2="1" gradientUnits="objectBoundingBox">
      <stop offset="0" stop-color="#0dbbd6"/>
      <stop offset="1" stop-color="#339dfa"/>
    </linearGradient>
    <linearGradient id="linear-gradient-4" x1="0.5" x2="0.5" y2="1" gradientUnits="objectBoundingBox">
      <stop offset="0" stop-color="#157de6"/>
      <stop offset="1" stop-color="#339dfa"/>
    </linearGradient>
  </defs>
  <g id="a_1" transform="translate(-41 -209)">
    <g transform="matrix(1, 0, 0, 1, 41, 209)" filter="url(#Rectangle_5383)">
      <g id="Rectangle_5383-2" data-name="Rectangle 5383" transform="translate(15 15)" fill="#fff" stroke="#dce8f4" stroke-width="1">
        <rect width="101" height="99" rx="15" stroke="none"/>
        <rect x="0.5" y="0.5" width="100" height="98" rx="14.5" fill="none"/>
      </g>
    </g>
    <g id="_7206467_3412735" data-name="7206467_3412735" transform="translate(28.747 192.409)">
      <g id="Floor" transform="translate(35.253 77.668)">
        <ellipse id="Floor_10_" cx="42.533" cy="23.55" rx="42.533" ry="23.55" transform="translate(0)" fill="url(#linear-gradient)"/>
      </g>
      <g id="Shadows" transform="translate(45.047 95.801)">
        <path id="Shadow_5_" d="M89.434,338.091c-6.349,3.666-6.349,9.609,0,13.275s16.644,3.666,22.993,0,6.349-9.609,0-13.275S95.783,334.425,89.434,338.091Z" transform="translate(-84.672 -335.341)" fill="#e0e0e0"/>
      </g>
      <g id="Plants" transform="translate(36.408 77.93)">
        <g id="Plants_14_" transform="translate(72.633)">
          <g id="XMLID_574_">
            <g id="XMLID_579_">
              <path id="XMLID_580_" d="M410.031,261.524l-1.749-1.011a28.166,28.166,0,0,1-.626-8.217c.583-5.471,4.185-7.53,5.554-7.058s1.766,2.064-.5,5.323A18.133,18.133,0,0,0,410.031,261.524Z" transform="translate(-407.558 -245.174)" fill="#27debf"/>
            </g>
            <g id="XMLID_577_" opacity="0.15">
              <path id="XMLID_578_" d="M410.031,261.524l-1.749-1.011a28.166,28.166,0,0,1-.626-8.217c.583-5.471,4.185-7.53,5.554-7.058.929.32,1.41,1.155.813,2.97a10.394,10.394,0,0,1-1.312,2.352A18.133,18.133,0,0,0,410.031,261.524Z" transform="translate(-407.558 -245.174)" fill="#157de6"/>
            </g>
            <g id="XMLID_575_" transform="translate(1.352 0.802)">
              <path id="XMLID_576_" d="M414.778,262.643l.017,0a.121.121,0,0,0,.1-.142c-.959-5.047.8-10.717,2.987-13.077a.121.121,0,1,0-.178-.165c-2.223,2.4-4.02,8.166-3.047,13.287A.121.121,0,0,0,414.778,262.643Z" transform="translate(-414.382 -249.218)" fill="#fff"/>
            </g>
          </g>
          <g id="XMLID_567_" transform="translate(0.974 4.419)">
            <g id="XMLID_572_">
              <path id="XMLID_573_" d="M418.551,282.05c.276.141,1.011-.488,1.216-.641a2.565,2.565,0,0,0,.8-1.021,2.406,2.406,0,0,0,.141-1.453,5.7,5.7,0,0,0-.221-.758l-.251-.734a1.885,1.885,0,0,1-.147-.745,1.958,1.958,0,0,1,.869-1.22,1.871,1.871,0,0,0,.854-1.449,2.159,2.159,0,0,0-.6-1.256c-.312-.356-.676-.667-.961-1.045a1.507,1.507,0,0,1-.357-.937,1.571,1.571,0,0,1,.177-.605,8.436,8.436,0,0,0,.591-1.226,1.2,1.2,0,0,0-.271-1.258,1.406,1.406,0,0,0-1.068-.209,2.422,2.422,0,0,0-.963.395c-.946.59-1.443,1.77-2.454,2.239a10.319,10.319,0,0,1-1.234.368,1.545,1.545,0,0,0-1,.758c-.341.776.41,1.674.184,2.491-.2.723-.877,1.03-1.233,1.691a1.522,1.522,0,0,0-.135.94,4.473,4.473,0,0,0,.472,1.553,14.037,14.037,0,0,0,.934,1.436S418.509,282.028,418.551,282.05Z" transform="translate(-412.471 -267.473)" fill="#329df9"/>
            </g>
            <g id="XMLID_570_" transform="translate(3.214 0.993)">
              <path id="XMLID_571_" d="M428.875,284.673h0a.122.122,0,0,0,.112-.132c-.443-4.8,1.556-10.225,3.126-11.851a.121.121,0,1,0-.175-.169c-1.6,1.659-3.642,7.174-3.193,12.042A.121.121,0,0,0,428.875,284.673Z" transform="translate(-428.685 -272.485)" fill="#fff"/>
            </g>
            <g id="XMLID_568_" transform="translate(3.753 6.275)">
              <path id="XMLID_569_" d="M431.533,300.122a.112.112,0,0,0,.035-.007,16.273,16.273,0,0,1,3.462-.739.122.122,0,0,0,.11-.132.118.118,0,0,0-.132-.11,16.585,16.585,0,0,0-3.523.753.121.121,0,0,0,.048.235Z" transform="translate(-431.405 -299.134)" fill="#fff"/>
            </g>
          </g>
        </g>
        <g id="Plants_8_" transform="translate(0)">
          <g id="XMLID_560_" transform="translate(3.553)">
            <g id="XMLID_565_">
              <path id="XMLID_566_" d="M63.3,261.524l1.749-1.011a28.166,28.166,0,0,0,.626-8.217c-.583-5.471-4.185-7.53-5.554-7.058s-1.766,2.064.5,5.323A18.133,18.133,0,0,1,63.3,261.524Z" transform="translate(-59.005 -245.174)" fill="#27debf"/>
            </g>
            <g id="XMLID_563_" opacity="0.15">
              <path id="XMLID_564_" d="M63.3,261.524l1.749-1.011a28.166,28.166,0,0,0,.626-8.217c-.583-5.471-4.185-7.53-5.554-7.058s-1.766,2.064.5,5.323A18.133,18.133,0,0,1,63.3,261.524Z" transform="translate(-59.005 -245.174)" fill="#329df9"/>
            </g>
            <g id="XMLID_561_" transform="translate(1.885 0.802)">
              <path id="XMLID_562_" d="M71.648,262.643l-.017,0a.121.121,0,0,1-.1-.142c.959-5.047-.8-10.717-2.987-13.077a.121.121,0,1,1,.178-.165c2.223,2.4,4.02,8.166,3.047,13.287A.121.121,0,0,1,71.648,262.643Z" transform="translate(-68.515 -249.218)" fill="#fff"/>
            </g>
          </g>
          <g id="XMLID_549_" transform="translate(0 4.419)">
            <g id="XMLID_558_">
              <path id="XMLID_559_" d="M44.344,282.05c-.276.141-1.011-.488-1.216-.641a2.565,2.565,0,0,1-.8-1.021,2.4,2.4,0,0,1-.141-1.453,5.729,5.729,0,0,1,.221-.758l.251-.734a1.892,1.892,0,0,0,.147-.745,1.958,1.958,0,0,0-.869-1.22,1.871,1.871,0,0,1-.854-1.449,2.159,2.159,0,0,1,.6-1.256c.312-.356.676-.667.961-1.045a1.507,1.507,0,0,0,.357-.937,1.572,1.572,0,0,0-.177-.605,8.437,8.437,0,0,1-.591-1.226,1.2,1.2,0,0,1,.271-1.258,1.406,1.406,0,0,1,1.068-.209,2.422,2.422,0,0,1,.963.395c.946.59,1.443,1.77,2.454,2.239a10.318,10.318,0,0,0,1.234.368,1.545,1.545,0,0,1,1,.758c.341.776-.409,1.674-.184,2.491.2.723.877,1.03,1.233,1.691a1.522,1.522,0,0,1,.135.94,4.473,4.473,0,0,1-.472,1.553A14.036,14.036,0,0,1,49,279.362S44.387,282.028,44.344,282.05Z" transform="translate(-41.08 -267.473)" fill="#329df9"/>
            </g>
            <g id="XMLID_556_" transform="translate(2.666 0.993)">
              <path id="XMLID_557_" d="M57.808,284.673h0a.122.122,0,0,1-.112-.132c.443-4.8-1.556-10.225-3.126-11.851a.121.121,0,1,1,.175-.169c1.6,1.659,3.642,7.174,3.193,12.042A.121.121,0,0,1,57.808,284.673Z" transform="translate(-54.533 -272.485)" fill="#fff"/>
            </g>
            <g id="XMLID_551_" transform="translate(1.856 6.275)">
              <path id="XMLID_555_" d="M54.054,300.122a.112.112,0,0,1-.035-.007,16.272,16.272,0,0,0-3.462-.739.122.122,0,0,1-.11-.132.118.118,0,0,1,.132-.11,16.585,16.585,0,0,1,3.523.753.121.121,0,0,1-.048.235Z" transform="translate(-50.446 -299.134)" fill="#fff"/>
            </g>
          </g>
        </g>
      </g>
      <g id="Character" transform="translate(47.87 36.591)">
        <g id="Character_1_">
          <g id="Group_55314" data-name="Group 55314" transform="translate(17.08 13.029)">
            <path id="Path_50828" data-name="Path 50828" d="M185.093,102.763c2.21-.086,3.078.051,3.869,1.012.86,1.044,3.808,10.619,3.808,10.619l7.866,2.725-2.926,1.859s-4.811-.99-6.232-1.265c-1.118-.216-1.484-.227-2.047-1.656-.78-1.983-4.105-10.128-4.105-10.128Z" transform="translate(-185.093 -102.66)" fill="#ffa8a7"/>
            <path id="Path_50829" data-name="Path 50829" d="M186.433,102.381a5.274,5.274,0,0,1,2.93.327c.71.387,1.009.859,1.49,2.066s3.1,9.1,3.1,9.1l3.839,1.367-.785,3.04s-4.175-.726-5.037-.922-1.1-.382-1.586-1.5-3.344-8.245-3.344-8.245Z" transform="translate(-186.167 -102.33)" fill="#455a64"/>
          </g>
          <g id="XMLID_330_" transform="translate(3.057 30.782)">
            <path id="Path_50830" data-name="Path 50830" d="M120.192,384.632c-.083.328-.257,1.256-1.982,1.256s-2.716-.707-3.055-1.584a4.866,4.866,0,0,1-.113-2.291c.032-.764-.537-1.252-.663-1.665a2.222,2.222,0,0,1,.323-1.447Z" transform="translate(-114.338 -341.841)" fill="#263238"/>
            <path id="Path_50831" data-name="Path 50831" d="M186.731,380.141a1.035,1.035,0,0,1-.08.831,3.578,3.578,0,0,1-2.71.835A6.6,6.6,0,0,1,181,380.779a3.822,3.822,0,0,0-2.261-.561c-.822,0-1.431-.158-1.5-.371-.123-.375-.132-.615.048-.609Z" transform="translate(-164.699 -342.111)" fill="#263238"/>
            <path id="XMLID_341_" d="M119.072,358.632c0,1.573,3.012,1.86,2.937.594l1.05-3.676-3.4-.361Z" transform="translate(-118.134 -322.828)" fill="#ffa8a7"/>
            <path id="Path_50832" data-name="Path 50832" d="M120.514,376.928a9.881,9.881,0,0,0-.651-1.037,8.457,8.457,0,0,1-1.143-4.735c.006-.092.018-.27-.064-.337s-.186,0-.289.026l0-.005,0,.007a1.8,1.8,0,0,1-.543.065,9.9,9.9,0,0,1-1.406-.251c-.119,0-.2.356-.248.747-.195-.164-.228-.441-.4-.624-.092-.1-.137-.107-.116-.246.014-.09.031-.171.044-.261-.148-.066-.358.506-.547.94a2.655,2.655,0,0,0-.349,1.623,4.547,4.547,0,0,0,.365.884,3.423,3.423,0,0,1,.409,1.583c-.01.241-.061.48-.06.721a2.116,2.116,0,0,0,1.241,1.923,4.168,4.168,0,0,0,3.555.03C120.662,377.773,120.626,377.227,120.514,376.928Z" transform="translate(-114.678 -334.923)" fill="#263238"/>
            <path id="XMLID_340_" d="M178.693,345.146a2.289,2.289,0,0,0,2.639.185l.5-5.363h-3.684Z" transform="translate(-165.505 -310.624)" fill="#ffa8a7"/>
            <path id="XMLID_339_" d="M123.7,192.049c-.68,6.241-1.583,18.635-1.583,18.635a15.319,15.319,0,0,0-1.421,4.888c-.493,3.718-1.071,10.79-1.071,10.79a4.536,4.536,0,0,0,3.43.584s3.869-11.165,4.641-14.825c.673-3.194,1.866-9.755,1.866-9.755l1.492,8.928a13.957,13.957,0,0,0-.482,4.351c.072,1.719.749,8.293.749,8.293a4.143,4.143,0,0,0,3.43.143s1.033-10.945,1.184-12.751c.2-2.376.566-19.423.566-19.423Z" transform="translate(-118.576 -191.908)" fill="#263238"/>
            <path id="Path_50833" data-name="Path 50833" d="M169.765,223.115l.833-3.839a9.075,9.075,0,0,0,3.191-1.491,4.767,4.767,0,0,1-2.526,2.162l-.85,3.6.732,7.889Z" transform="translate(-158.78 -212.656)"/>
            <path id="Path_50834" data-name="Path 50834" d="M185.764,364.35a17.575,17.575,0,0,1-3.65-1.754,7.3,7.3,0,0,1-.586-.45c-.359-.36-.578-1.145-.733-1.235-.05-.029-.122.006-.225.07a.255.255,0,0,0-.165-.1l-.02.217a2.335,2.335,0,0,1-.965.352c-.864.11-.9-.063-.926.218a1.975,1.975,0,0,0,0,.314c-.461-.059-.827-.193-.853-.366l-.076-.553c-.458-.024-.458.794-.573,1.716a3.575,3.575,0,0,0-.027,1.829c.713.577,1.924.385,2.622.474.987.125,1.473.834,2.854,1.255a3.93,3.93,0,0,0,3.98-.649C186.679,365.193,186.533,364.638,185.764,364.35Z" transform="translate(-164.464 -327.393)" fill="#263238"/>
          </g>
          <g id="Group_55315" data-name="Group 55315" transform="translate(7.826 13)">
            <path id="XMLID_329_" d="M144.056,102.45c-1.744.265-3.129.335-4.347.533-.931.151-1.214,1.747-1.275,2.778a76.259,76.259,0,0,0,.57,9.788l-.468,5.732c1.564,1.673,9.057,2.4,13.053-.047,0,0,.107-11.4,0-13.327-.189-3.384-2.145-5.547-3.392-5.643A12.649,12.649,0,0,0,144.056,102.45Z" transform="translate(-138.402 -102.185)" fill="#37474f"/>
            <path id="Path_50835" data-name="Path 50835" d="M180.463,134.162q.263-.035.523-.079c.054-2.259.111-6.7.051-8.843-.1-3.643-.575-7.513-1.12-8.708a42.45,42.45,0,0,1,.689,8.391C180.579,127.844,180.5,132.052,180.463,134.162Z" transform="translate(-171.688 -113.689)" fill="#263238"/>
          </g>
          <g id="Group_55316" data-name="Group 55316" transform="translate(0 13.687)">
            <path id="Path_50836" data-name="Path 50836" d="M100.139,117.167c4.16-7.934,5.183-9.654,6.4-10.528a6.272,6.272,0,0,1,2.323-.615c.69.743,1.173,3.461-.308,5.881,0,0-3.5,4.762-4.453,6.341a39.277,39.277,0,0,0,3.412,5.371,1.267,1.267,0,0,0,.805.444,6.166,6.166,0,0,1,1.86.587c.534.2.9.14.9.285a.77.77,0,0,1-.707.653,3.415,3.415,0,0,1-.952-.034,5.9,5.9,0,0,0,1.522,1c1.329.629,1.736,1.553-.223,2.144-.784.237-2.216.191-4.154-1.684-.656-.634-1.887-1.95-2.534-2.695-1.7-1.953-3.1-3.684-4-4.862A2.041,2.041,0,0,1,100.139,117.167Z" transform="translate(-99.556 -105.95)" fill="#ffa8a7"/>
            <path id="Path_50837" data-name="Path 50837" d="M119.443,183.472l1.127,1.739a3.969,3.969,0,0,0-2.484,1.891l-1.623-1.729a2.356,2.356,0,0,1,1.151-1.395A2.482,2.482,0,0,1,119.443,183.472Z" transform="translate(-112.985 -168.029)" fill="#37474f"/>
            <path id="Path_50838" data-name="Path 50838" d="M108.824,105.654a5.081,5.081,0,0,0-3.225.641c-.814.613-1.974,2.634-2.907,4.328s-3.282,5.862-3.62,6.827a1.9,1.9,0,0,0,.444,2.148c.555.707,2.876,3.4,2.876,3.4a4.826,4.826,0,0,1,2.98-1.9l-1.718-3.159,4.025-5.455a7.635,7.635,0,0,0,1.365-3.718C109.289,106.439,108.824,105.654,108.824,105.654Z" transform="translate(-98.913 -105.652)" fill="#455a64"/>
          </g>
          <g id="XMLID_295_" transform="translate(9.767)">
            <g id="XMLID_318_">
              <path id="Path_50839" data-name="Path 50839" d="M152.432,52.618a1.853,1.853,0,0,0-1.306.854,7.16,7.16,0,0,0,.212,3.788,15.226,15.226,0,0,0,1.028,3.1,1.259,1.259,0,0,0,.73.584l-.048-1.956-.071-1.363a5.607,5.607,0,0,0,.971-2.174,3.5,3.5,0,0,0-.142-1.776Z" transform="translate(-150.404 -49.442)" fill="#263238"/>
              <path id="XMLID_529_" d="M151.839,49.386l-1.348-.616a.79.79,0,0,1,1.02-.418A.76.76,0,0,1,151.839,49.386Z" transform="translate(-150.036 -45.97)" fill="#263238"/>
              <path id="XMLID_323_" d="M166.21,47.342a3.653,3.653,0,1,0,3.641-3.665A3.653,3.653,0,0,0,166.21,47.342Z" transform="translate(-162.639 -42.273)" fill="#263238"/>
              <path id="XMLID_322_" d="M150.817,56.948c-.329.285-.6-.453-.873-.74a.97.97,0,0,0-1.624.269,2.273,2.273,0,0,0,1.087,2.59,1.047,1.047,0,0,0,1.43-.537l.105,4.115c.949,1.439,3.171.889,3.5,1.744.193-.759,1.195-.761.479-1.583l-.008-1.341a7.7,7.7,0,0,0,1.647.079c.9-.142,1.367-.819,1.636-1.792a16.624,16.624,0,0,0,.005-7.224c-1.006-.778-4.492-.649-6.6.689C151.75,55.907,151.146,56.663,150.817,56.948Z" transform="translate(-148.194 -48.985)" fill="#ffa8a7"/>
              <path id="Path_50840" data-name="Path 50840" d="M165.589,37.985a.165.165,0,0,0-.131-.1.214.214,0,0,0-.123.054,5.779,5.779,0,0,1-.8.538,2.883,2.883,0,0,0,.014-1.091c-.04-.221-.1-.734-.376-.789-.163-.033-.305.1-.427.217-1.1,1.027-2.531.552-3.853.594a3.3,3.3,0,0,0-2.94,1.561,1.021,1.021,0,0,0,.184,1.351,3.112,3.112,0,0,0,1.348.5c2.2.384,5.361,1.29,6.99-.764a1.623,1.623,0,0,0,.341-1.078A2.226,2.226,0,0,0,165.6,38Z" transform="translate(-155.084 -36.591)" fill="#263238"/>
              <path id="XMLID_321_" d="M167.187,92.587a15.383,15.383,0,0,1-2.708-.768,2.311,2.311,0,0,1-.972-.955,3.161,3.161,0,0,0,.554,1.129c.515.654,3.128,1.128,3.128,1.128Z" transform="translate(-160.472 -80.108)" fill="#f28f8f"/>
            </g>
            <g id="XMLID_296_" transform="translate(4.848 5.581)">
              <path id="XMLID_317_" d="M176.2,72.649a.4.4,0,1,1-.4-.417A.408.408,0,0,1,176.2,72.649Z" transform="translate(-174.856 -70.749)" fill="#263238"/>
              <path id="XMLID_316_" d="M173.572,65.607l-.858.477a.515.515,0,0,1,.2-.685A.479.479,0,0,1,173.572,65.607Z" transform="translate(-172.656 -65.223)" fill="#263238"/>
              <path id="XMLID_312_" d="M180.288,87.229l1.283.477a.672.672,0,0,1-.869.427A.717.717,0,0,1,180.288,87.229Z" transform="translate(-178.744 -82.774)" fill="#f28f8f"/>
              <path id="XMLID_311_" d="M194.14,65.555l-.786-.6a.475.475,0,0,1,.681-.107A.519.519,0,0,1,194.14,65.555Z" transform="translate(-189.252 -64.748)" fill="#263238"/>
              <path id="XMLID_303_" d="M192.867,72.017a.4.4,0,1,1-.4-.417A.409.409,0,0,1,192.867,72.017Z" transform="translate(-188.217 -70.242)" fill="#263238"/>
              <path id="XMLID_299_" d="M185.977,71.816l.14,2.416,1.26-.434Z" transform="translate(-183.337 -70.415)" fill="#f28f8f"/>
            </g>
          </g>
          <g id="Group_55327" data-name="Group 55327" transform="translate(11.91 13.542)">
            <path id="Path_50841" data-name="Path 50841" d="M193.011,112.071a10.793,10.793,0,0,1-5.712-1.336c-2.057-1.317-3.707-4.639-4.337-5.813,0,0-.525-.032-.395.159s1.831,4.259,4.551,5.981a11.045,11.045,0,0,0,5.827,1.2Z" transform="translate(-177.881 -104.92)" fill="#27debf"/>
            <path id="Path_50842" data-name="Path 50842" d="M193.011,112.071a10.793,10.793,0,0,1-5.712-1.336c-2.057-1.317-3.707-4.639-4.337-5.813,0,0-.525-.032-.395.159s1.831,4.259,4.551,5.981a11.045,11.045,0,0,0,5.827,1.2Z" transform="translate(-177.881 -104.92)" fill="#329df9"/>
            <path id="Path_50843" data-name="Path 50843" d="M174.138,112.545s-5.163.844-8.385-.279a10.1,10.1,0,0,1-6.141-6.756l-.6.1s1.5,5.047,5.89,6.785c4.059,1.606,8.923.36,9.24.329Z" transform="translate(-159.008 -105.393)" fill="#27debf"/>
            <path id="Path_50844" data-name="Path 50844" d="M174.138,112.545s-5.163.844-8.385-.279a10.1,10.1,0,0,1-6.141-6.756l-.6.1s1.5,5.047,5.89,6.785c4.059,1.606,8.923.36,9.24.329Z" transform="translate(-159.008 -105.393)" fill="#329df9"/>
            <g id="Group_55326" data-name="Group 55326" transform="translate(14.922 5.904)">
              <path id="Path_50845" data-name="Path 50845" d="M235.04,140.267s-.38.058-.533.1c-.211.053-.3.3-.081.28.19-.02.35-.051.545-.082S235.335,140.22,235.04,140.267Z" transform="translate(-234.3 -139.161)" fill="#329df9"/>
              <path id="Path_50846" data-name="Path 50846" d="M237.574,140.611s.457.054.459.051.123-.155.123-.155l-.389-.021Z" transform="translate(-236.925 -139.341)" fill="#27debf"/>
              <path id="Path_50847" data-name="Path 50847" d="M237.574,140.611s.457.054.459.051.123-.155.123-.155l-.389-.021Z" transform="translate(-236.925 -139.341)"/>
              <g id="Group_55317" data-name="Group 55317" transform="translate(0.927 1.293)">
                <path id="Path_50848" data-name="Path 50848" d="M238.976,141.243l1.068.265.262-.151A3.989,3.989,0,0,0,238.976,141.243Z" transform="translate(-238.976 -141.228)" fill="#263238"/>
                <path id="Path_50849" data-name="Path 50849" d="M238.976,141.3v.063l.995.245.074-.042Z" transform="translate(-238.976 -141.29)" fill="#37474f"/>
              </g>
              <g id="Group_55324" data-name="Group 55324" transform="translate(0.85)">
                <g id="Group_55318" data-name="Group 55318">
                  <path id="Path_50850" data-name="Path 50850" d="M243.011,135.038c0-.01-.006-.02-.008-.028s0-.006,0-.01a.127.127,0,0,0-.02-.026.069.069,0,0,0-.026-.022l-.01-.006c-.067-.04-.355-.206-.393-.226a.147.147,0,0,0-.151.016l-3.6,2.076a.477.477,0,0,0-.214.373v7.875a.148.148,0,0,0,.063.139l.4.232s.006,0,.01,0a.071.071,0,0,0,.022.008.1.1,0,0,0,.048,0,.192.192,0,0,0,.073-.026l3.6-2.078a.47.47,0,0,0,.214-.371v-7.877A.221.221,0,0,0,243.011,135.038Zm-1.882,1.442-.807.468a.541.541,0,0,1,.228-.294l.807-.466A.542.542,0,0,1,241.129,136.48Z" transform="translate(-238.587 -134.707)" fill="#27debf"/>
                  <path id="Path_50851" data-name="Path 50851" d="M243.011,135.038c0-.01-.006-.02-.008-.028s0-.006,0-.01a.127.127,0,0,0-.02-.026.069.069,0,0,0-.026-.022l-.01-.006c-.067-.04-.355-.206-.393-.226a.147.147,0,0,0-.151.016l-3.6,2.076a.477.477,0,0,0-.214.373v7.875a.148.148,0,0,0,.063.139l.4.232s.006,0,.01,0a.071.071,0,0,0,.022.008.1.1,0,0,0,.048,0,.192.192,0,0,0,.073-.026l3.6-2.078a.47.47,0,0,0,.214-.371v-7.877A.221.221,0,0,0,243.011,135.038Zm-1.882,1.442-.807.468a.541.541,0,0,1,.228-.294l.807-.466A.542.542,0,0,1,241.129,136.48Z" transform="translate(-238.587 -134.707)" fill="#157de6"/>
                  <path id="Path_50852" data-name="Path 50852" d="M239.061,154.607s-.006,0-.01,0l-.4-.232a.147.147,0,0,1-.063-.139v-7.875a.431.431,0,0,1,.063-.212l.4.232a.431.431,0,0,0-.063.212v7.875A.145.145,0,0,0,239.061,154.607Z" transform="translate(-238.587 -143.877)" fill="#27debf"/>
                  <path id="Path_50853" data-name="Path 50853" d="M239.061,154.607s-.006,0-.01,0l-.4-.232a.147.147,0,0,1-.063-.139v-7.875a.431.431,0,0,1,.063-.212l.4.232a.431.431,0,0,0-.063.212v7.875A.145.145,0,0,0,239.061,154.607Z" transform="translate(-238.587 -143.877)" fill="#157de6"/>
                  <path id="Path_50854" data-name="Path 50854" d="M244.641,135.976c0-.01-.006-.02-.008-.028s0-.006,0-.01a.127.127,0,0,0-.02-.026.069.069,0,0,0-.026-.022l-.01-.006a.158.158,0,0,0-.141.022l-1.674.966-.912.528-1.013.583a.482.482,0,0,0-.214.373v7.875a.145.145,0,0,0,.071.143.071.071,0,0,0,.022.008.1.1,0,0,0,.048,0,.192.192,0,0,0,.073-.026l3.6-2.078a.47.47,0,0,0,.214-.371V136.03A.232.232,0,0,0,244.641,135.976Zm-2.461,1.616.807-.466a.541.541,0,0,1-.228.292l-.807.468A.542.542,0,0,1,242.18,137.592Z" transform="translate(-240.216 -135.644)" fill="url(#linear-gradient-2)"/>
                  <path id="Path_50855" data-name="Path 50855" d="M248.64,141.85a.542.542,0,0,1-.252.418l-.914.528c-.139.079-.252.024-.252-.127a.357.357,0,0,1,.024-.125l.807-.468a.542.542,0,0,0,.228-.292l.107-.061C248.527,141.642,248.64,141.7,248.64,141.85Z" transform="translate(-245.511 -140.303)" opacity="0.2"/>
                </g>
                <g id="XMLID_264_" transform="translate(1.053 1.936)">
                  <path id="XMLID_393_" d="M243.982,145.965l2.561-1.479c.046-.027.083,0,.083.048v3.26a.184.184,0,0,1-.083.144l-2.561,1.476c-.046.026-.083,0-.083-.048v-3.257A.184.184,0,0,1,243.982,145.965Z" transform="translate(-243.899 -144.475)" fill="#fafafa"/>
                  <g id="XMLID_280_" transform="translate(0.106 0.74)">
                    <path id="Path_50856" data-name="Path 50856" d="M253.264,158.652l-.4.232-.048.028c-.16-.223-.3-.429-.3-.429a3.554,3.554,0,0,1-.111-.37h0a2.223,2.223,0,0,1-.053-.29h0a.541.541,0,0,1,.314,0,.529.529,0,0,1,.239.227C252.967,158.16,253.139,158.444,253.264,158.652Z" transform="translate(-250.78 -155.898)" fill="#455a64"/>
                    <g id="Group_55319" data-name="Group 55319" transform="translate(0.523 1.924)">
                      <path id="Path_50857" data-name="Path 50857" d="M248.634,158.977l-.048.028-.465.268-.071.041-.931.537-.038.022,0-.161.047-.743c0-.143.074-.714.074-.714l.211-.084.128-.051.042-.016.017-.007.353-.141c.023-.008.045-.015.067-.021h0l.022-.005a.478.478,0,0,1,.084-.013h0c.262-.02.4.176.466.491A5.232,5.232,0,0,1,248.634,158.977Z" transform="translate(-247.075 -157.915)" fill="#37474f"/>
                      <path id="Path_50858" data-name="Path 50858" d="M251.769,160.952l-.071.041a2.892,2.892,0,0,0-.072-.984A2.258,2.258,0,0,1,251.769,160.952Z" transform="translate(-250.724 -159.594)" fill="#263238"/>
                    </g>
                    <path id="Path_50859" data-name="Path 50859" d="M245.164,160.541s-.088.342-.163.687l-.038.022-.527.3a5.208,5.208,0,0,1,.307-1.7.543.543,0,0,1,.337-.22A1.181,1.181,0,0,1,245.164,160.541Z" transform="translate(-244.436 -157.368)" fill="#455a64"/>
                    <g id="XMLID_289_" transform="translate(0.638)">
                      <g id="XMLID_354_">
                        <path id="Path_50860" data-name="Path 50860" d="M248.19,151.328a.292.292,0,0,0-.165.153,1.174,1.174,0,0,0,.027.546,2.11,2.11,0,0,0,.13.428.128.128,0,0,0,.092.069l-.006-.284-.009-.2a1.048,1.048,0,0,0,.122-.338.549.549,0,0,0-.018-.255Z" transform="translate(-247.934 -150.71)" fill="#263238"/>
                        <path id="XMLID_388_" d="M248.114,150.934l-.17-.06a.113.113,0,0,1,.128-.083A.105.105,0,0,1,248.114,150.934Z" transform="translate(-247.887 -150.276)" fill="#263238"/>
                        <path id="XMLID_386_" d="M249.925,150.034a.407.407,0,0,0,.462.448.621.621,0,0,0,.459-.614.407.407,0,0,0-.462-.448A.621.621,0,0,0,249.925,150.034Z" transform="translate(-249.475 -149.174)" fill="#263238"/>
                        <path id="XMLID_381_" d="M247.986,151.373c-.041.049-.075-.053-.11-.088s-.148-.073-.2.075a.3.3,0,0,0,.137.353c.124.045.18-.11.18-.11l.013.64c.121.19.392,0,.441.134.008-.105.149-.14.06-.243v-.195a.851.851,0,0,0,.208-.025.367.367,0,0,0,.206-.3,2.8,2.8,0,0,0,0-1.051c-.127-.091-.566.005-.832.247C248.1,151.2,248.027,151.324,247.986,151.373Z" transform="translate(-247.656 -150.072)" fill="#ffa8a7"/>
                        <path id="Path_50861" data-name="Path 50861" d="M249.848,148.379c0-.007-.009-.013-.016-.012a.03.03,0,0,0-.015.01.963.963,0,0,1-.1.1.487.487,0,0,0,0-.159c0-.031-.013-.1-.047-.106s-.038.022-.054.041c-.138.174-.319.137-.485.172a.506.506,0,0,0-.37.292c-.029.077-.034.153.023.192a.308.308,0,0,0,.17.043c.277.007.675.069.881-.267a.3.3,0,0,0,.043-.164.331.331,0,0,0-.028-.138Z" transform="translate(-248.525 -148.209)" fill="#263238"/>
                        <path id="XMLID_375_" d="M250.048,156.948a1.553,1.553,0,0,1-.341-.052.246.246,0,0,1-.122-.117.415.415,0,0,0,.07.152c.065.084.394.095.394.095Z" transform="translate(-249.202 -155.08)" fill="#f28f8f"/>
                      </g>
                      <g id="XMLID_294_" transform="translate(0.611 0.793)">
                        <path id="XMLID_353_" d="M251.184,153.808a.07.07,0,0,1-.051.07c-.028,0-.051-.018-.051-.052a.07.07,0,0,1,.051-.07C251.161,153.751,251.184,153.775,251.184,153.808Z" transform="translate(-251.015 -153.449)" fill="#263238"/>
                        <path id="XMLID_352_" d="M250.853,152.834l-.108.088a.09.09,0,0,1,.025-.1A.051.051,0,0,1,250.853,152.834Z" transform="translate(-250.738 -152.686)" fill="#263238"/>
                        <path id="XMLID_343_" d="M251.717,155.871l.141.036a.087.087,0,0,1-.1.071A.082.082,0,0,1,251.717,155.871Z" transform="translate(-251.52 -155.145)" fill="#f28f8f"/>
                        <path id="XMLID_342_" d="M253.363,152.318l-.1-.07a.061.061,0,0,1,.086-.031A.079.079,0,0,1,253.363,152.318Z" transform="translate(-252.763 -152.209)" fill="#263238"/>
                        <path id="XMLID_337_" d="M253.2,153.36a.069.069,0,0,1-.051.07c-.028,0-.051-.018-.051-.052a.07.07,0,0,1,.051-.07C253.179,153.3,253.2,153.327,253.2,153.36Z" transform="translate(-252.633 -153.09)" fill="#263238"/>
                        <path id="XMLID_331_" d="M252.415,153.508l.018.348.159-.091Z" transform="translate(-252.083 -153.251)" fill="#f28f8f"/>
                      </g>
                    </g>
                    <g id="Group_55320" data-name="Group 55320" transform="translate(0.853 1.867)">
                      <path id="Path_50862" data-name="Path 50862" d="M248.864,157.906c-.033,0-.045.017-.071.082s-.056.143-.056.143a.37.37,0,0,0,.108.244.779.779,0,0,0,.345.141s.02-.131.035-.187c.033-.121.083-.04.083-.04a.117.117,0,0,0-.027-.062,1.212,1.212,0,0,1-.266-.06.356.356,0,0,1-.151-.186Z" transform="translate(-248.738 -157.851)" fill="#455a64"/>
                      <path id="Path_50863" data-name="Path 50863" d="M251.624,158.067a.168.168,0,0,1,.029-.107.309.309,0,0,0,.031-.159c0-.053,0-.171,0-.171.037,0,.064,0,.087.061a.681.681,0,0,1,.046.324.371.371,0,0,1-.068.19s-.028-.106-.046-.154S251.651,158,251.624,158.067Z" transform="translate(-251.052 -157.63)" fill="#455a64"/>
                    </g>
                  </g>
                </g>
                <g id="Group_55323" data-name="Group 55323" transform="translate(1.114 6.039)">
                  <path id="Path_50864" data-name="Path 50864" d="M246.073,166.165l1.688-.975c.061-.035.111-.007.111.064v.044a.246.246,0,0,1-.111.192l-1.688.975c-.061.035-.111.007-.111-.064v-.044A.245.245,0,0,1,246.073,166.165Z" transform="translate(-245.615 -165.175)" fill="#455a64"/>
                  <g id="Group_55321" data-name="Group 55321" transform="translate(0 0.673)">
                    <path id="Path_50865" data-name="Path 50865" d="M244.256,174.483l.6-.349c.026-.015.046,0,.046.023a.1.1,0,0,1-.046.077l-.6.349c-.026.015-.046,0-.046-.023A.1.1,0,0,1,244.256,174.483Z" transform="translate(-244.21 -173.027)" fill="#455a64"/>
                    <path id="Path_50866" data-name="Path 50866" d="M249.512,169.427l1.47-.849c.026-.015.046,0,.046.023a.1.1,0,0,1-.046.077l-1.47.849c-.026.015-.046,0-.046-.023A.1.1,0,0,1,249.512,169.427Z" transform="translate(-248.424 -168.571)" fill="#455a64"/>
                    <path id="Path_50867" data-name="Path 50867" d="M244.256,175.5l.6-.349c.026-.015.046,0,.046.023a.1.1,0,0,1-.046.077l-.6.349c-.026.015-.046,0-.046-.023A.1.1,0,0,1,244.256,175.5Z" transform="translate(-244.21 -173.838)" fill="#455a64"/>
                    <path id="Path_50868" data-name="Path 50868" d="M249.512,170.438l1.47-.849c.026-.015.046,0,.046.023a.1.1,0,0,1-.046.077l-1.47.849c-.026.015-.046,0-.046-.023A.1.1,0,0,1,249.512,170.438Z" transform="translate(-248.424 -169.382)" fill="#455a64"/>
                    <path id="Path_50869" data-name="Path 50869" d="M244.256,176.507l.6-.349c.026-.015.046,0,.046.023a.1.1,0,0,1-.046.077l-.6.349c-.026.015-.046,0-.046-.023A.1.1,0,0,1,244.256,176.507Z" transform="translate(-244.21 -174.65)" fill="#455a64"/>
                    <path id="Path_50870" data-name="Path 50870" d="M249.512,171.45l1.47-.849c.026-.015.046,0,.046.023a.1.1,0,0,1-.046.077l-1.47.849c-.026.015-.046,0-.046-.023A.1.1,0,0,1,249.512,171.45Z" transform="translate(-248.424 -170.193)" fill="#455a64"/>
                    <path id="Path_50871" data-name="Path 50871" d="M244.256,177.518l.6-.349c.026-.015.046,0,.046.023a.1.1,0,0,1-.046.077l-.6.349c-.026.015-.046,0-.046-.023A.1.1,0,0,1,244.256,177.518Z" transform="translate(-244.21 -175.46)" fill="#455a64"/>
                    <path id="Path_50872" data-name="Path 50872" d="M249.512,172.462l1.47-.849c.026-.015.046,0,.046.023a.1.1,0,0,1-.046.077l-1.47.849c-.026.015-.046,0-.046-.023A.1.1,0,0,1,249.512,172.462Z" transform="translate(-248.424 -171.005)" fill="#455a64"/>
                  </g>
                  <g id="Group_55322" data-name="Group 55322" transform="translate(0.26 1.885)">
                    <path id="Path_50873" data-name="Path 50873" d="M245.523,180.334v.628l.181-.1v-.628Z" transform="translate(-245.523 -179.131)" fill="#455a64"/>
                    <path id="Path_50874" data-name="Path 50874" d="M248.266,178.75v.628l.181-.1v-.628Z" transform="translate(-247.722 -177.861)" fill="#455a64"/>
                    <path id="Path_50875" data-name="Path 50875" d="M251.924,176.638v.628l.181-.1v-.628Z" transform="translate(-250.655 -176.168)" fill="#455a64"/>
                    <path id="Path_50876" data-name="Path 50876" d="M255.122,174.792v.628l.181-.1v-.628Z" transform="translate(-253.22 -174.687)" fill="#455a64"/>
                    <path id="Path_50877" data-name="Path 50877" d="M246.894,179.753v.628l.091-.052V179.7Z" transform="translate(-246.622 -178.707)" fill="#455a64"/>
                    <path id="Path_50878" data-name="Path 50878" d="M253.294,176.058v.628l.091-.052v-.628Z" transform="translate(-251.754 -175.745)" fill="#455a64"/>
                    <path id="Path_50879" data-name="Path 50879" d="M250.551,177.642v.628l.091-.052v-.628Z" transform="translate(-249.554 -177.015)" fill="#455a64"/>
                    <path id="Path_50880" data-name="Path 50880" d="M247.808,179.331v.627l.045-.026V179.3Z" transform="translate(-247.355 -178.39)" fill="#455a64"/>
                    <path id="Path_50881" data-name="Path 50881" d="M251.32,177.3v.628l.045-.026v-.628Z" transform="translate(-250.171 -176.764)" fill="#455a64"/>
                    <path id="Path_50882" data-name="Path 50882" d="M249.866,178.144v.628l.045-.026v-.628Z" transform="translate(-249.005 -177.438)" fill="#455a64"/>
                    <path id="Path_50883" data-name="Path 50883" d="M254.437,175.505v.627l.045-.026v-.628Z" transform="translate(-252.67 -175.322)" fill="#455a64"/>
                    <path id="Path_50884" data-name="Path 50884" d="M249.408,178.405v.628l.045-.026v-.628Z" transform="translate(-248.638 -177.647)" fill="#455a64"/>
                    <path id="Path_50885" data-name="Path 50885" d="M253.98,175.77v.628l.045-.026v-.628Z" transform="translate(-252.304 -175.535)" fill="#455a64"/>
                  </g>
                  <path id="Path_50886" data-name="Path 50886" d="M246.883,168.8l1.47-.849c.026-.015.046,0,.046.023a.1.1,0,0,1-.046.077l-1.47.849c-.026.015-.046,0-.046-.023A.1.1,0,0,1,246.883,168.8Z" transform="translate(-246.316 -167.397)" opacity="0.3"/>
                </g>
              </g>
              <path id="Path_50887" data-name="Path 50887" d="M251.015,162.3h0c-.007-.294.142-.5,0-.856s-.744-.989-1.03-1.529-.495-.674-.7-.427c-.173.211.249,1.258.376,1.558a.61.61,0,0,0-.621-.056c-.4.254.219.835.219.835s-.475.1-.5.429.59.936.59.936l-2.429,1.4a7.606,7.606,0,0,0,1.269.237,4.486,4.486,0,0,0,.651.008,2.047,2.047,0,0,0,1.514-.647,3.918,3.918,0,0,0,.727-1.144A.832.832,0,0,0,251.015,162.3Z" transform="translate(-244.42 -154.482)" fill="#ffa8a7"/>
              <path id="Path_50888" data-name="Path 50888" d="M249.621,178.915l-.269-.263-2.429,1.4a7.587,7.587,0,0,0,1.27.237Z" transform="translate(-244.421 -169.942)" fill="#f28f8f"/>
              <g id="Group_55325" data-name="Group 55325" transform="translate(0.926 0.925)">
                <path id="Path_50889" data-name="Path 50889" d="M240.994,140.385c.082-.047.057-.319-.08-.4a5.617,5.617,0,0,0-1.941-.288l.559-.323a5.617,5.617,0,0,1,1.941.288c.137.079.163.351.08.4Z" transform="translate(-238.973 -139.376)" fill="#455a64"/>
                <path id="Path_50890" data-name="Path 50890" d="M241,141.691c-.022.012-.047.01-.082-.013l.052-.03a.028.028,0,0,0,0-.009.18.18,0,0,0,.012-.073v-.022a.258.258,0,0,0-.1-.2,5.588,5.588,0,0,0-1.88-.279h-.03V141a5.631,5.631,0,0,1,1.939.287C241.054,141.372,241.08,141.645,241,141.691Z" transform="translate(-238.975 -140.682)" fill="#37474f"/>
                <path id="Path_50891" data-name="Path 50891" d="M241.353,139.759l-.04.022-.214.115a.233.233,0,0,1-.111.024l-.085,0h-.022c-.034,0-.036-.018-.008-.034l.222-.129a.261.261,0,0,1,.109-.028l.141,0C241.379,139.731,241.381,139.745,241.353,139.759Z" transform="translate(-240.481 -139.656)" opacity="0.35"/>
                <path id="Path_50892" data-name="Path 50892" d="M241.511,139.988l-.214.115a.233.233,0,0,1-.111.024l-.085,0,.192-.111a.234.234,0,0,1,.109-.028Z" transform="translate(-240.679 -139.864)" opacity="0.35"/>
              </g>
              <path id="Path_50893" data-name="Path 50893" d="M238.3,139.883l.024-.014c-.007-.033-.106-.055-.3-.028a1.228,1.228,0,0,0-.442.14.615.615,0,0,1,.241-.212c.18-.1.65-.085.68,0,0,.01.011.029-.008.04s-.068.046-.1.064A.219.219,0,0,1,238.3,139.883Z" transform="translate(-236.925 -138.711)" fill="#27debf"/>
              <path id="Path_50894" data-name="Path 50894" d="M238.3,139.883l.024-.014c-.007-.033-.106-.055-.3-.028a1.228,1.228,0,0,0-.442.14.615.615,0,0,1,.241-.212c.18-.1.65-.085.68,0,0,.01.011.029-.008.04s-.068.046-.1.064A.219.219,0,0,1,238.3,139.883Z" transform="translate(-236.925 -138.711)" fill="#157de6"/>
            </g>
          </g>
          <g id="Group_55328" data-name="Group 55328" transform="translate(11.47 12.15)">
            <path id="Path_50895" data-name="Path 50895" d="M157.794,97.9c-.254.019-.359.051-.566.465-.236.472-.44.9-.44.9a2.842,2.842,0,0,0,.861,1.83,8.153,8.153,0,0,0,2.742,1.45s.157-.873.278-1.233c.264-.785.66-.162.66-.162a.908.908,0,0,0-.216-.465A12.6,12.6,0,0,1,159,99.9a3.206,3.206,0,0,1-1.194-1.5Z" transform="translate(-156.788 -97.895)" fill="#455a64"/>
            <path id="Path_50896" data-name="Path 50896" d="M179.7,102.481a.89.89,0,0,1,.229-.693,1.688,1.688,0,0,0,.244-1.051c0-.364,0-1.18,0-1.18a.714.714,0,0,1,.693.544,4.488,4.488,0,0,1,.367,2.3,1.949,1.949,0,0,1-.542,1.211s-.225-.768-.365-1.123S179.912,102.036,179.7,102.481Z" transform="translate(-175.16 -99.228)" fill="#455a64"/>
          </g>
        </g>
      </g>
      <g id="ID_Card" transform="translate(81.874 38.168)">
        <g id="ID" transform="translate(0 0)">
          <g id="Group_55329" data-name="Group 55329" transform="translate(4.367)">
            <path id="Path_50897" data-name="Path 50897" d="M312.18,46.018c-.009-.044-.027-.088-.035-.123-.009-.018-.018-.026-.018-.044a.569.569,0,0,0-.088-.115.309.309,0,0,0-.115-.1c-.018-.009-.027-.018-.044-.027-.3-.176-1.577-.916-1.745-1a.655.655,0,0,0-.67.07L293.473,53.9a2.116,2.116,0,0,0-.952,1.657V90.553a.655.655,0,0,0,.282.617l1.78,1.031c.018.009.027.018.044.018a.315.315,0,0,0,.1.035.429.429,0,0,0,.211,0,.854.854,0,0,0,.326-.115L311.255,82.9a2.087,2.087,0,0,0,.952-1.648v-35A.983.983,0,0,0,312.18,46.018Z" transform="translate(-292.521 -44.545)" fill="url(#linear-gradient-2)"/>
            <path id="Path_50898" data-name="Path 50898" d="M312.18,46.018c-.009-.044-.027-.088-.035-.123-.009-.018-.018-.026-.018-.044a.569.569,0,0,0-.088-.115.309.309,0,0,0-.115-.1c-.018-.009-.027-.018-.044-.027-.3-.176-1.577-.916-1.745-1a.655.655,0,0,0-.67.07L293.473,53.9a2.116,2.116,0,0,0-.952,1.657V90.553a.655.655,0,0,0,.282.617l1.78,1.031c.018.009.027.018.044.018a.315.315,0,0,0,.1.035.429.429,0,0,0,.211,0,.854.854,0,0,0,.326-.115L311.255,82.9a2.087,2.087,0,0,0,.952-1.648v-35A.983.983,0,0,0,312.18,46.018Z" transform="translate(-292.521 -44.545)" fill="url(#linear-gradient-4)"/>
            <path id="Path_50899" data-name="Path 50899" d="M294.626,132.972c-.018,0-.027-.009-.044-.018l-1.78-1.031a.655.655,0,0,1-.282-.617V96.315a1.914,1.914,0,0,1,.282-.943l1.789,1.031a1.914,1.914,0,0,0-.282.943v34.991A.643.643,0,0,0,294.626,132.972Z" transform="translate(-292.52 -85.299)" fill="url(#linear-gradient-2)"/>
            <path id="Path_50900" data-name="Path 50900" d="M294.626,132.972c-.018,0-.027-.009-.044-.018l-1.78-1.031a.655.655,0,0,1-.282-.617V96.315a1.914,1.914,0,0,1,.282-.943l1.789,1.031a1.914,1.914,0,0,0-.282.943v34.991A.643.643,0,0,0,294.626,132.972Z" transform="translate(-292.52 -85.299)" fill="url(#linear-gradient-4)"/>
            <path id="Path_50901" data-name="Path 50901" d="M319.416,50.185c-.009-.044-.027-.088-.035-.123-.009-.018-.018-.026-.018-.044a.572.572,0,0,0-.088-.115.31.31,0,0,0-.115-.1c-.018-.009-.027-.018-.044-.027a.7.7,0,0,0-.626.1l-7.437,4.292L307,56.511,302.5,59.1a2.14,2.14,0,0,0-.952,1.657V95.75a.643.643,0,0,0,.317.634.314.314,0,0,0,.1.035.429.429,0,0,0,.212,0,.854.854,0,0,0,.326-.115l15.993-9.235a2.086,2.086,0,0,0,.952-1.648v-35A.975.975,0,0,0,319.416,50.185Z" transform="translate(-299.757 -48.712)" fill="url(#linear-gradient-2)"/>
          </g>
          <g id="XMLID_263_" transform="translate(8.641 5.457)">
            <path id="XMLID_390_" d="M314.478,79.143l12.14-7.009c.217-.125.394-.024.394.227V87.814a.869.869,0,0,1-.394.682l-12.139,7c-.218.125-.394.023-.394-.228V79.825A.869.869,0,0,1,314.478,79.143Z" transform="translate(-314.085 -72.081)" fill="#fafafa"/>
            <g id="XMLID_288_" transform="translate(0.505 3.507)">
              <path id="Path_50902" data-name="Path 50902" d="M358.469,139.276l-1.908,1.1-.229.133c-.76-1.056-1.429-2.032-1.429-2.032a16.935,16.935,0,0,1-.525-1.752v0a10.511,10.511,0,0,1-.252-1.374l.007,0a2.557,2.557,0,0,1,1.489,0,2.511,2.511,0,0,1,1.134,1.074C357.063,136.944,357.874,138.289,358.469,139.276Z" transform="translate(-346.695 -126.223)" fill="#455a64"/>
              <g id="Group_55330" data-name="Group 55330" transform="translate(2.479 9.118)">
                <path id="Path_50903" data-name="Path 50903" d="M336.526,140.816l-.229.133-2.206,1.271-.337.195-4.414,2.545-.181.1-.021-.76.222-3.523c0-.68.353-3.386.353-3.386l1-.4.6-.241.2-.078.08-.032,1.672-.669c.11-.039.215-.071.319-.1h0a.961.961,0,0,1,.1-.025,2.391,2.391,0,0,1,.4-.064h.009c1.241-.1,1.9.836,2.211,2.327A24.607,24.607,0,0,1,336.526,140.816Z" transform="translate(-329.138 -135.781)" fill="#37474f"/>
                <path id="Path_50904" data-name="Path 50904" d="M351.383,150.183l-.337.195a13.7,13.7,0,0,0-.341-4.666A10.689,10.689,0,0,1,351.383,150.183Z" transform="translate(-346.431 -143.743)" fill="#263238"/>
              </g>
              <path id="Path_50905" data-name="Path 50905" d="M320.084,148.228s-.417,1.62-.772,3.257l-.181.1-2.5,1.441c.449-4.478.747-6.868,1.454-8.066a2.569,2.569,0,0,1,1.6-1.045C320.251,144.341,320.485,146.354,320.084,148.228Z" transform="translate(-316.632 -133.188)" fill="#455a64"/>
              <g id="XMLID_530_" transform="translate(3.024)">
                <g id="XMLID_540_">
                  <path id="Path_50906" data-name="Path 50906" d="M334.418,104.562a1.385,1.385,0,0,0-.78.726,5.572,5.572,0,0,0,.126,2.59,10.045,10.045,0,0,0,.614,2.028.607.607,0,0,0,.436.326l-.029-1.344-.042-.932a4.966,4.966,0,0,0,.58-1.6,2.609,2.609,0,0,0-.085-1.21Z" transform="translate(-333.208 -101.631)" fill="#263238"/>
                  <path id="XMLID_544_" d="M334.065,102.692l-.8-.283a.536.536,0,0,1,.609-.4A.5.5,0,0,1,334.065,102.692Z" transform="translate(-332.988 -99.573)" fill="#263238"/>
                  <path id="XMLID_543_" d="M342.646,98.428a1.928,1.928,0,0,0,2.188,2.125,2.943,2.943,0,0,0,2.174-2.91,1.928,1.928,0,0,0-2.188-2.125A2.943,2.943,0,0,0,342.646,98.428Z" transform="translate(-340.514 -94.355)" fill="#263238"/>
                  <path id="XMLID_542_" d="M333.455,104.779c-.2.231-.356-.25-.521-.419s-.7-.344-.97.356a1.427,1.427,0,0,0,.649,1.671c.589.212.854-.521.854-.521l.063,3.031c.573.9,1.86.011,2.088.637.038-.5.708-.665.286-1.15l0-.924a4.038,4.038,0,0,0,.983-.119,1.74,1.74,0,0,0,.977-1.408,13.262,13.262,0,0,0,0-4.982c-.6-.43-2.683.025-3.942,1.17C334.012,103.962,333.651,104.547,333.455,104.779Z" transform="translate(-331.888 -98.61)" fill="#ffa8a7"/>
                  <path id="Path_50907" data-name="Path 50907" d="M342.276,90.584c-.016-.033-.043-.061-.078-.056a.149.149,0,0,0-.073.05,4.507,4.507,0,0,1-.477.455,2.3,2.3,0,0,0,.008-.754c-.024-.148-.061-.5-.225-.5-.1-.005-.182.1-.255.195-.655.824-1.511.647-2.3.815a2.4,2.4,0,0,0-1.756,1.386c-.136.363-.16.725.11.912a1.466,1.466,0,0,0,.805.2c1.316.032,3.2.325,4.174-1.263a1.41,1.41,0,0,0,.2-.779,1.568,1.568,0,0,0-.132-.654Z" transform="translate(-336.003 -89.775)" fill="#263238"/>
                  <path id="XMLID_541_" d="M343.23,131.2a7.351,7.351,0,0,1-1.617-.244,1.169,1.169,0,0,1-.581-.557,1.955,1.955,0,0,0,.331.72c.307.4,1.868.448,1.868.448Z" transform="translate(-339.22 -122.346)" fill="#f28f8f"/>
                </g>
                <g id="XMLID_531_" transform="translate(2.895 3.759)">
                  <path id="XMLID_539_" d="M348.613,116.318a.331.331,0,0,1-.239.33c-.133.023-.24-.086-.241-.245a.331.331,0,0,1,.239-.33C348.5,116.05,348.612,116.159,348.613,116.318Z" transform="translate(-347.808 -114.617)" fill="#263238"/>
                  <path id="XMLID_538_" d="M347.042,111.7l-.512.419a.429.429,0,0,1,.118-.493A.244.244,0,0,1,347.042,111.7Z" transform="translate(-346.495 -111)" fill="#263238"/>
                  <path id="XMLID_535_" d="M351.142,126.094l.67.169a.414.414,0,0,1-.454.338A.388.388,0,0,1,351.142,126.094Z" transform="translate(-350.204 -122.655)" fill="#f28f8f"/>
                  <path id="XMLID_534_" d="M358.938,109.258l-.469-.332a.287.287,0,0,1,.407-.145A.373.373,0,0,1,358.938,109.258Z" transform="translate(-356.096 -108.74)" fill="#263238"/>
                  <path id="XMLID_533_" d="M358.179,114.195a.33.33,0,0,1-.239.33c-.132.023-.24-.086-.241-.245a.331.331,0,0,1,.239-.33C358.071,113.926,358.178,114.036,358.179,114.195Z" transform="translate(-355.478 -112.914)" fill="#263238"/>
                  <path id="XMLID_532_" d="M354.45,114.9l.083,1.651.752-.432Z" transform="translate(-352.873 -113.677)" fill="#f28f8f"/>
                </g>
              </g>
              <g id="Group_55331" data-name="Group 55331" transform="translate(4.041 8.85)">
                <path id="Path_50908" data-name="Path 50908" d="M337.622,135.744c-.158.011-.212.08-.336.39-.141.354-.263.676-.263.676a1.755,1.755,0,0,0,.514,1.156,3.688,3.688,0,0,0,1.637.666s.094-.621.166-.884c.157-.573.394-.192.394-.192a.553.553,0,0,0-.129-.294,5.789,5.789,0,0,1-1.261-.285,1.69,1.69,0,0,1-.715-.884Z" transform="translate(-337.023 -135.483)" fill="#455a64"/>
                <path id="Path_50909" data-name="Path 50909" d="M350.7,136.5a.792.792,0,0,1,.137-.505,1.464,1.464,0,0,0,.146-.754c0-.251,0-.813,0-.813.175-.009.3,0,.413.291a3.22,3.22,0,0,1,.219,1.538,1.761,1.761,0,0,1-.324.9s-.134-.5-.218-.73S350.826,136.171,350.7,136.5Z" transform="translate(-347.989 -134.429)" fill="#455a64"/>
              </g>
            </g>
          </g>
          <path id="Path_50910" data-name="Path 50910" d="M276.643,126.547l-1.789-1.033-4.285,4.541a.3.3,0,0,0,.063.459c.051.031,1.639.944,1.79,1.034a.292.292,0,0,0,.18.039l4.045-.389Z" transform="translate(-270.487 -109.467)" fill="#27debf"/>
          <path id="Path_50911" data-name="Path 50911" d="M276.643,126.547l-1.789-1.033-4.285,4.541a.3.3,0,0,0,.063.459c.051.031,1.639.944,1.79,1.034a.292.292,0,0,0,.18.039l4.045-.389Z" transform="translate(-270.487 -109.467)" fill="#2868a8"/>
          <path id="Path_50912" data-name="Path 50912" d="M283.879,130.726l-4.285,4.541a.3.3,0,0,0,.064.46.292.292,0,0,0,.18.039l4.045-.389Z" transform="translate(-277.723 -113.646)" fill="#329df9"/>
          <g id="Group_55334" data-name="Group 55334" transform="translate(8.932 24.705)">
            <path id="Path_50913" data-name="Path 50913" d="M324.384,173.89l8-4.619c.291-.168.526-.032.526.3v.21a1.163,1.163,0,0,1-.526.912l-8,4.619c-.291.168-.526.032-.526-.3v-.21A1.164,1.164,0,0,1,324.384,173.89Z" transform="translate(-322.212 -169.199)" fill="#455a64"/>
            <g id="Group_55332" data-name="Group 55332" transform="translate(0 3.387)">
              <path id="Path_50914" data-name="Path 50914" d="M315.773,214.317l2.853-1.652c.121-.07.219-.021.219.111a.471.471,0,0,1-.219.365l-2.853,1.652c-.121.07-.219.021-.219-.111A.471.471,0,0,1,315.773,214.317Z" transform="translate(-315.554 -207.412)" fill="#455a64"/>
              <path id="Path_50915" data-name="Path 50915" d="M340.687,190.344l6.968-4.023c.121-.07.219-.02.219.111a.47.47,0,0,1-.219.364l-6.968,4.023c-.121.07-.219.02-.219-.111A.469.469,0,0,1,340.687,190.344Z" transform="translate(-335.53 -186.289)" fill="#455a64"/>
              <path id="Path_50916" data-name="Path 50916" d="M315.773,219.112l2.853-1.652c.121-.07.219-.021.219.111a.471.471,0,0,1-.219.364l-2.853,1.652c-.121.07-.219.021-.219-.111A.471.471,0,0,1,315.773,219.112Z" transform="translate(-315.554 -211.257)" fill="#455a64"/>
              <path id="Path_50917" data-name="Path 50917" d="M340.687,195.139l6.968-4.023c.121-.07.219-.02.219.111a.47.47,0,0,1-.219.364l-6.968,4.023c-.121.07-.219.02-.219-.111A.47.47,0,0,1,340.687,195.139Z" transform="translate(-335.53 -190.134)" fill="#455a64"/>
              <path id="Path_50918" data-name="Path 50918" d="M315.773,223.907l2.853-1.652c.121-.07.219-.021.219.111a.471.471,0,0,1-.219.365l-2.853,1.652c-.121.07-.219.021-.219-.111A.471.471,0,0,1,315.773,223.907Z" transform="translate(-315.554 -215.101)" fill="#455a64"/>
              <path id="Path_50919" data-name="Path 50919" d="M340.687,199.934l6.968-4.023c.121-.07.219-.02.219.111a.47.47,0,0,1-.219.364l-6.968,4.023c-.121.07-.219.02-.219-.111A.469.469,0,0,1,340.687,199.934Z" transform="translate(-335.53 -193.978)" fill="#455a64"/>
              <path id="Path_50920" data-name="Path 50920" d="M315.773,228.7l2.853-1.652c.121-.07.219-.021.219.111a.471.471,0,0,1-.219.364l-2.853,1.652c-.121.07-.219.021-.219-.111A.471.471,0,0,1,315.773,228.7Z" transform="translate(-315.554 -218.946)" fill="#455a64"/>
              <path id="Path_50921" data-name="Path 50921" d="M340.687,204.729l6.968-4.023c.121-.07.219-.02.219.111a.47.47,0,0,1-.219.364l-6.968,4.023c-.121.07-.219.02-.219-.111A.47.47,0,0,1,340.687,204.729Z" transform="translate(-335.53 -197.823)" fill="#455a64"/>
            </g>
            <g id="Group_55333" data-name="Group 55333" transform="translate(1.234 9.133)">
              <path id="Path_50922" data-name="Path 50922" d="M321.781,242.044v2.975l.859-.5v-2.975Z" transform="translate(-321.781 -236.342)" fill="#455a64"/>
              <path id="Path_50923" data-name="Path 50923" d="M334.78,234.539v2.975l.859-.5v-2.975Z" transform="translate(-332.204 -230.324)" fill="#455a64"/>
              <path id="Path_50924" data-name="Path 50924" d="M352.119,224.529V227.5l.859-.5v-2.975Z" transform="translate(-346.106 -222.298)" fill="#455a64"/>
              <path id="Path_50925" data-name="Path 50925" d="M367.279,215.775v2.975l.859-.5v-2.975Z" transform="translate(-358.262 -215.279)" fill="#455a64"/>
              <path id="Path_50926" data-name="Path 50926" d="M328.279,239.295v2.975l.429-.248v-2.975Z" transform="translate(-326.991 -234.336)" fill="#455a64"/>
              <path id="Path_50927" data-name="Path 50927" d="M358.612,221.78v2.975l.429-.248v-2.975Z" transform="translate(-351.312 -220.293)" fill="#455a64"/>
              <path id="Path_50928" data-name="Path 50928" d="M345.612,229.288v2.975l.429-.248V229.04Z" transform="translate(-340.889 -226.313)" fill="#455a64"/>
              <path id="Path_50929" data-name="Path 50929" d="M332.613,237.295v2.975l.214-.124v-2.975Z" transform="translate(-330.466 -232.832)" fill="#455a64"/>
              <path id="Path_50930" data-name="Path 50930" d="M349.257,227.685v2.975l.214-.124v-2.975Z" transform="translate(-343.811 -225.127)" fill="#455a64"/>
              <path id="Path_50931" data-name="Path 50931" d="M342.364,231.666v2.975l.214-.124v-2.975Z" transform="translate(-338.285 -228.319)" fill="#455a64"/>
              <path id="Path_50932" data-name="Path 50932" d="M364.03,219.156v2.975l.214-.124v-2.975Z" transform="translate(-355.657 -218.288)" fill="#455a64"/>
              <path id="Path_50933" data-name="Path 50933" d="M340.2,232.9v2.975l.214-.124v-2.975Z" transform="translate(-336.547 -229.311)" fill="#455a64"/>
              <path id="Path_50934" data-name="Path 50934" d="M361.863,220.414v2.975l.214-.124V220.29Z" transform="translate(-353.919 -219.297)" fill="#455a64"/>
            </g>
            <path id="Path_50935" data-name="Path 50935" d="M328.23,186.386l6.968-4.023c.121-.07.219-.02.219.111a.47.47,0,0,1-.219.364l-6.968,4.023c-.121.07-.219.02-.219-.111A.469.469,0,0,1,328.23,186.386Z" transform="translate(-325.542 -179.728)" opacity="0.3"/>
          </g>
        </g>
      </g>
    </g>
  </g>
</svg>
