<svg xmlns="http://www.w3.org/2000/svg" width="24.249" height="18.86" viewBox="0 0 24.249 18.86">
  <path id="address-card" d="M22.228,2.25H2.021A2.021,2.021,0,0,0,0,4.271V19.09A2.021,2.021,0,0,0,2.021,21.11H22.228a2.021,2.021,0,0,0,2.021-2.021V4.271A2.021,2.021,0,0,0,22.228,2.25ZM7.409,6.292A2.694,2.694,0,1,1,4.715,8.986,2.7,2.7,0,0,1,7.409,6.292Zm4.715,9.969a.883.883,0,0,1-.943.808H3.637a.883.883,0,0,1-.943-.808v-.808a2.651,2.651,0,0,1,2.829-2.425h.21a4.336,4.336,0,0,0,3.351,0H9.3a2.651,2.651,0,0,1,2.829,2.425Zm9.43-2.223a.338.338,0,0,1-.337.337H15.156a.338.338,0,0,1-.337-.337v-.674a.338.338,0,0,1,.337-.337h6.062a.338.338,0,0,1,.337.337Zm0-2.694a.338.338,0,0,1-.337.337H15.156a.338.338,0,0,1-.337-.337V10.67a.338.338,0,0,1,.337-.337h6.062a.338.338,0,0,1,.337.337Zm0-2.694a.338.338,0,0,1-.337.337H15.156a.338.338,0,0,1-.337-.337V7.975a.338.338,0,0,1,.337-.337h6.062a.338.338,0,0,1,.337.337Z" transform="translate(0 -2.25)" fill="#b7cee6"/>
</svg>
