<svg width="25" height="25" viewBox="0 0 25 25" fill="none" xmlns="http://www.w3.org/2000/svg">
<rect x="0.5" y="0.5" width="24" height="24" rx="5" fill="#009CAA"/>
<path d="M19.2332 12.5001C19.2332 12.1465 19.0927 11.8074 18.8426 11.5573C18.5926 11.3073 18.2535 11.1668 17.8998 11.1668H12.8332V10.0808C13.2775 10.0167 13.6837 9.79468 13.9776 9.45541C14.2714 9.11614 14.4332 8.68235 14.4332 8.23352C14.4332 6.51087 12.7846 5.39155 12.7146 5.34489C12.6708 5.31565 12.6193 5.30005 12.5666 5.30005C12.5139 5.30005 12.4624 5.31565 12.4186 5.34489C12.3486 5.39155 10.6999 6.51087 10.6999 8.23352C10.7 8.68235 10.8617 9.11614 11.1556 9.45541C11.4494 9.79468 11.8557 10.0167 12.2999 10.0808V11.1668H7.23331C6.87969 11.1668 6.54056 11.3073 6.29051 11.5573C6.04047 11.8074 5.89999 12.1465 5.89999 12.5001V14.0555C5.90023 14.6102 6.08821 15.1485 6.43332 15.5828V18.3667C6.43332 18.7203 6.57379 19.0595 6.82384 19.3095C7.07389 19.5596 7.41302 19.7 7.76664 19.7H17.3665C17.7201 19.7 18.0593 19.5596 18.3093 19.3095C18.5594 19.0595 18.6998 18.7203 18.6998 18.3667V15.5828C19.045 15.1485 19.2329 14.6102 19.2332 14.0555V12.5001ZM11.2333 8.23352C11.2333 7.0742 12.1913 6.19821 12.5666 5.90021C12.9419 6.19888 13.8999 7.07487 13.8999 8.23352C13.8999 8.58714 13.7594 8.92627 13.5094 9.17632C13.2593 9.42636 12.9202 9.56684 12.5666 9.56684C12.213 9.56684 11.8738 9.42636 11.6238 9.17632C11.3737 8.92627 11.2333 8.58714 11.2333 8.23352ZM17.3665 19.1667H7.76664C7.55447 19.1667 7.35099 19.0824 7.20096 18.9324C7.05093 18.7824 6.96665 18.5789 6.96665 18.3667V16.0821C7.33948 16.3412 7.77951 16.4864 8.2333 16.5001C8.68488 16.5117 9.13063 16.3961 9.51964 16.1665C9.90865 15.9368 10.2252 15.6024 10.4333 15.2014C10.6352 15.5932 10.941 15.9218 11.3174 16.1512C11.6937 16.3806 12.1259 16.5019 12.5666 16.5019C13.0073 16.5019 13.4395 16.3806 13.8158 16.1512C14.1921 15.9218 14.498 15.5932 14.6999 15.2014C14.9028 15.5922 15.209 15.9199 15.5851 16.1489C15.9612 16.3778 16.3929 16.4993 16.8332 16.5001H16.8999C17.3536 16.4866 17.7936 16.3416 18.1665 16.0828V18.3667C18.1665 18.5789 18.0822 18.7824 17.9322 18.9324C17.7822 19.0824 17.5787 19.1667 17.3665 19.1667ZM18.6998 14.0555C18.6998 15.0814 17.8858 15.9388 16.8859 15.9661C16.6364 15.9731 16.388 15.9301 16.1555 15.8395C15.923 15.7489 15.7109 15.6125 15.532 15.4386C15.3531 15.2646 15.2108 15.0565 15.1137 14.8266C15.0166 14.5967 14.9665 14.3497 14.9666 14.1001C14.9666 14.0294 14.9385 13.9616 14.8884 13.9116C14.8384 13.8615 14.7706 13.8335 14.6999 13.8335C14.6292 13.8335 14.5613 13.8615 14.5113 13.9116C14.4613 13.9616 14.4332 14.0294 14.4332 14.1001C14.4332 14.5952 14.2366 15.07 13.8865 15.42C13.5364 15.7701 13.0616 15.9668 12.5666 15.9668C12.0715 15.9668 11.5967 15.7701 11.2467 15.42C10.8966 15.07 10.6999 14.5952 10.6999 14.1001C10.6999 14.0294 10.6718 13.9616 10.6218 13.9116C10.5718 13.8615 10.504 13.8335 10.4333 13.8335C10.3625 13.8335 10.2947 13.8615 10.2447 13.9116C10.1947 13.9616 10.1666 14.0294 10.1666 14.1001C10.1667 14.3497 10.1167 14.5969 10.0197 14.8268C9.92257 15.0568 9.78035 15.265 9.60139 15.439C9.42244 15.613 9.2104 15.7494 8.97782 15.8401C8.74523 15.9307 8.49683 15.9738 8.2473 15.9668C7.24731 15.9394 6.43332 15.0821 6.43332 14.0561V12.5001C6.43332 12.288 6.51761 12.0845 6.66763 11.9345C6.81766 11.7844 7.02114 11.7001 7.23331 11.7001H17.8998C18.112 11.7001 18.3155 11.7844 18.4655 11.9345C18.6156 12.0845 18.6998 12.288 18.6998 12.5001V14.0555Z" fill="white"/>
</svg>
