<svg width="25" height="25" viewBox="0 0 25 25" fill="none" xmlns="http://www.w3.org/2000/svg">
<rect x="1" y="1" width="23" height="23" rx="4.5" fill="#009CAA" stroke="#009CAA"/>
<path d="M10.7 14.9H14.3V16.1H10.7V14.9ZM13.1 10.7H11.9V11.9H10.7V13.1H11.9V14.3H13.1V13.1H14.3V11.9H13.1V10.7Z" fill="white"/>
<path d="M12.5 6.5C9.30201 9.23 7.70001 11.588 7.70001 13.58C7.70001 16.568 9.98001 18.5 12.5 18.5C15.02 18.5 17.3 16.568 17.3 13.58C17.3 11.588 15.698 9.23 12.5 6.5ZM12.5 17.6C10.49 17.6 8.60001 15.758 8.60001 13.58C8.60001 12.176 10.07 9.92 12.5 7.7C14.93 9.92 16.4 12.17 16.4 13.58C16.4 15.758 14.51 17.6 12.5 17.6Z" fill="white"/>
</svg>
