<svg width="21" height="24" viewBox="0 0 21 24" fill="none" xmlns="http://www.w3.org/2000/svg">
<path d="M19.8927 20.7628C19.6558 19.2099 19.4617 18.6243 17.3068 18.3743C16.4909 18.2789 14.2735 18.0519 13.4477 17.5814C12.6187 17.1077 12.7503 14.7488 12.7503 14.7488H10.4967H8.24309C8.24309 14.7488 8.37468 17.1077 7.54891 17.5781C6.72314 18.0486 4.50573 18.2789 3.68983 18.371C1.53493 18.621 1.34083 19.2066 1.10395 20.7595C0.913135 22.0064 0.906555 23.6711 0.906555 23.6711H10.4967H20.0868C20.0868 23.6711 20.0802 22.0064 19.8927 20.7628Z" fill="white"/>
<path d="M20.0868 24.0001H0.906568C0.81774 24.0001 0.735492 23.9639 0.672984 23.9047C0.610475 23.8421 0.577576 23.7566 0.577576 23.6678C0.577576 23.5987 0.587445 21.9636 0.778261 20.7101C1.04146 18.9862 1.35729 18.3085 3.65037 18.042L3.80499 18.0256C4.66037 17.9301 6.66723 17.6999 7.38772 17.2919C7.83515 17.0353 7.96675 15.6601 7.9174 14.7652C7.91082 14.6764 7.94372 14.5876 8.00623 14.5218C8.06873 14.456 8.15427 14.4198 8.24639 14.4198H12.7503C12.8424 14.4198 12.928 14.456 12.9905 14.5218C13.053 14.5876 13.0859 14.6764 13.0793 14.7652C13.0299 15.6601 13.1615 17.0386 13.6057 17.2919C14.3262 17.7031 16.3297 17.9301 17.1851 18.0256L17.3397 18.042C19.6361 18.3085 19.9519 18.9862 20.2118 20.7101C20.4027 21.9636 20.4125 23.5987 20.4125 23.6678C20.4125 23.7566 20.3796 23.8389 20.3171 23.9014C20.2579 23.9639 20.1757 24.0001 20.0868 24.0001ZM1.24214 23.3421H19.7545C19.7414 22.7992 19.7019 21.6905 19.567 20.8121C19.3532 19.4073 19.2808 18.9336 17.2674 18.7L17.116 18.6835C16.1422 18.575 14.1189 18.3447 13.2833 17.8676C12.4904 17.4136 12.4049 15.841 12.4147 15.0811H8.58196C8.58854 15.8443 8.50629 17.4136 7.71013 17.8676C6.87449 18.3447 4.8479 18.575 3.87737 18.6835L3.72603 18.7C1.7126 18.9336 1.64022 19.4073 1.42638 20.8121C1.29478 21.6905 1.2553 22.7992 1.24214 23.3421Z" fill="#808080"/>
<path d="M15.5731 8.85973H15.4744C15.5171 8.51428 15.5599 8.17542 15.6027 7.85301C15.8198 6.18831 16.31 1.32251 10.5 1.32251C4.69001 1.32251 5.17691 6.18831 5.39405 7.85301C5.43682 8.17542 5.47959 8.51428 5.52236 8.85973H5.42366C4.53867 8.20503 4.46629 9.9125 4.83476 10.4981C5.14073 10.9817 5.14731 11.0344 5.33154 11.564C5.46643 11.9555 5.69343 12.0082 5.88096 11.9654C5.90399 12.199 5.92373 12.3997 5.94018 12.5609C6.02242 13.459 8.18062 15.2553 8.66752 15.8179C9.12482 16.3443 9.88809 16.1403 10.1348 16.1305C10.3816 16.1173 10.5 16.114 10.5 16.114C10.5 16.114 10.6185 16.1206 10.8652 16.1305C11.1086 16.1403 11.8752 16.3476 12.3325 15.8179C12.8227 15.2553 14.9776 13.459 15.0598 12.5609C15.073 12.3997 15.096 12.1957 15.1191 11.9654C15.3066 12.0082 15.5336 11.9555 15.6685 11.564C15.8527 11.0311 15.8593 10.9784 16.1653 10.4981C16.5304 9.9125 16.4548 8.20503 15.5731 8.85973Z" fill="white"/>
<path d="M11.4278 16.5088C11.2501 16.5088 11.0889 16.4891 10.9705 16.4726C10.9211 16.4661 10.8783 16.4595 10.8487 16.4595L10.4967 16.443L10.148 16.4595C10.1151 16.4595 10.0756 16.4661 10.023 16.4726C9.90452 16.4858 9.74661 16.5088 9.56566 16.5088C9.07546 16.5088 8.68725 16.3509 8.41419 16.0351C8.30233 15.9035 8.07203 15.6864 7.80884 15.433C6.64421 14.3145 5.67368 13.3275 5.60788 12.5938C5.6013 12.5017 5.59143 12.3997 5.57827 12.2846C5.38746 12.2319 5.15387 12.0773 5.01569 11.6759L4.97622 11.5641C4.83146 11.1463 4.81501 11.0936 4.55181 10.6791C4.24585 10.1922 4.20308 9.24797 4.46628 8.77093C4.61432 8.50445 4.85449 8.36627 5.13084 8.39259C5.1111 8.2248 5.08807 8.0636 5.06833 7.90239C4.95319 7.02398 4.60445 4.35256 6.13756 2.6089C7.0719 1.54297 8.5392 1.00342 10.4967 1.00342C12.4542 1.00342 13.9215 1.54297 14.8559 2.6089C16.389 4.34598 16.0402 7.0174 15.9251 7.89581C15.9053 8.05373 15.8823 8.21822 15.8626 8.38601C16.1356 8.35969 16.3791 8.49458 16.5271 8.76435C16.7903 9.24139 16.7476 10.1889 16.4416 10.6725C16.1784 11.087 16.162 11.1397 16.0172 11.5575L15.9777 11.6726C15.8395 12.074 15.6093 12.2286 15.4151 12.2813C15.402 12.3964 15.3921 12.5017 15.3855 12.5938C15.3197 13.3275 14.3492 14.3145 13.1846 15.433C12.9214 15.6864 12.6911 15.9068 12.5792 16.0351C12.3062 16.3509 11.918 16.5088 11.4278 16.5088ZM10.4967 15.7851C10.5033 15.7851 10.5099 15.7851 10.5132 15.7851L10.8751 15.8015C10.9178 15.8048 10.9803 15.8114 11.0527 15.818C11.158 15.8311 11.2896 15.8476 11.4245 15.8476C11.7239 15.8476 11.9311 15.7686 12.0792 15.6008C12.2108 15.4495 12.4378 15.2291 12.724 14.956C13.405 14.3013 14.6749 13.0807 14.7243 12.5313C14.7407 12.3701 14.7605 12.1661 14.7835 11.9293C14.7934 11.8338 14.8427 11.7516 14.9184 11.6957C14.994 11.6397 15.0927 11.62 15.1816 11.643C15.1947 11.6463 15.2046 11.6463 15.2145 11.6463C15.277 11.6463 15.3362 11.4851 15.3461 11.4555L15.3855 11.3404C15.5435 10.8831 15.5829 10.7811 15.8757 10.3172C16.0962 9.96846 16.06 9.14598 15.9086 9.03412C15.9086 9.03741 15.856 9.04728 15.7573 9.11966C15.7014 9.16243 15.6323 9.18546 15.5599 9.18546H15.4612C15.3658 9.18546 15.277 9.14598 15.2145 9.0736C15.152 9.00452 15.1223 8.90911 15.1355 8.8137C15.1783 8.46826 15.221 8.1294 15.2638 7.80698C15.3691 7.00095 15.6882 4.55325 14.3525 3.03001C13.5465 2.11212 12.2469 1.64824 10.4868 1.64824C8.72673 1.64824 7.42721 2.11212 6.62118 3.03001C5.28547 4.54996 5.60459 7.00095 5.70987 7.80698C5.75264 8.1294 5.79541 8.46826 5.83818 8.8137C5.85134 8.90911 5.82173 9.00123 5.75922 9.0736C5.69671 9.14269 5.60788 9.18546 5.51247 9.18546H5.41377C5.34469 9.18546 5.2756 9.16243 5.21638 9.11966C5.10781 9.03741 5.05517 9.03741 5.05517 9.03741C4.91371 9.1394 4.87752 9.96517 5.10123 10.3172C5.39404 10.7811 5.43351 10.8831 5.59143 11.3404L5.63091 11.4522C5.64407 11.4851 5.7 11.6463 5.7658 11.6463C5.77567 11.6463 5.78554 11.6463 5.7987 11.643C5.89081 11.6233 5.98622 11.643 6.06189 11.6957C6.13756 11.7516 6.18691 11.8371 6.19678 11.9293C6.21981 12.1628 6.23955 12.3668 6.256 12.528C6.30534 13.0774 7.57526 14.298 8.25956 14.9527C8.54578 15.2291 8.77279 15.4462 8.90439 15.5975C9.04914 15.7653 9.2597 15.8443 9.55908 15.8443C9.69726 15.8443 9.82556 15.8278 9.93084 15.8147C10.0032 15.8048 10.0624 15.7982 10.1085 15.7982L10.4704 15.7818C10.4868 15.7851 10.4901 15.7851 10.4967 15.7851Z" fill="#808080"/>
<path d="M14.4183 1.32581C13.1879 0.786258 12.5924 1.08564 12.5924 1.08564C12.2634 0.73033 11.4113 0.134853 9.54265 0.391467C6.9469 0.746779 6.69357 1.32581 5.72963 1.0988C5.72963 1.0988 5.30852 1.83574 5.11112 2.77995C4.73607 4.57954 4.73607 6.44164 5.46972 8.63931C5.68357 9.53746 5.91715 10.179 5.91715 10.179C5.91715 10.179 5.6737 6.99435 6.16061 5.7376C6.6541 4.47755 8.36815 4.20449 8.94059 4.75391C9.51304 5.30333 10.4934 5.24082 10.4934 5.24082C10.4934 5.24082 11.4738 5.30333 12.0463 4.75391C12.5299 4.29003 13.8228 4.41505 14.5104 5.22108L14.7374 5.55336C14.7703 5.61258 14.7999 5.67509 14.8263 5.7376C15.3165 6.99435 15.0697 10.179 15.0697 10.179C15.0697 10.179 15.6027 8.71498 15.8001 7.10949C16.4877 3.09579 15.5369 1.816 14.4183 1.32581Z" fill="white"/>
<path d="M5.92042 10.5047C5.78554 10.5047 5.66052 10.4192 5.61117 10.2876C5.6013 10.2613 5.36772 9.61974 5.15387 8.71501C4.47944 6.69829 4.361 4.78026 4.79198 2.7109C4.99595 1.72721 5.43022 0.967238 5.44667 0.934339C5.51905 0.809321 5.6671 0.743523 5.80857 0.776422C6.20994 0.87183 6.46984 0.792872 6.97649 0.631666C7.49959 0.467169 8.21679 0.240165 9.49986 0.0625086C9.81569 0.0230295 10.1184 0 10.4046 0C11.6219 0 12.3193 0.398081 12.6812 0.713914C12.7865 0.690884 12.9214 0.671145 13.0957 0.671145C13.5333 0.671145 14.0235 0.789582 14.5532 1.02317C16.2179 1.75682 16.718 3.70775 16.1323 7.16217C15.9317 8.77094 15.4053 10.2284 15.3855 10.2876C15.3296 10.4422 15.1651 10.531 15.0072 10.4981C14.846 10.462 14.7374 10.3139 14.7473 10.1527C14.7506 10.1231 14.9809 7.03057 14.5236 5.85607C14.5071 5.81001 14.4841 5.76724 14.4611 5.72118L14.2571 5.4218C13.9347 5.05332 13.3951 4.81316 12.8852 4.81316C12.622 4.81316 12.3983 4.87896 12.2831 4.99082C11.7403 5.51391 10.9244 5.56984 10.5987 5.56984C10.5559 5.56984 10.523 5.56984 10.5033 5.56984C10.4835 5.56984 10.4506 5.56984 10.4079 5.56984C10.0822 5.56984 9.26628 5.51391 8.72344 4.99082C8.60829 4.87896 8.38129 4.81316 8.1148 4.81316C7.52262 4.81316 6.75606 5.13886 6.47642 5.85607C6.05531 6.93516 6.21981 9.63948 6.24941 10.0902C6.25599 10.1198 6.26258 10.1494 6.26258 10.179C6.26258 10.36 6.11453 10.508 5.93358 10.508C5.92371 10.508 5.92371 10.508 5.92042 10.5047ZM5.91384 1.46402C5.78225 1.73379 5.56182 2.25031 5.4368 2.84578C5.08807 4.52036 5.12097 6.08965 5.54537 7.72145C5.57498 6.93187 5.66052 6.13242 5.8612 5.6159C6.2527 4.61247 7.30219 4.15517 8.11151 4.15517C8.55565 4.15517 8.9307 4.28348 9.17416 4.51707C9.55579 4.88554 10.2105 4.91515 10.4046 4.91515C10.4474 4.91515 10.4737 4.91515 10.4803 4.91515C10.4934 4.91515 10.5099 4.91515 10.523 4.91515C10.5263 4.91515 10.5526 4.91515 10.5954 4.91515C10.7862 4.91515 11.4442 4.88554 11.8258 4.52036C12.0693 4.28677 12.4443 4.15846 12.8852 4.15846C13.5991 4.15846 14.3196 4.48417 14.7703 5.01055C14.7769 5.02042 14.7835 5.03029 14.7901 5.03687L15.0171 5.36916C15.0236 5.37903 15.0302 5.39219 15.0368 5.40206C15.073 5.47114 15.1092 5.54352 15.1388 5.61919C15.3132 6.06333 15.3987 6.71474 15.4382 7.38917C15.4546 7.28389 15.4678 7.17862 15.4809 7.07005C16.1751 2.96751 15.1322 2.00027 14.2867 1.62851C13.7307 1.38506 13.3326 1.33242 13.0957 1.33242C12.8852 1.33242 12.7668 1.3719 12.7404 1.38177C12.7108 1.39822 12.6746 1.40809 12.6417 1.41138C12.5365 1.42783 12.4279 1.38835 12.3522 1.30939C12.1252 1.06594 11.5692 0.657985 10.4046 0.657985C10.1513 0.657985 9.87491 0.677724 9.59198 0.717204C8.36484 0.88499 7.67724 1.10212 7.17717 1.26004C6.70671 1.40809 6.34811 1.51666 5.91384 1.46402Z" fill="#808080"/>
<path d="M11.6021 14.6763C11.4212 14.6763 11.2731 14.5283 11.2731 14.3473C11.2731 14.1664 11.4212 14.0184 11.6021 14.0184C13.3096 14.0184 14.5433 13.6038 15.2737 12.7846C16.1093 11.847 15.981 10.6692 15.981 10.656C15.9613 10.4751 16.0896 10.3139 16.2672 10.2909C16.4482 10.2711 16.6094 10.3961 16.6324 10.5771C16.639 10.6363 16.8035 12.0477 15.7705 13.2123C14.9118 14.1861 13.5103 14.6763 11.6021 14.6763Z" fill="#808080"/>
<path d="M17.2871 9.5933C17.2871 8.38261 16.7871 7.40221 16.1653 7.39563H15.7606V7.53052C15.3066 7.83977 14.9414 8.6458 14.9414 9.59659C14.9414 10.5441 15.3066 11.3534 15.7606 11.6594V11.7943H16.1653C16.7871 11.7844 17.2871 10.8007 17.2871 9.5933Z" fill="white"/>
<path d="M16.1686 12.12H15.7639C15.5895 12.12 15.4481 11.9851 15.4349 11.8173C14.9381 11.3765 14.6124 10.5145 14.6124 9.59331C14.6124 8.67213 14.9381 7.80688 15.4349 7.36932C15.4481 7.19825 15.5895 7.06665 15.7639 7.06665H16.1686C16.1817 7.06665 16.1916 7.06665 16.2048 7.06994C17.0141 7.10613 17.6194 8.18193 17.6194 9.5966C17.6194 11.0113 17.0141 12.0871 16.2048 12.1233C16.1916 12.12 16.1817 12.12 16.1686 12.12ZM16.0304 11.462H16.1422C16.1488 11.462 16.1554 11.462 16.1653 11.462C16.4976 11.4587 16.9614 10.7448 16.9614 9.59331C16.9614 8.43855 16.4976 7.72793 16.1653 7.72464C16.1587 7.72464 16.1521 7.72464 16.1422 7.72464H16.0304C16.0074 7.75424 15.981 7.78056 15.9481 7.80359C15.6126 8.0306 15.2737 8.71819 15.2737 9.5966C15.2737 10.475 15.6159 11.1626 15.9481 11.3896C15.981 11.4061 16.0074 11.4324 16.0304 11.462Z" fill="#808080"/>
<path d="M16.1982 11.3271C16.1982 11.6133 16.0106 11.8469 15.7803 11.8469H15.3625C15.1322 11.8469 14.9447 11.6133 14.9447 11.3271V7.85623C14.9447 7.57001 15.1322 7.33643 15.3625 7.33643H15.7803C16.0106 7.33643 16.1982 7.57001 16.1982 7.85623V11.3271Z" fill="white"/>
<path d="M15.7804 12.1759H15.3625C14.9513 12.1759 14.6157 11.7943 14.6157 11.3271V7.85625C14.6157 7.38908 14.9513 7.00745 15.3625 7.00745H15.7804C16.1916 7.00745 16.5272 7.38908 16.5272 7.85625V11.3304C16.5272 11.7976 16.1916 12.1759 15.7804 12.1759ZM15.3625 7.66543C15.3395 7.66543 15.2737 7.73452 15.2737 7.85625V11.3304C15.2737 11.4554 15.3395 11.5212 15.3625 11.5212H15.7804C15.8034 11.5212 15.8692 11.4521 15.8692 11.3304V7.85625C15.8692 7.73452 15.8034 7.66543 15.7804 7.66543H15.3625Z" fill="#808080"/>
<path d="M3.7063 9.5933C3.7063 8.38261 4.20637 7.40221 4.82816 7.39563H5.23282V7.53052C5.69012 7.83977 6.05201 8.6458 6.05201 9.59659C6.05201 10.5441 5.68683 11.3534 5.23282 11.6594V11.7943H4.82816C4.20637 11.7844 3.7063 10.8007 3.7063 9.5933Z" fill="white"/>
<path d="M5.22954 12.12H4.82488C4.81172 12.12 4.80185 12.12 4.78869 12.12C3.97937 12.0838 3.37402 11.008 3.37402 9.59331C3.37402 8.17864 3.97937 7.10283 4.78869 7.06664C4.80185 7.06664 4.81172 7.06335 4.82488 7.06335H5.22954C5.40391 7.06335 5.54537 7.19824 5.55853 7.36603C6.05531 7.80688 6.38101 8.66884 6.38101 9.59002C6.38101 10.5112 6.05531 11.3764 5.55853 11.814C5.54537 11.9851 5.40391 12.12 5.22954 12.12ZM4.8512 11.462H4.96306C4.98609 11.4324 5.01241 11.4061 5.04531 11.383C5.38088 11.156 5.71974 10.4684 5.71974 9.59002C5.71974 8.71161 5.38088 8.02401 5.04531 7.79701C5.01241 7.77398 4.98609 7.74766 4.96306 7.71805H4.8512C4.84462 7.71805 4.83804 7.71805 4.82817 7.71805C4.49589 7.72134 4.03201 8.43525 4.03201 9.58673C4.03201 10.7415 4.49589 11.4521 4.82817 11.4554C4.83804 11.462 4.84462 11.462 4.8512 11.462Z" fill="#808080"/>
<path d="M4.79852 11.3271C4.79852 11.6133 4.98605 11.8469 5.21634 11.8469H5.63416C5.86446 11.8469 6.05198 11.6133 6.05198 11.3271V7.85623C6.05198 7.57001 5.86446 7.33643 5.63416 7.33643H5.21634C4.98605 7.33643 4.79852 7.57001 4.79852 7.85623V11.3271Z" fill="white"/>
<path d="M5.63418 12.1759H5.21636C4.80512 12.1759 4.46954 11.7943 4.46954 11.3271V7.85625C4.46954 7.38908 4.80512 7.00745 5.21636 7.00745H5.63418C6.04542 7.00745 6.38099 7.38908 6.38099 7.85625V11.3304C6.3777 11.7976 6.04542 12.1759 5.63418 12.1759ZM5.21636 7.66543C5.19333 7.66543 5.12753 7.73452 5.12753 7.85625V11.3304C5.12753 11.4554 5.19333 11.5212 5.21636 11.5212H5.63418C5.65721 11.5212 5.723 11.4521 5.723 11.3304V7.85625C5.723 7.73452 5.65721 7.66543 5.63418 7.66543H5.21636Z" fill="#808080"/>
<path d="M16.1718 7.89576C15.9909 7.89576 15.8429 7.74771 15.8429 7.56677C15.8429 4.48082 13.4445 1.97061 10.4967 1.97061C7.54895 1.97061 5.1506 4.48082 5.1506 7.56677C5.1506 7.74771 5.00255 7.89576 4.82161 7.89576C4.64066 7.89576 4.49261 7.74771 4.49261 7.56677C4.49261 4.11893 7.18706 1.31262 10.4967 1.31262C13.8097 1.31262 16.5008 4.11893 16.5008 7.56677C16.5008 7.74771 16.3561 7.89576 16.1718 7.89576Z" fill="#808080"/>
<path d="M12.5726 14.3539C12.5726 14.6039 12.372 14.8046 12.1219 14.8046H10.579C10.3289 14.8046 10.1282 14.6039 10.1282 14.3539V14.3407C10.1282 14.0907 10.3322 13.89 10.579 13.89H12.1219C12.372 13.89 12.5726 14.094 12.5726 14.3407V14.3539Z" fill="white"/>
<path d="M12.1219 15.1369H10.579C10.148 15.1369 9.79926 14.7882 9.79926 14.3572C9.79926 13.9131 10.148 13.561 10.579 13.561H12.1219C12.5529 13.561 12.9017 13.9098 12.9017 14.3407C12.9017 14.7849 12.5529 15.1369 12.1219 15.1369ZM10.579 14.219C10.5099 14.219 10.4572 14.2749 10.4572 14.3407C10.4572 14.423 10.5132 14.4789 10.579 14.4789H12.1219C12.1877 14.4789 12.2437 14.423 12.2437 14.3572C12.2437 14.2749 12.1877 14.219 12.1219 14.219H10.579Z" fill="#808080"/>
<path d="M10.4506 17.7854L8.06543 16.7556C7.96015 17.1241 7.79895 17.4366 7.5522 17.5781C6.72643 18.0486 4.50902 18.2789 3.69312 18.371C1.53822 18.621 1.34412 19.2066 1.10724 20.7595C0.913135 22.0063 0.906555 23.671 0.906555 23.671H10.4967H20.0868C20.0868 23.671 20.0802 22.0063 19.8894 20.7627C19.6525 19.2099 19.4584 18.6243 17.3035 18.3743C16.4876 18.2788 14.2702 18.0518 13.4445 17.5814C13.1977 17.4399 13.0365 17.1274 12.9312 16.7589L10.4506 17.7854Z" fill="white"/>
<path d="M20.0934 24C20.0901 24 20.0901 24 20.0868 24H0.906568C0.81774 24 0.735492 23.9639 0.672983 23.9046C0.610475 23.8421 0.577576 23.7566 0.577576 23.6678C0.577576 23.5987 0.587445 21.9636 0.778261 20.7101C1.04146 18.9862 1.35729 18.3085 3.65037 18.042L3.80499 18.0255C4.66037 17.9301 6.66723 17.6998 7.38772 17.2919C7.5259 17.2129 7.6542 16.9892 7.74632 16.6635C7.79896 16.4793 8.01938 16.374 8.19375 16.453L10.4506 17.4268L12.8029 16.4497C12.9049 16.4069 13.0201 16.4201 13.1122 16.4793C13.178 16.522 13.224 16.5878 13.2471 16.6635C13.3392 16.9892 13.4675 17.2096 13.609 17.2919C14.3295 17.7031 16.333 17.9301 17.1884 18.0255L17.343 18.042C19.6394 18.3085 19.9552 18.9862 20.2151 20.7101C20.3862 21.8386 20.4125 23.2697 20.4158 23.5987C20.4224 23.6217 20.4224 23.6447 20.4224 23.6678C20.4224 23.852 20.2776 24 20.0934 24ZM1.24214 23.3421H19.7545C19.7414 22.7992 19.7019 21.6905 19.567 20.8121C19.3532 19.4073 19.2808 18.9336 17.2674 18.7L17.116 18.6835C16.1422 18.575 14.1189 18.3447 13.2833 17.8676C13.0563 17.736 12.8753 17.5156 12.7371 17.1965L10.5757 18.0946C10.4934 18.1275 10.4013 18.1275 10.319 18.0913L8.25626 17.1998C8.11808 17.5189 7.94043 17.736 7.71342 17.8676C6.87449 18.3447 4.85119 18.575 3.88066 18.6868L3.72932 18.7033C1.71589 18.9369 1.64351 19.4106 1.42967 20.8154C1.29478 21.6905 1.2553 22.7992 1.24214 23.3421Z" fill="#808080"/>
<path d="M10.6151 19.0585L10.4967 18.894L10.3815 19.0585L9.23334 23.467L9.88803 23.671H10.4967H11.1053L11.76 23.467L10.6151 19.0585Z" fill="white"/>
<path d="M11.1053 24H9.88803C9.85513 24 9.82223 23.9934 9.79263 23.9869L9.13793 23.7829C8.97014 23.7302 8.87145 23.5559 8.91751 23.3848L10.0624 18.973C10.0723 18.9335 10.0887 18.8973 10.1117 18.8644L10.2269 18.6999C10.2894 18.6144 10.3881 18.5618 10.4934 18.5618C10.5987 18.5618 10.7006 18.6144 10.7599 18.6999L10.875 18.8644C10.898 18.8973 10.9145 18.9335 10.9244 18.973L12.0693 23.3848C12.112 23.5559 12.0166 23.7302 11.8488 23.7829L11.1941 23.9869C11.1711 23.9934 11.1382 24 11.1053 24ZM9.94067 23.342H11.056L11.3619 23.2466L10.4967 19.9172L9.63142 23.2466L9.94067 23.342Z" fill="#808080"/>
<path d="M6.04871 18.0387C5.15714 18.2131 4.17345 18.3183 3.68654 18.3743C1.53164 18.6243 1.33754 19.2099 1.10066 20.7628C0.913135 22.0063 0.906555 23.671 0.906555 23.671H9.88805L6.04871 18.0387Z" fill="white"/>
<path d="M9.88806 24H0.906568C0.81774 24 0.735492 23.9638 0.672984 23.9046C0.610475 23.8421 0.577576 23.7566 0.577576 23.6678C0.577576 23.5987 0.587445 21.9636 0.778261 20.7101C1.04146 18.9862 1.35729 18.3085 3.65037 18.042L3.79841 18.0255C4.31822 17.9663 5.19005 17.8676 5.98621 17.713C6.11452 17.6867 6.24612 17.7426 6.32178 17.8512L10.1611 23.4835C10.2302 23.5855 10.2368 23.7138 10.1809 23.8224C10.1249 23.9309 10.0131 24 9.88806 24ZM1.24214 23.342H9.26956L5.90067 18.4006C5.1407 18.5388 4.3577 18.6276 3.87408 18.6835L3.72932 18.7C1.71589 18.9335 1.64351 19.4073 1.42967 20.8121C1.29478 21.6905 1.2553 22.7992 1.24214 23.342Z" fill="#808080"/>
<path d="M20.0868 23.671C20.0868 23.671 20.0803 22.0063 19.8894 20.7628C19.6526 19.2099 19.4585 18.6243 17.3036 18.3743C16.8167 18.3183 15.833 18.2131 14.9414 18.0387L11.1053 23.671H20.0868Z" fill="white"/>
<path d="M20.0869 24H11.1054C10.9836 24 10.8718 23.9309 10.8159 23.8257C10.7599 23.7171 10.7665 23.5888 10.8356 23.4868L14.6749 17.8545C14.7506 17.7459 14.8822 17.69 15.0105 17.7163C15.8067 17.8709 16.6752 17.9696 17.1983 18.0288L17.3464 18.0453C19.6427 18.3118 19.9586 18.9895 20.2185 20.7134C20.4093 21.9669 20.4191 23.602 20.4191 23.671C20.4191 23.7599 20.3862 23.8421 20.3237 23.9046C20.2579 23.9639 20.1757 24 20.0869 24ZM11.7272 23.3421H19.7546C19.7414 22.7992 19.7019 21.6905 19.5671 20.8121C19.3532 19.4073 19.2808 18.9336 17.2674 18.7L17.1193 18.6835C16.6357 18.6276 15.8527 18.5388 15.096 18.4006L11.7272 23.3421Z" fill="#808080"/>
<path d="M9.67749 18.5782L10.4506 19.3973L11.3521 18.5782L10.4506 17.7853L9.67749 18.5782Z" fill="white"/>
<path d="M10.4506 19.7264C10.3618 19.7264 10.2763 19.6902 10.2105 19.6244L9.43732 18.8019C9.3156 18.6736 9.31889 18.4729 9.44061 18.3479L10.2137 17.555C10.3355 17.43 10.5362 17.4234 10.6678 17.5386L11.5692 18.3315C11.6383 18.394 11.6811 18.4828 11.6811 18.5749C11.6811 18.667 11.6416 18.7591 11.5725 18.8217L10.671 19.6441C10.6085 19.7001 10.5296 19.7264 10.4506 19.7264ZM10.1315 18.5815L10.4671 18.9368L10.8586 18.5815L10.4671 18.2393L10.1315 18.5815Z" fill="#808080"/>
<path d="M10.4506 17.7854L8.87476 19.3974L7.29889 17.7854L8.06544 16.7556L10.4506 17.7854Z" fill="white"/>
<path d="M8.87474 19.7264C8.78591 19.7264 8.70037 19.6902 8.64115 19.6277L7.06528 18.0123C6.95342 17.8972 6.94026 17.7162 7.03567 17.5879L7.80222 16.5582C7.89434 16.4364 8.05555 16.3904 8.19701 16.4529L10.5822 17.4826C10.6809 17.5254 10.7533 17.6142 10.7763 17.7195C10.7961 17.8248 10.7632 17.9366 10.6875 18.0123L9.11161 19.6277C9.0491 19.6935 8.96357 19.7264 8.87474 19.7264ZM7.72984 17.7557L8.87474 18.9269L9.88146 17.8972L8.17398 17.1602L7.72984 17.7557Z" fill="#808080"/>
<path d="M10.4506 17.7854L12.0265 19.3974L13.6024 17.7854L12.8358 16.7556L10.4506 17.7854Z" fill="white"/>
<path d="M12.0265 19.7264C11.9377 19.7264 11.8522 19.6902 11.7929 19.6277L10.2171 18.0123C10.1414 17.9334 10.1085 17.8248 10.1282 17.7195C10.148 17.6142 10.2204 17.5254 10.3223 17.4826L12.7075 16.4529C12.8457 16.3937 13.0102 16.4364 13.1023 16.5582L13.8656 17.5879C13.961 17.7162 13.9511 17.8972 13.836 18.0123L12.2601 19.6277C12.2009 19.6935 12.1154 19.7264 12.0265 19.7264ZM11.0198 17.8972L12.0265 18.9269L13.1714 17.7557L12.7306 17.1602L11.0198 17.8972Z" fill="#808080"/>
</svg>
