<svg width="22" height="22" viewBox="0 0 22 22" fill="none" xmlns="http://www.w3.org/2000/svg">
<path d="M19.4615 1.69231H16.9231V0.846154C16.9231 0.62174 16.8339 0.406517 16.6753 0.247833C16.5166 0.0891481 16.3013 0 16.0769 0C15.8525 0 15.6373 0.0891481 15.4786 0.247833C15.3199 0.406517 15.2308 0.62174 15.2308 0.846154V1.69231H6.76924V0.846154C6.76924 0.62174 6.68009 0.406517 6.5214 0.247833C6.36272 0.0891481 6.1475 0 5.92308 0C5.69867 0 5.48345 0.0891481 5.32476 0.247833C5.16608 0.406517 5.07693 0.62174 5.07693 0.846154V1.69231H2.53847C2.08964 1.69231 1.6592 1.8706 1.34183 2.18797C1.02446 2.50534 0.846161 2.93579 0.846161 3.38462V20.3077C0.846161 20.7565 1.02446 21.187 1.34183 21.5043C1.6592 21.8217 2.08964 22 2.53847 22H19.4615C19.9104 22 20.3408 21.8217 20.6582 21.5043C20.9756 21.187 21.1539 20.7565 21.1539 20.3077V3.38462C21.1539 2.93579 20.9756 2.50534 20.6582 2.18797C20.3408 1.8706 19.9104 1.69231 19.4615 1.69231ZM5.07693 3.38462V4.23077C5.07693 4.45518 5.16608 4.67041 5.32476 4.82909C5.48345 4.98777 5.69867 5.07692 5.92308 5.07692C6.1475 5.07692 6.36272 4.98777 6.5214 4.82909C6.68009 4.67041 6.76924 4.45518 6.76924 4.23077V3.38462H15.2308V4.23077C15.2308 4.45518 15.3199 4.67041 15.4786 4.82909C15.6373 4.98777 15.8525 5.07692 16.0769 5.07692C16.3013 5.07692 16.5166 4.98777 16.6753 4.82909C16.8339 4.67041 16.9231 4.45518 16.9231 4.23077V3.38462H19.4615V6.76923H2.53847V3.38462H5.07693ZM19.4615 20.3077H2.53847V8.46154H19.4615V20.3077Z" fill="black"/>
</svg>
