<svg xmlns="http://www.w3.org/2000/svg" xmlns:xlink="http://www.w3.org/1999/xlink" width="410.2" height="248.651" viewBox="0 0 410.2 248.651">
  <defs>
    <linearGradient id="linear-gradient" x1="0.5" x2="0.5" y2="1" gradientUnits="objectBoundingBox">
      <stop offset="0" stop-color="#0dbbd6"/>
      <stop offset="1" stop-color="#339dfa"/>
    </linearGradient>
    <clipPath id="clip-path">
      <rect id="Rectangle_26974" data-name="Rectangle 26974" width="330" height="93" fill="#fff"/>
    </clipPath>
  </defs>
  <g id="down_img" transform="translate(-17.8 -677.349)">
    <g id="log" transform="translate(47.8 622.349)">
      <g id="freepik--background-complete--inject-2" transform="translate(0 55)">
        <g id="Group_55375" data-name="Group 55375" transform="translate(30)">
          <path id="Path_51361" data-name="Path 51361" d="M388.059,243.005H259.686a3.8,3.8,0,0,1-3.8-3.8V58.763a3.8,3.8,0,0,1,3.8-3.763H388.059a3.8,3.8,0,0,1,3.8,3.8V239.209A3.8,3.8,0,0,1,388.059,243.005ZM259.686,55.133a3.636,3.636,0,0,0-3.63,3.63V239.209a3.636,3.636,0,0,0,3.63,3.63H388.059a3.637,3.637,0,0,0,3.63-3.63V58.763a3.637,3.637,0,0,0-3.63-3.63Z" transform="translate(-85.774 -55)" fill="#b7cee6"/>
          <path id="Path_51364" data-name="Path 51364" d="M336.46,107.337a3.617,3.617,0,1,1-3.916-3.284A3.617,3.617,0,0,1,336.46,107.337Z" transform="translate(-110.361 -71.438)" fill="#f5f5f5"/>
          <path id="Path_51365" data-name="Path 51365" d="M366.536,104.677a3.61,3.61,0,1,1-3.909-3.284A3.61,3.61,0,0,1,366.536,104.677Z" transform="translate(-120.447 -70.547)" fill="#f5f5f5"/>
          <path id="Path_51366" data-name="Path 51366" d="M396.61,102.047a3.617,3.617,0,1,1-3.916-3.284,3.617,3.617,0,0,1,3.916,3.284Z" transform="translate(-130.523 -69.665)" fill="#f5f5f5"/>
          <path id="Path_51367" data-name="Path 51367" d="M339.14,137.957a3.616,3.616,0,1,1-3.916-3.284A3.616,3.616,0,0,1,339.14,137.957Z" transform="translate(-111.26 -81.702)" fill="#f5f5f5"/>
          <path id="Path_51368" data-name="Path 51368" d="M369.216,135.337a3.61,3.61,0,1,1-3.909-3.284A3.61,3.61,0,0,1,369.216,135.337Z" transform="translate(-121.346 -80.824)" fill="#f5f5f5"/>
          <path id="Path_51369" data-name="Path 51369" d="M399.29,132.7a3.616,3.616,0,1,1-3.916-3.284A3.616,3.616,0,0,1,399.29,132.7Z" transform="translate(-131.422 -79.939)" fill="#f5f5f5"/>
          <path id="Path_51370" data-name="Path 51370" d="M341.826,168.617a3.6,3.6,0,1,1-1.273-2.454A3.61,3.61,0,0,1,341.826,168.617Z" transform="translate(-112.164 -91.979)" fill="#f5f5f5"/>
          <path id="Path_51371" data-name="Path 51371" d="M371.9,165.977a3.616,3.616,0,1,1-3.916-3.284A3.616,3.616,0,0,1,371.9,165.977Z" transform="translate(-122.241 -91.094)" fill="#f5f5f5"/>
          <path id="Path_51372" data-name="Path 51372" d="M401.97,163.337a3.617,3.617,0,1,1-3.916-3.284A3.616,3.616,0,0,1,401.97,163.337Z" transform="translate(-132.32 -90.209)" fill="#f5f5f5"/>
          <path id="Path_51373" data-name="Path 51373" d="M377.522,145.317l-41.071,3.59,36.418-44.249-37.3,3.264a.785.785,0,0,1-.858-.725h0a.791.791,0,0,1,.718-.858l41.078-3.59L340.08,147l37.315-3.264a.8.8,0,0,1,.864.725h0a.8.8,0,0,1-.738.858Z" transform="translate(-112.193 -71.006)" fill="#e6e6e6"/>
          <path id="Path_51374" data-name="Path 51374" d="M394.753,280.093a1.037,1.037,0,0,0-.9-.711,7.167,7.167,0,0,1-4.74-2.094,10.808,10.808,0,0,1-2.766-7.14,1.057,1.057,0,0,0-1.05-1h0a1.077,1.077,0,0,0-1.07,1.13,12.807,12.807,0,0,0,3.384,8.5,9.307,9.307,0,0,0,5.9,2.706h.153a1.064,1.064,0,0,0,1.09-1.4Z" transform="translate(-128.793 -126.783)" fill="#f0f0f0"/>
          <path id="Path_51375" data-name="Path 51375" d="M388.188,293.6c-8.809-.771-15.164-6.774-17.172-16.148a1.07,1.07,0,0,1,.851-1.29h0a1.064,1.064,0,0,1,1.223.811c1.8,8.423,7.452,13.821,15.29,14.506,8.589.751,17.81-4.9,19.465-19.14a1.064,1.064,0,0,1,1.15-.951h0a1.057,1.057,0,0,1,.964,1.17C408.372,285.987,399.543,294.589,388.188,293.6Z" transform="translate(-124.355 -127.532)" fill="#f0f0f0"/>
          <path id="Path_51376" data-name="Path 51376" d="M371.371,255.221h0a1.057,1.057,0,0,1-.964-1.17c1.582-13.429,10.411-22.038,21.759-21.041,9.972.871,16.653,8.317,17.7,19.532a1.064,1.064,0,0,1-1,1.143h0a1.07,1.07,0,0,1-1.117-.984c-.964-10.1-6.927-16.8-15.762-17.571-8.556-.751-17.817,4.893-19.465,19.12a1.064,1.064,0,0,1-1.15.971Z" transform="translate(-124.158 -114.643)" fill="#f0f0f0"/>
          <path id="Path_51377" data-name="Path 51377" d="M394.877,278.832a14.407,14.407,0,0,1-4.58-1.143,1.07,1.07,0,0,1-.512-1.489h0a1.05,1.05,0,0,1,1.33-.465,12.63,12.63,0,0,0,4.374,1.01c6.508.372,13.382-4.241,14.06-15.383.412-6.867-1.941-12.412-6.329-15.064a1.064,1.064,0,0,1-.406-1.376h0a1.077,1.077,0,0,1,1.509-.445c5.086,3.071,7.811,9.307,7.346,17.012-.665,10.743-7.353,17.9-16.307,17.384Z" transform="translate(-130.612 -118.462)" fill="#f0f0f0"/>
          <path id="Path_51378" data-name="Path 51378" d="M381.2,271.273a1.077,1.077,0,0,1-1.536-.352,21.513,21.513,0,0,1-2.493-11.966c.625-10.284,6.788-17.285,15.157-17.4a1.07,1.07,0,0,1,1.09,1.13h0a1.064,1.064,0,0,1-1.037,1c-6.209.12-12.445,4.813-13.083,15.4a19.387,19.387,0,0,0,2.22,10.81,1.05,1.05,0,0,1-.319,1.4Z" transform="translate(-126.403 -117.532)" fill="#f0f0f0"/>
          <path id="Path_51379" data-name="Path 51379" d="M398.758,273.317h0a1.064,1.064,0,0,1,.432-1.33c2.8-1.682,4.514-5.212,4.541-9.473,0-3.41-.964-6.3-2.786-8.124a7.313,7.313,0,0,0-5.392-2.114,7.969,7.969,0,0,0-7.406,4.966,1.057,1.057,0,0,1-1.33.538h0a1.07,1.07,0,0,1-.6-1.456,10.14,10.14,0,0,1,9.307-6.176,9.467,9.467,0,0,1,6.907,2.739c2.227,2.234,3.437,5.657,3.41,9.646-.04,5.019-2.154,9.234-5.6,11.3a1.064,1.064,0,0,1-1.489-.519Z" transform="translate(-129.427 -120.413)" fill="#f0f0f0"/>
          <path id="Path_51380" data-name="Path 51380" d="M392.747,268.246a1.064,1.064,0,0,1-1.436-.738c-.073-.286-.126-.585-.173-.891-.6-3.989,1.536-7.439,4.973-8.057a5.245,5.245,0,0,1,4.567,1.177,1.03,1.03,0,0,1-.086,1.609l-.067.047a1.057,1.057,0,0,1-1.33-.1,3.152,3.152,0,0,0-2.732-.665c-2.619.472-3.617,3.2-3.244,5.644a5.293,5.293,0,0,0,.14.665,1.07,1.07,0,0,1-.632,1.257Z" transform="translate(-131.075 -123.193)" fill="#f0f0f0"/>
          <path id="Path_51381" data-name="Path 51381" d="M398.449,275.325h0a.991.991,0,0,1-.745-1.509l.093-.146a.984.984,0,0,1,.911-.459,4.272,4.272,0,0,0,1-.06c2.287-.412,3.324-2.539,3.324-4.707a1.077,1.077,0,0,1,.9-1.09h0a1.064,1.064,0,0,1,1.223,1c.06,3.47-1.994,6.336-5.073,6.887a6.123,6.123,0,0,1-1.635.08Z" transform="translate(-133.261 -126.177)" fill="#f0f0f0"/>
          <path id="Path_51382" data-name="Path 51382" d="M398.442,270.674a2.579,2.579,0,0,1-2.287-1.948.957.957,0,0,1,1-1.19h.246a.964.964,0,0,1,.818.665.459.459,0,0,0,.406.346c.512.047.6-.665.612-.838a1.283,1.283,0,0,0-.14-.751,1.163,1.163,0,0,1-.266-.791h0a1.064,1.064,0,0,1,1.881-.592,3.171,3.171,0,0,1,.665,2.32A2.794,2.794,0,0,1,398.442,270.674Z" transform="translate(-132.781 -125.455)" fill="#f0f0f0"/>
          <path id="Path_51383" data-name="Path 51383" d="M369.042,232.421h0a1.057,1.057,0,0,1-.964-1.15l.8-9.221,9.221.811a1.057,1.057,0,0,1,.964,1.15h0a1.064,1.064,0,0,1-1.15.971l-7.1-.625-.618,7.1a1.064,1.064,0,0,1-1.157.964Z" transform="translate(-123.378 -110.995)" fill="#f0f0f0"/>
          <path id="Path_51384" data-name="Path 51384" d="M431.217,237.877h0a1.057,1.057,0,0,1-.964-1.15l.618-7.1-7.1-.618a1.063,1.063,0,0,1-.964-1.157h0a1.057,1.057,0,0,1,1.15-.964l9.221.8-.8,9.241a1.064,1.064,0,0,1-1.157.944Z" transform="translate(-141.724 -112.615)" fill="#f0f0f0"/>
          <path id="Path_51385" data-name="Path 51385" d="M425.412,312.769l-9.221-.8a1.064,1.064,0,0,1-.964-1.157h0a1.057,1.057,0,0,1,1.15-.964l7.1.618.618-7.093a1.064,1.064,0,0,1,1.157-.971h0a1.057,1.057,0,0,1,.964,1.15Z" transform="translate(-139.183 -137.926)" fill="#f0f0f0"/>
          <path id="Path_51386" data-name="Path 51386" d="M370.651,307.594l-9.221-.811.8-9.214a1.077,1.077,0,0,1,1.157-.971h0a1.064,1.064,0,0,1,.964,1.157l-.618,7.087,7.093.625a1.064,1.064,0,0,1,.971,1.15h0a1.07,1.07,0,0,1-1.15.977Z" transform="translate(-121.151 -135.983)" fill="#f0f0f0"/>
        </g>
        <g id="Group_55376" data-name="Group 55376" transform="translate(-30)">
          <rect id="Rectangle_26966" data-name="Rectangle 26966" width="22.018" height="0.166" transform="translate(277.075 228.352)" fill="#ebebeb"/>
          <rect id="Rectangle_26967" data-name="Rectangle 26967" width="5.777" height="0.166" transform="translate(214.418 230.16)" fill="#ebebeb"/>
          <rect id="Rectangle_26968" data-name="Rectangle 26968" width="12.758" height="0.166" transform="translate(263.653 222.183)" fill="#ebebeb"/>
          <rect id="Rectangle_26969" data-name="Rectangle 26969" width="28.713" height="0.166" transform="translate(34.876 223.299)" fill="#ebebeb"/>
          <rect id="Rectangle_26970" data-name="Rectangle 26970" width="4.208" height="0.166" transform="translate(69.512 223.299)" fill="#ebebeb"/>
          <rect id="Rectangle_26971" data-name="Rectangle 26971" width="62.278" height="0.166" transform="translate(87.401 226.105)" fill="#ebebeb"/>
          <path id="Path_51360" data-name="Path 51360" d="M171.759,243.005H43.386a3.8,3.8,0,0,1-3.8-3.8V58.763A3.8,3.8,0,0,1,43.386,55H171.759a3.8,3.8,0,0,1,3.8,3.8V239.209A3.8,3.8,0,0,1,171.759,243.005ZM43.386,55.133a3.636,3.636,0,0,0-3.63,3.63V239.209a3.636,3.636,0,0,0,3.63,3.63H171.759a3.636,3.636,0,0,0,3.63-3.63V58.763a3.636,3.636,0,0,0-3.63-3.63Z" transform="translate(-13.271 -55)" fill="#b7cee6"/>
          <rect id="Rectangle_26972" data-name="Rectangle 26972" width="332.4" height="0.166" transform="translate(0 217.655)" fill="#ebebeb"/>
          <path id="Path_51362" data-name="Path 51362" d="M105.124,310.588c-.558-6.422-7.113-8.822-14.885-8.144s-13.8,4.182-13.256,10.6Z" transform="translate(-25.793 -137.906)" fill="#f0f0f0"/>
          <path id="Path_51363" data-name="Path 51363" d="M93.72,291.495c3.6-.319,4.753-3.364,4.441-6.967s-1.994-6.4-5.584-6.09-4.753,3.364-4.441,6.967S90.117,291.807,93.72,291.495Z" transform="translate(-29.526 -129.889)" fill="#f0f0f0"/>
          <path id="Path_51387" data-name="Path 51387" d="M74.123,279.72h0a.665.665,0,0,1-.711-.6l-.492-5.664,5.664-.5a.665.665,0,0,1,.711.6h0a.665.665,0,0,1-.6.7l-4.361.386.379,4.361A.665.665,0,0,1,74.123,279.72Z" transform="translate(-24.442 -128.059)" fill="#e0e0e0"/>
          <path id="Path_51388" data-name="Path 51388" d="M112.158,276.365h0a.665.665,0,0,1-.711-.592l-.379-4.368-4.368.386a.665.665,0,0,1-.711-.6h0a.665.665,0,0,1,.6-.711l5.664-.492.5,5.664A.665.665,0,0,1,112.158,276.365Z" transform="translate(-35.526 -127.065)" fill="#e0e0e0"/>
          <path id="Path_51389" data-name="Path 51389" d="M116.251,313.131l-5.671.5a.665.665,0,0,1-.711-.6h0a.665.665,0,0,1,.6-.711l4.361-.379-.379-4.361a.665.665,0,0,1,.592-.711h0a.665.665,0,0,1,.711.592Z" transform="translate(-36.827 -139.426)" fill="#e0e0e0"/>
          <path id="Path_51390" data-name="Path 51390" d="M82.392,316.293l-5.644.492-.5-5.671a.665.665,0,0,1,.6-.7h0a.665.665,0,0,1,.7.592l.386,4.368,4.361-.386a.665.665,0,0,1,.711.6h0a.665.665,0,0,1-.618.711Z" transform="translate(-25.558 -140.613)" fill="#e0e0e0"/>
          <path id="Path_51391" data-name="Path 51391" d="M99.986,132.542,78.327,134.4l-.445-5.072a9.593,9.593,0,0,1,19.06-1.675l.253,2.952,3.131-.273-.259-2.952A12.726,12.726,0,1,0,74.71,129.6l.445,5.106a5.092,5.092,0,0,0-4.1,5.438l1.549,17.71a5.092,5.092,0,0,0,5.518,4.654l24.285-2.121a5.092,5.092,0,0,0,4.654-5.518l-1.549-17.71a5.092,5.092,0,0,0-5.531-4.62ZM90.772,146.19l.532,6.1a1.822,1.822,0,1,1-3.623.319l-.532-6.1a3.058,3.058,0,1,1,3.623-.312Z" transform="translate(-23.813 -75.369)" fill="#ebebeb"/>
          <path id="Path_51392" data-name="Path 51392" d="M160.327,140.059l-2.187-3.583a11.787,11.787,0,0,1-3.324,0l-2.194,3.57-.419-.113a16.241,16.241,0,0,1-4.055-1.682l-.372-.213.924-3.882a.585.585,0,0,1,.711-.432h0a.585.585,0,0,1,.432.7l-.731,3.025a15.426,15.426,0,0,0,2.972,1.237l2.141-3.5.392.066a11.82,11.82,0,0,0,3.749,0l.386-.066,2.141,3.5a15.084,15.084,0,0,0,2.972-1.237l-.951-3.989.319-.233a11.676,11.676,0,0,0,2.307-2.2.585.585,0,0,1,.8-.12h0a.578.578,0,0,1,.126.831,12.8,12.8,0,0,1-2.24,2.207l.977,4.075-.379.213a16.3,16.3,0,0,1-4.049,1.682Zm-13.442-7.8c-.18-.206-.359-.425-.532-.665l-4.075.977-.219-.372a16.754,16.754,0,0,1-1.682-4.055l-.106-.419,3.57-2.194a11.787,11.787,0,0,1,0-3.324l-3.57-2.187.106-.425a16.708,16.708,0,0,1,1.682-4.049l.219-.379,4.075.977a12.631,12.631,0,0,1,2.367-2.367l-.738-3.085a.585.585,0,0,1,.432-.7h0a.578.578,0,0,1,.7.432l.924,3.843-.319.226a11.681,11.681,0,0,0-2.659,2.659l-.233.319-3.989-.951a15.083,15.083,0,0,0-1.237,2.972l3.49,2.141-.06.386a10.636,10.636,0,0,0,0,3.749l.06.392-3.49,2.141a15.19,15.19,0,0,0,1.237,2.965l3.989-.951.233.319a10.733,10.733,0,0,0,.665.871.578.578,0,0,1,0,.8h0a.578.578,0,0,1-.838-.04Zm23.76.326-1.5-.359a.585.585,0,0,1-.432-.7h0a.585.585,0,0,1,.7-.432l.665.153a15.172,15.172,0,0,0,1.23-2.965l-3.49-2.141.066-.392a10.637,10.637,0,0,0,0-3.749l-.066-.386,3.49-2.141a15.059,15.059,0,0,0-1.23-2.972l-3.989.951-.226-.319a11.814,11.814,0,0,0-2.659-2.659l-.319-.226.951-3.989a15.059,15.059,0,0,0-2.972-1.23l-2.161,3.523-.386-.066a11.82,11.82,0,0,0-3.749,0l-.392.066-2.121-3.51-.4.12a.572.572,0,0,1-.718-.352h0a.585.585,0,0,1,.352-.758c.292-.093.592-.18.884-.259l.419-.113,2.194,3.577a11.3,11.3,0,0,1,3.324,0l2.187-3.577.425.113a16.554,16.554,0,0,1,4.049,1.682l.379.219-.977,4.075a12.464,12.464,0,0,1,2.367,2.367l4.075-.977.219.379a16.447,16.447,0,0,1,1.682,4.049l.113.425-3.577,2.187a11.175,11.175,0,0,1,0,3.324l3.577,2.194-.113.419a16.493,16.493,0,0,1-1.682,4.055ZM156.3,129.562a5.764,5.764,0,0,1-5.531-5.531,5.7,5.7,0,0,1,5.039-5.824.592.592,0,0,1,.665.585h0a.578.578,0,0,1-.512.572,4.527,4.527,0,1,0,4.221,1.9.565.565,0,0,1,.093-.758h0a.585.585,0,0,1,.871.106,5.691,5.691,0,0,1-4.84,8.948Z" transform="translate(-47.019 -72.655)" fill="#f0f0f0"/>
          <path id="Path_51393" data-name="Path 51393" d="M101.777,219.038l-1.416-2.307a7.351,7.351,0,0,1-2.161,0l-1.416,2.307-.273-.073a10.584,10.584,0,0,1-2.619-1.084l-.239-.14.6-2.513a.379.379,0,0,1,.452-.279h0a.379.379,0,0,1,.279.459l-.465,1.954a9.683,9.683,0,0,0,1.921.8l1.383-2.254.246.04a7.434,7.434,0,0,0,2.427,0l.246-.04,1.389,2.254a10.229,10.229,0,0,0,1.915-.8l-.612-2.566.206-.153a7.513,7.513,0,0,0,1.489-1.416.372.372,0,0,1,.519-.08h0a.379.379,0,0,1,.086.532,8.422,8.422,0,0,1-1.449,1.429l.665,2.659-.246.14a10.484,10.484,0,0,1-2.619,1.084Zm-8.682-5.046-.346-.419-2.659.625-.14-.239a10.583,10.583,0,0,1-1.057-2.626l-.073-.273,2.307-1.416a7.353,7.353,0,0,1,0-2.161l-2.307-1.416.073-.273a10.484,10.484,0,0,1,1.084-2.619l.14-.246,2.659.665a8.761,8.761,0,0,1,1.482-1.569l-.472-1.994a.372.372,0,0,1,.279-.452h0a.379.379,0,0,1,.452.279l.6,2.48-.213.153a7.44,7.44,0,0,0-1.709,1.709l-.153.206-2.566-.612a10.225,10.225,0,0,0-.8,1.915l2.254,1.383-.04.253a6.972,6.972,0,0,0,0,2.427l.04.246L89.678,211.4a10.1,10.1,0,0,0,.8,1.921l2.566-.618.153.206a6.181,6.181,0,0,0,.445.565.372.372,0,0,1,0,.512h0a.372.372,0,0,1-.545.007Zm15.35.206-.971-.226a.379.379,0,0,1-.279-.459h0a.372.372,0,0,1,.452-.279l.419.1a9.687,9.687,0,0,0,.8-1.921l-2.254-1.383.04-.246a6.971,6.971,0,0,0,0-2.427l-.04-.253,2.254-1.383a9.8,9.8,0,0,0-.8-1.915l-2.566.612-.153-.206a7.439,7.439,0,0,0-1.709-1.709l-.206-.153.612-2.566a9.8,9.8,0,0,0-1.915-.8l-1.389,2.254-.246-.04a7.434,7.434,0,0,0-2.427,0l-.246.04-1.383-2.254-.259.08a.372.372,0,0,1-.465-.233h0a.372.372,0,0,1,.226-.485l.572-.173.273-.066,1.416,2.307a7.353,7.353,0,0,1,2.161,0l1.416-2.307.273.066a10.754,10.754,0,0,1,2.619,1.09l.246.14-.665,2.659a8.535,8.535,0,0,1,1.529,1.529l2.659-.665.14.246a10.484,10.484,0,0,1,1.084,2.619l.073.273-2.307,1.416a7.353,7.353,0,0,1,0,2.161l2.307,1.416-.073.273a10.583,10.583,0,0,1-1.084,2.619Zm-9.267-1.948a3.683,3.683,0,0,1-.319-7.313.386.386,0,0,1,.425.379h0a.372.372,0,0,1-.332.372,2.925,2.925,0,1,0,3.258,2.905,2.885,2.885,0,0,0-.532-1.675.379.379,0,0,1,.06-.492h0a.379.379,0,0,1,.565.067,3.683,3.683,0,0,1-3.125,5.784Z" transform="translate(-29.772 -102.971)" fill="#e6e6e6"/>
        </g>
      </g>
      <g id="freepik--Device--inject-2" transform="translate(138.386 115.382)">
        <path id="Path_51394" data-name="Path 51394" d="M344.826,145.829H323.18L307.89,320.838h21.646a12.445,12.445,0,0,0,12.139-11.169l13.356-152.678a10.072,10.072,0,0,0-10.2-11.162Z" transform="translate(-241.591 -145.827)" fill="#b7cee6"/>
        <path id="Path_51395" data-name="Path 51395" d="M306.983,145.829H233.722a12.445,12.445,0,0,0-12.146,11.162L208.22,309.669a10.085,10.085,0,0,0,10.191,11.169h73.254a12.452,12.452,0,0,0,12.119-11.169l13.356-152.678a10.072,10.072,0,0,0-10.158-11.162Z" transform="translate(-208.162 -145.828)" fill="#407bff"/>
        <path id="Path_51396" data-name="Path 51396" d="M306.983,145.829H233.722a12.445,12.445,0,0,0-12.146,11.162L208.22,309.669a10.085,10.085,0,0,0,10.191,11.169h73.254a12.452,12.452,0,0,0,12.119-11.169l13.356-152.678a10.072,10.072,0,0,0-10.158-11.162Z" transform="translate(-208.162 -145.828)" fill="#cfe1f5"/>
        <path id="Path_51397" data-name="Path 51397" d="M308.483,151.209H289.164a2.879,2.879,0,0,0-2.659,1.835h0a10.637,10.637,0,0,1-9.726,6.8H265.384a8.556,8.556,0,0,1-8.543-6.781h0a2.307,2.307,0,0,0-2.307-1.835H235.222a8.443,8.443,0,0,0-8.25,7.585L213.609,311.493a6.841,6.841,0,0,0,6.927,7.592H293.8a8.45,8.45,0,0,0,8.25-7.592L315.4,158.815a6.841,6.841,0,0,0-6.921-7.605Z" transform="translate(-209.974 -147.631)" fill="#fff"/>
        <path id="Path_51398" data-name="Path 51398" d="M301.755,271.743H250.486a2.486,2.486,0,0,1-2.513-2.752l.259-2.938a3.065,3.065,0,0,1,2.992-2.752H302.5a2.486,2.486,0,0,1,2.513,2.752l-.253,2.938A3.072,3.072,0,0,1,301.755,271.743Z" transform="translate(-221.502 -185.204)" fill="#fff"/>
        <path id="Path_51399" data-name="Path 51399" d="M300.095,290.743H248.819a2.48,2.48,0,0,1-2.506-2.752l.253-2.938a3.071,3.071,0,0,1,2.992-2.752h51.276a2.486,2.486,0,0,1,2.513,2.752l-.259,2.938A3.071,3.071,0,0,1,300.095,290.743Z" transform="translate(-220.945 -191.573)" fill="#fff"/>
        <path id="Path_51400" data-name="Path 51400" d="M302.361,153.971a3.4,3.4,0,0,1-3.324,3.051,2.752,2.752,0,0,1-2.785-3.051,3.4,3.4,0,0,1,3.324-3.051,2.752,2.752,0,0,1,2.786,3.051Z" transform="translate(-237.684 -147.534)" opacity="0.1"/>
        <path id="Path_51401" data-name="Path 51401" d="M301.683,154.669a1.861,1.861,0,0,1-1.815,1.669,1.5,1.5,0,0,1-1.522-1.669A1.855,1.855,0,0,1,300.16,153a1.509,1.509,0,0,1,1.522,1.669Z" transform="translate(-238.388 -148.231)" opacity="0.1"/>
        <g id="Group_55365" data-name="Group 55365" transform="translate(88.665 5.905)" opacity="0.8">
          <path id="Path_51402" data-name="Path 51402" d="M342.355,161.444h0a.811.811,0,0,1-.818-.9l.146-1.635a.991.991,0,0,1,.971-.891h0a.811.811,0,0,1,.818.891l-.146,1.635A1,1,0,0,1,342.355,161.444Z" transform="translate(-341.533 -155.819)" fill="#fff"/>
          <path id="Path_51403" data-name="Path 51403" d="M353.115,160.334h0a.811.811,0,0,1-.818-.9l.339-3.836a.991.991,0,0,1,.971-.891h0a.811.811,0,0,1,.818.891l-.339,3.836A1,1,0,0,1,353.115,160.334Z" transform="translate(-345.14 -154.71)" fill="#fff"/>
          <path id="Path_51404" data-name="Path 51404" d="M347.735,160.887h0a.811.811,0,0,1-.818-.9l.239-2.732a1,1,0,0,1,.977-.9h0a.8.8,0,0,1,.811.9l-.239,2.732a1,1,0,0,1-.971.9Z" transform="translate(-343.336 -155.263)" fill="#fff"/>
        </g>
        <g id="Group_55366" data-name="Group 55366" transform="translate(23.284 8.106)" opacity="0.8">
          <path id="Path_51405" data-name="Path 51405" d="M248.141,161.444h-4.494a.452.452,0,0,1-.459-.505l.206-2.413a.565.565,0,0,1,.552-.505h4.494a.452.452,0,0,1,.459.505l-.213,2.413A.552.552,0,0,1,248.141,161.444Z" transform="translate(-243.185 -158.02)" fill="#fff"/>
          <path id="Path_51406" data-name="Path 51406" d="M253.534,161.114h0a.459.459,0,0,1-.465-.505l.1-1.1a.558.558,0,0,1,.552-.505h0a.452.452,0,0,1,.459.505l-.093,1.1a.565.565,0,0,1-.552.505Z" transform="translate(-246.497 -158.348)" fill="#fff"/>
        </g>
        <ellipse id="Ellipse_18" data-name="Ellipse 18" cx="22.424" cy="20.542" rx="22.424" ry="20.542" transform="translate(27.196 53.042) rotate(-43.75)" fill="#fff"/>
        <path id="Path_51407" data-name="Path 51407" d="M289.242,223.38c-5.637,0-10.4,2.147-10.81,6.808l-.452,5.179h20.429l.452-5.179C299.267,225.527,294.886,223.38,289.242,223.38Z" transform="translate(-231.565 -171.823)" fill="url(#linear-gradient)"/>
        <path id="Path_51408" data-name="Path 51408" d="M293.556,215.39c2.619,0,3.829-2.121,4.055-4.74s-.6-4.74-3.224-4.74-3.823,2.127-4.055,4.74S290.936,215.39,293.556,215.39Z" transform="translate(-235.693 -165.967)" fill="url(#linear-gradient)"/>
        <path id="Path_51409" data-name="Path 51409" d="M323.962,269.38c-1.389,0-2.566.532-2.659,1.682l-.113,1.283h5.046l.113-1.283C326.442,269.912,325.358,269.38,323.962,269.38Z" transform="translate(-246.049 -187.242)" fill="#329df9"/>
        <path id="Path_51410" data-name="Path 51410" d="M325.023,267.41c.665,0,.944-.525,1-1.17s-.153-1.17-.8-1.17-.944.525-1,1.17S324.378,267.41,325.023,267.41Z" transform="translate(-247.063 -185.797)" fill="#329df9"/>
        <path id="Path_51411" data-name="Path 51411" d="M289.989,309.743H270.045a3.809,3.809,0,0,1-3.856-4.222h0a4.707,4.707,0,0,1,4.594-4.221h19.944a3.816,3.816,0,0,1,3.856,4.221h0a4.7,4.7,0,0,1-4.594,4.222Z" transform="translate(-227.605 -197.942)" fill="url(#linear-gradient)"/>
        <path id="Path_51412" data-name="Path 51412" d="M285.541,372.471H264.194a3.989,3.989,0,0,1-4.069-4.461l1.363-15.57a4.959,4.959,0,0,1,4.846-4.461h21.353a4.022,4.022,0,0,1,4.068,4.461l-1.363,15.57A4.973,4.973,0,0,1,285.541,372.471Z" transform="translate(-225.571 -213.589)" fill="url(#linear-gradient)"/>
        <g id="Group_55367" data-name="Group 55367" transform="translate(48.011 140.121)" opacity="0.6">
          <path id="Path_51413" data-name="Path 51413" d="M285.758,359.259a2.413,2.413,0,0,0-2.447-2.659,2.978,2.978,0,0,0-2.918,2.659,2.427,2.427,0,0,0,.9,2.147l-.465,5.365a1.436,1.436,0,0,0,1.456,1.6,1.775,1.775,0,0,0,1.728-1.6l.472-5.365a2.965,2.965,0,0,0,1.276-2.147Z" transform="translate(-280.38 -356.599)" fill="#fff"/>
        </g>
        <path id="Path_51414" data-name="Path 51414" d="M290.634,343.353h-2.752l.665-7.705a7.585,7.585,0,0,0-7.665-8.4,9.367,9.367,0,0,0-9.134,8.4l-.665,7.705H268.33l.665-7.705A12.418,12.418,0,0,1,281.114,324.5a10.065,10.065,0,0,1,10.178,11.149Z" transform="translate(-228.33 -205.718)" fill="url(#linear-gradient)"/>
        <path id="Path_51415" data-name="Path 51415" d="M324.112,286.061l.086-.751a1.243,1.243,0,0,0-1.25-1.37,1.529,1.529,0,0,0-1.489,1.37l-.066.738a.612.612,0,0,0-.592.552l-.173,1.994a.485.485,0,0,0,.5.545h2.739a.6.6,0,0,0,.592-.545l.173-1.994a.5.5,0,0,0-.518-.538Zm-1.243-1.768a.937.937,0,0,1,.944,1.03l-.066.738h-2.061l.067-.738A1.15,1.15,0,0,1,322.868,284.292Z" transform="translate(-245.859 -192.123)" fill="#329df9"/>
        <path id="Path_51416" data-name="Path 51416" d="M261.8,287.486l-.957-.2a.179.179,0,0,1-.126-.253l.4-.944a.186.186,0,0,0-.312-.193l-.725.745a.186.186,0,0,1-.293,0l-.592-.745c-.126-.16-.4,0-.352.193l.233.944a.206.206,0,0,1-.166.253l-.991.2c-.213.04-.239.339-.033.379l.957.2a.173.173,0,0,1,.12.253l-.386.951a.186.186,0,0,0,.312.193l.725-.745a.2.2,0,0,1,.292,0l.592.745c.126.159.4,0,.346-.193l-.233-.944a.219.219,0,0,1,.173-.253l.991-.2C261.984,287.825,262.011,287.526,261.8,287.486Z" transform="translate(-224.783 -192.757)" fill="#263238"/>
        <path id="Path_51417" data-name="Path 51417" d="M271.264,287.486l-.957-.2a.179.179,0,0,1-.126-.253l.4-.944a.186.186,0,0,0-.312-.193l-.725.745a.186.186,0,0,1-.292,0l-.592-.745c-.126-.16-.4,0-.346.193l.233.944a.213.213,0,0,1-.173.253l-.991.2c-.213.04-.239.339-.033.379l.957.2a.18.18,0,0,1,.126.253l-.4.944a.186.186,0,0,0,.312.193l.725-.745a.2.2,0,0,1,.293,0l.592.745c.126.16.4,0,.352-.193l-.233-.944a.213.213,0,0,1,.166-.253l.991-.2C271.444,287.825,271.471,287.526,271.264,287.486Z" transform="translate(-227.954 -192.757)" fill="#263238"/>
        <path id="Path_51418" data-name="Path 51418" d="M280.728,287.474l-.951-.2a.173.173,0,0,1-.126-.253l.4-.944a.186.186,0,0,0-.319-.193l-.718.745a.193.193,0,0,1-.3,0l-.592-.745c-.126-.16-.4,0-.346.193l.233.944a.213.213,0,0,1-.166.253l-.991.2c-.213.04-.239.339-.033.379l.951.2a.179.179,0,0,1,.126.253l-.4.944a.186.186,0,0,0,.319.193l.718-.745a.2.2,0,0,1,.293,0l.6.745c.126.16.4,0,.346-.193l-.233-.944a.219.219,0,0,1,.166-.253l.991-.2C280.881,287.813,280.934,287.513,280.728,287.474Z" transform="translate(-231.128 -192.744)" fill="#263238"/>
        <path id="Path_51419" data-name="Path 51419" d="M290.2,287.486l-.957-.2a.18.18,0,0,1-.126-.253l.4-.944a.186.186,0,0,0-.312-.193l-.725.745a.186.186,0,0,1-.293,0l-.592-.745c-.126-.16-.4,0-.352.193l.233.944a.206.206,0,0,1-.166.253l-.991.2a.191.191,0,0,0,0,.379l.957.2a.173.173,0,0,1,.12.253l-.392.944a.186.186,0,0,0,.313.193l.725-.745a.2.2,0,0,1,.292,0l.592.745c.126.16.4,0,.346-.193l-.233-.944a.219.219,0,0,1,.173-.253l.991-.2A.2.2,0,0,0,290.2,287.486Z" transform="translate(-234.302 -192.757)" fill="#263238"/>
        <path id="Path_51420" data-name="Path 51420" d="M299.655,287.486l-.957-.2a.179.179,0,0,1-.126-.253l.4-.944a.186.186,0,0,0-.312-.193l-.725.745a.186.186,0,0,1-.293,0l-.592-.745c-.126-.16-.4,0-.346.193l.233.944a.213.213,0,0,1-.173.253l-.991.2c-.213.04-.239.339-.033.379l.957.2a.179.179,0,0,1,.126.253l-.4.944a.186.186,0,0,0,.312.193l.725-.745a.2.2,0,0,1,.293,0l.592.745c.126.16.4,0,.352-.193l-.233-.944a.213.213,0,0,1,.166-.253l.991-.2A.193.193,0,0,0,299.655,287.486Z" transform="translate(-237.47 -192.757)" fill="#263238"/>
        <path id="Path_51421" data-name="Path 51421" d="M309.118,287.474l-.957-.2a.173.173,0,0,1-.12-.253l.4-.944a.186.186,0,1,0-.319-.193l-.718.745a.193.193,0,0,1-.3,0l-.592-.745c-.126-.16-.4,0-.346.193l.233.944a.213.213,0,0,1-.166.253l-.991.2c-.213.04-.239.339-.033.379l.951.2a.18.18,0,0,1,.126.253l-.4.944a.186.186,0,1,0,.319.193l.718-.745a.2.2,0,0,1,.292,0l.592.745a.206.206,0,0,0,.352-.193l-.233-.944a.219.219,0,0,1,.166-.253l.991-.2C309.3,287.813,309.324,287.513,309.118,287.474Z" transform="translate(-240.645 -192.744)" fill="#263238"/>
        <path id="Path_51422" data-name="Path 51422" d="M281.662,267.61H269.856a1.483,1.483,0,0,0-1.449,1.33,1.2,1.2,0,0,0,1.217,1.33H281.43a1.483,1.483,0,0,0,1.449-1.33,1.2,1.2,0,0,0-1.217-1.33Z" transform="translate(-228.353 -186.649)" fill="#263238"/>
        <path id="Path_51423" data-name="Path 51423" d="M302.2,267.61h-6.854a1.476,1.476,0,0,0-1.443,1.33,1.2,1.2,0,0,0,1.21,1.33h6.828a1.476,1.476,0,0,0,1.443-1.33,1.2,1.2,0,0,0-1.183-1.33Z" transform="translate(-236.901 -186.649)" fill="#263238"/>
        <path id="Path_51424" data-name="Path 51424" d="M310.953,358.19a30.108,30.108,0,0,0-11.029,7.313,13.1,13.1,0,0,0-6.469-2.659l-.312-.047-.133,1.569.173.066a12.186,12.186,0,0,1,6.2,5.106l.226.372.246-.4a28.892,28.892,0,0,1,11.248-10.344l.153-.08.086-1.037Z" transform="translate(-236.603 -216.964)" fill="#303134"/>
      </g>
      <g id="freepik--Document--inject-2" transform="translate(92.407 116.866)">
        <path id="Path_51425" data-name="Path 51425" d="M224.878,161.37a11.966,11.966,0,0,0-1.529,4.82l-9.9,113.162h30.634l6.156-23.594-2.028-23.6,6.156-23.594-1.994-23.594,6.156-23.6Z" transform="translate(-163.956 -152.521)" opacity="0.2"/>
        <path id="Path_51426" data-name="Path 51426" d="M224.729,174.97l6.156-23.6H153.416l-6.149,23.6,2.021,23.594-6.149,23.594,2.021,23.6-6.149,23.594h77.462l6.156-23.594-2.028-23.6,6.156-23.594Z" transform="translate(-139.003 -149.169)" fill="#329df9"/>
        <path id="Path_51427" data-name="Path 51427" d="M224.729,174.97l6.156-23.6H153.416l-6.149,23.6,2.021,23.594-6.149,23.594,2.021,23.6-6.149,23.594h77.462l6.156-23.594-2.028-23.6,6.156-23.594Z" transform="translate(-139.003 -149.169)" fill="#fff" opacity="0.7"/>
        <path id="Path_51428" data-name="Path 51428" d="M228.892,174.97H151.43l6.149-23.6h77.469Z" transform="translate(-143.167 -149.169)" fill="#fff" opacity="0.5"/>
        <path id="Path_51429" data-name="Path 51429" d="M222.682,245.954H145.22l6.149-23.594h77.469Z" transform="translate(-141.085 -172.965)" fill="#fff" opacity="0.5"/>
        <path id="Path_51430" data-name="Path 51430" d="M216.469,316.944H139l6.156-23.594h77.469Z" transform="translate(-139 -196.761)" fill="#fff" opacity="0.5"/>
        <path id="Path_51431" data-name="Path 51431" d="M227.991,201.449a8.468,8.468,0,0,1-2.446.332,6.814,6.814,0,0,1-3.251-.665,1.19,1.19,0,0,0-.6-.166h0a1.2,1.2,0,0,0-.558.146h-.04a3.927,3.927,0,0,1-.944.379,8.643,8.643,0,0,1-2.28.286H217.2a8.045,8.045,0,0,1-1.762-.312,1.188,1.188,0,0,0-.259-.047,1.064,1.064,0,0,0-1.15,1.057h0v.718H183.875a4.215,4.215,0,0,0-4.215,4.221v4.248a4.215,4.215,0,0,0,4.215,4.228h34.483c.366.306.751.612,1.163.924s1,.745,1.536,1.13a1.077,1.077,0,0,0,1.263,0c4.308-3.125,7.073-5.279,7.073-11.2v-4.255a1.07,1.07,0,0,0-1.4-1.03Z" transform="translate(-152.629 -165.788)" opacity="0.2"/>
        <rect id="Rectangle_26973" data-name="Rectangle 26973" width="42.693" height="12.691" rx="6.346" transform="translate(26.373 35.055)" fill="#329df9"/>
        <path id="Path_51432" data-name="Path 51432" d="M241.864,198.26a6.854,6.854,0,0,1-3.251-.665,1.143,1.143,0,0,0-1.2,0,6.86,6.86,0,0,1-3.258.665,8.5,8.5,0,0,1-2.446-.332,1.064,1.064,0,0,0-1.4,1.01v4.255c0,5.923,2.766,8.077,7.073,11.2a1.077,1.077,0,0,0,1.263,0c4.308-3.125,7.073-5.279,7.073-11.2v-4.255a1.07,1.07,0,0,0-1.409-1.01,8.471,8.471,0,0,1-2.446.332Z" transform="translate(-169.607 -164.607)" fill="#407bff"/>
        <path id="Path_51433" data-name="Path 51433" d="M241.864,198.26a6.854,6.854,0,0,1-3.251-.665,1.143,1.143,0,0,0-1.2,0,6.86,6.86,0,0,1-3.258.665,8.5,8.5,0,0,1-2.446-.332,1.064,1.064,0,0,0-1.4,1.01v4.255c0,5.923,2.766,8.077,7.073,11.2a1.077,1.077,0,0,0,1.263,0c4.308-3.125,7.073-5.279,7.073-11.2v-4.255a1.07,1.07,0,0,0-1.409-1.01,8.471,8.471,0,0,1-2.446.332Z" transform="translate(-169.607 -164.607)" fill="url(#linear-gradient)"/>
        <path id="Path_51434" data-name="Path 51434" d="M237.417,197.573a6.861,6.861,0,0,1-3.258.665,8.536,8.536,0,0,1-2.446-.332,1.064,1.064,0,0,0-1.4,1.011v4.255c0,5.923,2.766,8.077,7.073,11.2a1.084,1.084,0,0,0,.665.206V197.4A1.157,1.157,0,0,0,237.417,197.573Z" transform="translate(-169.607 -164.598)" fill="#fff" opacity="0.2"/>
        <path id="Path_51435" data-name="Path 51435" d="M245.505,204.337a17.285,17.285,0,0,0-6.728,4.74,9.267,9.267,0,0,0-4.341-1.735h-.206v1.017l.113.04a8.9,8.9,0,0,1,4.308,3.324l.166.239.14-.259a16.494,16.494,0,0,1,6.695-6.7l.1-.047v-.665Z" transform="translate(-170.921 -166.908)" fill="#263238"/>
        <path id="Path_51436" data-name="Path 51436" d="M272.3,156.9h-2.938a2.659,2.659,0,0,1-2.692-2.952l.259-2.938a3.277,3.277,0,0,1,3.2-2.952h2.938a2.659,2.659,0,0,1,2.7,2.952l-.259,2.938A3.324,3.324,0,0,1,272.3,156.9Z" transform="translate(-181.79 -148.059)" fill="#329df9"/>
        <path id="Path_51437" data-name="Path 51437" d="M274.667,152.135l-.638-.7-1.609,1.476-1.343-1.476-.765.7,1.35,1.476-1.6,1.476.638.7,1.6-1.476,1.349,1.476.758-.7-1.35-1.476Z" transform="translate(-182.931 -149.189)" fill="#fff"/>
      </g>
      <g id="freepik--Character--inject-2" transform="translate(71.815 120.12)">
        <path id="Path_51438" data-name="Path 51438" d="M173.655,199.49c1.7,1.855,3.324,3.776,4.939,5.711s3.178,3.909,4.733,5.89c.066.086.04.053.053.08s0,.033,0,.04a.24.24,0,0,0,.047.066.744.744,0,0,0,.485.306.844.844,0,0,0,.226,0,.764.764,0,0,0,.12,0h.06c.033,0,0,0,.106-.04l1.662-.9c2.234-1.183,4.487-2.34,6.814-3.377l1.948,2.413c-1.875,1.722-3.829,3.882-5.8,5.465l-1.489,1.17a2.525,2.525,0,0,1-.293.206,3.385,3.385,0,0,1-.352.219,7.07,7.07,0,0,1-.745.372,6.555,6.555,0,0,1-1.609.445,6.874,6.874,0,0,1-3.324-.332,6.647,6.647,0,0,1-1.529-.778,5.934,5.934,0,0,1-.665-.525c-.113-.093-.206-.2-.312-.3l-.266-.266c-1.762-1.808-3.5-3.63-5.2-5.485s-3.384-3.723-4.993-5.664Z" transform="translate(-128.219 -168.553)" fill="#b55b52"/>
        <path id="Path_51439" data-name="Path 51439" d="M204,210.869l1.549-4.979,4.082,2.034s-.6,3.63-3.563,4.261Z" transform="translate(-140.196 -170.698)" fill="#b55b52"/>
        <path id="Path_51440" data-name="Path 51440" d="M207.955,203.82l3.683,1.01-1.237,2.4L206.32,205.2Z" transform="translate(-140.973 -170.004)" fill="#b55b52"/>
        <path id="Path_51441" data-name="Path 51441" d="M139.044,200.669c-.439,2.114-.984,4.208-1.549,6.3s-1.183,4.155-1.828,6.223l-.239.778-.12.386a.765.765,0,0,1-.066.16,2.221,2.221,0,0,0-.126.665,2.36,2.36,0,0,0,.386,1.363,4.209,4.209,0,0,0,.432.5l.552.6,1.09,1.217c.711.824,1.429,1.649,2.107,2.513l-2.32,2.659c-.957-.545-1.875-1.137-2.792-1.722l-1.363-.9-.665-.459c-.226-.16-.412-.266-.778-.565a7.745,7.745,0,0,1-2.553-4.288,8.263,8.263,0,0,1-.126-2.593,4.59,4.59,0,0,1,.1-.665l.073-.4.14-.8c.372-2.134.771-4.261,1.217-6.375s.924-4.221,1.489-6.3Z" transform="translate(-115.068 -168.375)" fill="#b55b52"/>
        <path id="Path_51442" data-name="Path 51442" d="M141.63,231.643l2.739-1.4,1.21,4.654a4.844,4.844,0,0,1-3.9-.239Z" transform="translate(-119.289 -178.86)" fill="#b55b52"/>
        <path id="Path_51443" data-name="Path 51443" d="M149.432,227.99l.126,4.281-3.065,2-1.064-4.7Z" transform="translate(-120.563 -178.106)" fill="#b55b52"/>
        <path id="Path_51444" data-name="Path 51444" d="M164.931,168.133c.066.326.3.558.512.519s.339-.346.273-.665-.3-.558-.512-.519S164.865,167.82,164.931,168.133Z" transform="translate(-127.094 -157.817)" fill="#263238"/>
        <path id="Path_51445" data-name="Path 51445" d="M165.34,169.32a12.1,12.1,0,0,0,2.147,2.5,1.941,1.941,0,0,1-1.516.618Z" transform="translate(-127.237 -158.44)" fill="#a02724"/>
        <path id="Path_51446" data-name="Path 51446" d="M162.471,165.583a.2.2,0,0,1-.146-.332,1.994,1.994,0,0,1,1.682-.665.2.2,0,0,1,.16.233.193.193,0,0,1-.226.16h0a1.562,1.562,0,0,0-1.33.532A.213.213,0,0,1,162.471,165.583Z" transform="translate(-126.209 -156.85)" fill="#263238"/>
        <path id="Path_51447" data-name="Path 51447" d="M149.94,175.44c.731,3.051,1.469,8.642-1.15,10.67,0,0,1.024,3.1,7.978,3.1,7.645,0,3.656-1.994,3.656-1.994-4.175-.811-4.069-4.434-3.324-6.808Z" transform="translate(-121.689 -160.491)" fill="#b55b52"/>
        <path id="Path_51448" data-name="Path 51448" d="M147.293,190.971c-.452-.844-.957-1.815.08-2.121,1.143-.332,8.476-.951,10.637-.326-.665,1.177.459,2.659.459,2.659Z" transform="translate(-121.01 -164.787)" fill="#263238"/>
        <path id="Path_51449" data-name="Path 51449" d="M156.7,402.053h4.793l.479-9.653h-4.8Z" transform="translate(-124.341 -233.216)" fill="#b55b52"/>
        <path id="Path_51450" data-name="Path 51450" d="M110.91,400.123l4.86.259,2.952-9.513-4.86-.259Z" transform="translate(-108.992 -232.616)" fill="#b55b52"/>
        <path id="Path_51451" data-name="Path 51451" d="M114.656,404.226l-4.58-.991a.359.359,0,0,0-.406.2l-1.589,3.45a.6.6,0,0,0,.439.851c1.6.319,2.4.392,4.414.831,1.237.266,4.035.951,5.744,1.33s2.3-1.27,1.635-1.576c-2.992-1.363-4.241-2.566-5.052-3.69A1.031,1.031,0,0,0,114.656,404.226Z" transform="translate(-108.025 -236.845)" fill="#263238"/>
        <path id="Path_51452" data-name="Path 51452" d="M160.632,406.19h-4.554a.366.366,0,0,0-.352.286l-.824,3.7a.6.6,0,0,0,.6.745c1.642,0,3.989-.126,6.083-.126,2.413,0,4.494.133,7.313.133,1.709,0,2.187-1.728,1.469-1.888-3.264-.711-5.923-.791-8.742-2.526A1.955,1.955,0,0,0,160.632,406.19Z" transform="translate(-123.732 -237.839)" fill="#263238"/>
        <path id="Path_51453" data-name="Path 51453" d="M133.4,193.41c-3.617,1.722-4.6,12.159-4.6,12.159l8.955,4.135a17.138,17.138,0,0,0,2.393-8.423C140.328,195.89,137.1,191.675,133.4,193.41Z" transform="translate(-114.989 -166.382)" fill="#263238"/>
        <path id="Path_51454" data-name="Path 51454" d="M142.348,203.29c-1.615,2.513-1.463,6.4-.9,9.673l.4.186a17.171,17.171,0,0,0,2.393-8.423v-.951Z" transform="translate(-119.097 -169.827)" opacity="0.4"/>
        <path id="Path_51455" data-name="Path 51455" d="M161.524,192.579s4.441,5.013.246,36.032H139.48c-.153-3.424,1.994-20.117-1.33-36.245a58.639,58.639,0,0,1,7.459-.944,83.462,83.462,0,0,1,9.48,0A42.547,42.547,0,0,1,161.524,192.579Z" transform="translate(-118.123 -165.803)" fill="#407bff"/>
        <path id="Path_51456" data-name="Path 51456" d="M161.524,192.579s4.441,5.013.246,36.032H139.48c-.153-3.424,1.994-20.117-1.33-36.245a58.639,58.639,0,0,1,7.459-.944,83.462,83.462,0,0,1,9.48,0A42.547,42.547,0,0,1,161.524,192.579Z" transform="translate(-118.123 -165.803)" fill="#fafafa" opacity="0.6"/>
        <path id="Path_51457" data-name="Path 51457" d="M173.941,206.26l-.08-.073-4.434-2.367a16.711,16.711,0,0,0,4.414,12.977A95.32,95.32,0,0,0,173.941,206.26Z" transform="translate(-128.592 -170.004)" opacity="0.2"/>
        <path id="Path_51458" data-name="Path 51458" d="M162.086,392.4l-.246,4.979h-4.8l.246-4.979Z" transform="translate(-124.455 -233.216)" opacity="0.2"/>
        <path id="Path_51459" data-name="Path 51459" d="M114.582,390.62l4.86.253-1.522,4.906-4.86-.259Z" transform="translate(-109.712 -232.62)" opacity="0.2"/>
        <path id="Path_51460" data-name="Path 51460" d="M148.093,167.163c1.07,3.989,1.5,6.389,3.989,8.051,3.71,2.5,8.323-.372,8.47-4.607.126-3.809-1.642-9.706-5.93-10.51a5.644,5.644,0,0,0-6.528,7.067Z" transform="translate(-121.385 -155.312)" fill="#b55b52"/>
        <path id="Path_51461" data-name="Path 51461" d="M145.208,247.43s-4.733,31.85-7.313,43.79c-2.859,13.1-18.109,56.309-18.109,56.309l-7.466-1.615s9.566-35.234,11.966-53.5c.931-7.133,2.054-18.614,3.477-28.207,1.376-9.307,3.071-16.766,3.071-16.766Z" transform="translate(-109.464 -184.622)" fill="#263238"/>
        <path id="Path_51462" data-name="Path 51462" d="M121.306,393.422l-1.4,2.7-8.39-1.822.7-2.52Z" transform="translate(-109.196 -233.008)" fill="#407bff"/>
        <path id="Path_51463" data-name="Path 51463" d="M121.306,393.422l-1.4,2.7-8.39-1.822.7-2.52Z" transform="translate(-109.196 -233.008)" fill="#fff" opacity="0.6"/>
        <path id="Path_51464" data-name="Path 51464" d="M154.947,264.477c-5.471,1.07-4.893,21.473-4.235,31.964,1.582-7.419,3.889-21.686,5.465-31.817a1.862,1.862,0,0,0-1.23-.146Z" transform="translate(-122.196 -190.321)" opacity="0.6"/>
        <path id="Path_51465" data-name="Path 51465" d="M166.292,247.427s2.227,31.166,1.775,43.877c-.472,13.223-6.741,56.508-6.741,56.508h-7.06s-.259-42.547-.572-55.5c-.346-14.16-2.054-44.887-2.054-44.887Z" transform="translate(-122.644 -184.619)" fill="#263238"/>
        <path id="Path_51466" data-name="Path 51466" d="M163.6,394.21c.033,0-.4,2.932-.4,2.932h-8.589l-.233-2.619Z" transform="translate(-123.563 -233.823)" fill="#407bff"/>
        <path id="Path_51467" data-name="Path 51467" d="M163.6,394.21c.033,0-.4,2.932-.4,2.932h-8.589l-.233-2.619Z" transform="translate(-123.563 -233.823)" fill="#fff" opacity="0.6"/>
        <path id="Path_51468" data-name="Path 51468" d="M169.4,199.052c0,8.363,4.447,11.807,4.447,11.807l7.253-7.06a59.7,59.7,0,0,0-5.844-8.13C171.062,190.862,169.4,193.68,169.4,199.052Z" transform="translate(-128.598 -166.446)" fill="#263238"/>
        <path id="Path_51469" data-name="Path 51469" d="M164.673,178.24a2.726,2.726,0,0,1-1.875,1.728,2.247,2.247,0,0,0-1.788,1.994h0a5.757,5.757,0,0,0,3.663-3.723Z" transform="translate(-125.785 -161.43)" opacity="0.2"/>
        <path id="Path_51470" data-name="Path 51470" d="M155.542,156.86c1.489-1.881-.8-1.994-.8-1.994.6-2.24-2.087-1.037-2.087-1.037-1.609-2.22-2.52.485-2.52.485-1.669-1.881-1.994,1.19-1.994,1.19-1.675-2.387-2.526,1.057-2.526,1.057-1.542-2.48-2.486.745-2.486.745-3.184-1.137-1.675,2.174-1.675,2.174-2.712.073-.532,2.181-.532,2.181-3.258,0-.386,1.868-.386,1.868-2.586,1.7.665,2.154.665,2.154-2.107,3.324,1.516,2.074,1.516,2.074-1.469,3.271,1.782,1.828,1.782,1.828-.206,3.151,1.609,2.294,2.486,1.709.166.665.485,1.33,1.07,1.383,1.137.153,1.33-1.994,1.33-1.994s1.05.824,1.935.379.552-1.569.552-1.569a1.11,1.11,0,0,0,1.33,0c.379-.293.379-2.407-.1-3.151l1.728-.665s1.283-.18.711-1.875a4.933,4.933,0,0,1-.086-3.025c1.955-.917.346-1.994.346-1.994C158.061,157.326,155.542,156.86,155.542,156.86Z" transform="translate(-118.529 -152.954)" fill="#263238"/>
        <path id="Path_51471" data-name="Path 51471" d="M158.4,170a4.654,4.654,0,0,0,1.682,2.486c1.084.811,1.895,0,1.815-1.217-.066-1.1-.718-2.852-1.915-3.184S158.111,168.827,158.4,170Z" transform="translate(-124.887 -158.007)" fill="#b55b52"/>
      </g>
    </g>
    <g id="down" transform="translate(98 833)">
      <g id="_00" data-name="00" clip-path="url(#clip-path)">
        <path id="Path_3720" data-name="Path 3720" d="M0,90.228S111.707,32.447,183.974,44.1,329.215-9.376,329.215-9.376V73.245s3.894,10.869-8.324,16.982c-6.56,3.287-32.671,6.207-51.334,4.667-7.506-.619-19.486-.019-38.249,0-30.788.031-74.335-4.794-106.023-4.667C50.458,90.528,0,90.228,0,90.228Z" transform="translate(2.195 9.821)" fill="url(#linear-gradient)"/>
      </g>
    </g>
  </g>
</svg>
