<svg width="20" height="22" viewBox="0 0 20 22" fill="none" xmlns="http://www.w3.org/2000/svg">
<path d="M18.7254 5.89154L14.6434 1.52568C14.3008 1.15931 13.8362 0.953491 13.3518 0.953491C12.8674 0.953491 12.4028 1.15931 12.0602 1.52568L0.79601 13.5748C0.625792 13.7558 0.490834 13.9711 0.398954 14.2083C0.307075 14.4454 0.260099 14.6997 0.260749 14.9565V19.3233C0.260749 19.8416 0.453218 20.3387 0.795814 20.7052C1.13841 21.0717 1.60307 21.2776 2.08758 21.2776H17.4329C17.7236 21.2776 18.0024 21.1541 18.208 20.9342C18.4135 20.7143 18.529 20.416 18.529 20.105C18.529 19.794 18.4135 19.4958 18.208 19.2759C18.0024 19.056 17.7236 18.9325 17.4329 18.9325H9.12087L18.7254 8.65587C18.8951 8.47439 19.0298 8.25892 19.1216 8.02176C19.2135 7.78461 19.2607 7.53041 19.2607 7.27371C19.2607 7.017 19.2135 6.76281 19.1216 6.52565C19.0298 6.2885 18.8951 6.07302 18.7254 5.89154ZM6.01526 18.9325H2.45294V15.1216L10.1256 6.91363L13.6879 10.7245L6.01526 18.9325ZM15.2407 9.06334L11.6784 5.25249L13.3536 3.46042L16.9159 7.27127L15.2407 9.06334Z" fill="white"/>
</svg>
