<svg xmlns="http://www.w3.org/2000/svg" width="23.307" height="26.636" viewBox="0 0 23.307 26.636">
  <path id="file-medical" d="M14.983,7.075V0H4.578A1.246,1.246,0,0,0,3.33,1.249v12.07H.416A.417.417,0,0,0,0,13.734v.832a.417.417,0,0,0,.416.416h7.33a.424.424,0,0,1,.375.229l1.035,2.071,2.955-5.915a.416.416,0,0,1,.744,0l1.805,3.616h3.652a.832.832,0,1,1,0,1.665H13.635l-1.15-2.3L9.531,20.263a.416.416,0,0,1-.744,0l-1.81-3.616H3.33v8.74a1.246,1.246,0,0,0,1.249,1.249h17.48a1.246,1.246,0,0,0,1.249-1.249V8.324H16.231A1.252,1.252,0,0,1,14.983,7.075Zm7.96-1.613L17.849.364A1.248,1.248,0,0,0,16.965,0h-.317V6.659h6.659V6.342A1.245,1.245,0,0,0,22.942,5.462Z" fill="#fff"/>
</svg>
