<svg width="25" height="25" viewBox="0 0 25 25" fill="none" xmlns="http://www.w3.org/2000/svg">
<rect x="0.5" y="0.5" width="24" height="24" rx="5" fill="#009CAA"/>
<path d="M18.1788 5H15.2942C15.2177 5 15.1443 5.03039 15.0902 5.08449C15.0361 5.13859 15.0057 5.21196 15.0057 5.28846C15.0057 5.36497 15.0361 5.43834 15.0902 5.49243C15.1443 5.54653 15.2177 5.57692 15.2942 5.57692H17.4822L14.9733 8.08582C14.4894 7.57327 13.8876 7.18669 13.2203 6.9597C12.553 6.73271 11.8403 6.67218 11.1443 6.78338C10.4483 6.89458 9.78993 7.17414 9.22656 7.59775C8.66318 8.02135 8.21182 8.57618 7.91173 9.21397C7.61164 9.85177 7.4719 10.5532 7.50468 11.2573C7.53746 11.9614 7.74175 12.6469 8.09979 13.254C8.45784 13.8612 8.95879 14.3717 9.55908 14.7411C10.1594 15.1105 10.8408 15.3277 11.5442 15.3738V17.1154H9.52496C9.44846 17.1154 9.37508 17.1458 9.32099 17.1999C9.26689 17.254 9.2365 17.3273 9.2365 17.4038C9.2365 17.4804 9.26689 17.5537 9.32099 17.6078C9.37508 17.6619 9.44846 17.6923 9.52496 17.6923H11.5442V19.7115C11.5442 19.788 11.5746 19.8614 11.6287 19.9155C11.6828 19.9696 11.7561 20 11.8327 20C11.9092 20 11.9825 19.9696 12.0366 19.9155C12.0907 19.8614 12.1211 19.788 12.1211 19.7115V17.6923H14.1403C14.2168 17.6923 14.2902 17.6619 14.3443 17.6078C14.3984 17.5537 14.4288 17.4804 14.4288 17.4038C14.4288 17.3273 14.3984 17.254 14.3443 17.1999C14.2902 17.1458 14.2168 17.1154 14.1403 17.1154H12.1211V15.3738C12.891 15.3229 13.6332 15.067 14.2707 14.6324C14.9082 14.1979 15.4179 13.6006 15.7466 12.9027C16.0754 12.2047 16.2114 11.4314 16.1405 10.6632C16.0695 9.8949 15.7943 9.15962 15.3432 8.53365L17.8903 5.9851V8.17308C17.8903 8.24958 17.9207 8.32295 17.9748 8.37705C18.0289 8.43115 18.1023 8.46154 18.1788 8.46154C18.2553 8.46154 18.3287 8.43115 18.3828 8.37705C18.4369 8.32295 18.4673 8.24958 18.4673 8.17308V5.28846C18.4673 5.21196 18.4369 5.13859 18.3828 5.08449C18.3287 5.03039 18.2553 5 18.1788 5ZM11.8327 14.8077C11.091 14.8077 10.3659 14.5878 9.74927 14.1757C9.13258 13.7636 8.65193 13.178 8.36811 12.4928C8.08428 11.8075 8.01001 11.0535 8.15471 10.3261C8.2994 9.59867 8.65656 8.93049 9.181 8.40604C9.70545 7.88159 10.3736 7.52444 11.1011 7.37975C11.8285 7.23505 12.5825 7.30932 13.2677 7.59314C13.9529 7.87697 14.5386 8.35762 14.9507 8.9743C15.3627 9.59099 15.5827 10.316 15.5827 11.0577C15.5815 12.0519 15.1861 13.0051 14.483 13.7081C13.78 14.4111 12.8269 14.8065 11.8327 14.8077Z" fill="white"/>
</svg>
