<svg width="23" height="24" viewBox="0 0 23 24" fill="none" xmlns="http://www.w3.org/2000/svg">
<path d="M22.5163 9.8394L12.5088 0.390646C12.2315 0.138522 11.8698 -0.000661293 11.495 0.000495434C11.1203 0.00165216 10.7595 0.143066 10.4838 0.396896L0.49125 9.83315C0.336699 9.97358 0.213174 10.1447 0.128582 10.3357C0.0439894 10.5266 0.000194385 10.7331 0 10.9419V22.4994C0 22.8972 0.158035 23.2787 0.43934 23.5601C0.720644 23.8414 1.10218 23.9994 1.5 23.9994H7.5C7.89782 23.9994 8.27936 23.8414 8.56066 23.5601C8.84196 23.2787 9 22.8972 9 22.4994V16.4994C9 16.3668 9.05268 16.2396 9.14645 16.1458C9.24021 16.0521 9.36739 15.9994 9.5 15.9994H13.5C13.6326 15.9994 13.7598 16.0521 13.8536 16.1458C13.9473 16.2396 14 16.3668 14 16.4994V22.4994C14 22.8972 14.158 23.2787 14.4393 23.5601C14.7206 23.8414 15.1022 23.9994 15.5 23.9994H21.5C21.8978 23.9994 22.2794 23.8414 22.5607 23.5601C22.842 23.2787 23 22.8972 23 22.4994V10.9419C22.9999 10.7347 22.9569 10.5297 22.8736 10.34C22.7903 10.1502 22.6687 9.97978 22.5163 9.8394ZM22 22.4994C22 22.632 21.9473 22.7592 21.8536 22.8529C21.7598 22.9467 21.6326 22.9994 21.5 22.9994H15.5C15.3674 22.9994 15.2402 22.9467 15.1464 22.8529C15.0527 22.7592 15 22.632 15 22.4994V16.4994C15 16.1016 14.842 15.72 14.5607 15.4387C14.2794 15.1574 13.8978 14.9994 13.5 14.9994H9.5C9.10218 14.9994 8.72064 15.1574 8.43934 15.4387C8.15804 15.72 8 16.1016 8 16.4994V22.4994C8 22.632 7.94732 22.7592 7.85355 22.8529C7.75979 22.9467 7.63261 22.9994 7.5 22.9994H1.5C1.36739 22.9994 1.24021 22.9467 1.14645 22.8529C1.05268 22.7592 1 22.632 1 22.4994V10.9419C1.00079 10.871 1.01632 10.8011 1.04558 10.7365C1.07485 10.672 1.11722 10.6142 1.17 10.5669L11.1625 1.13065C11.2541 1.04877 11.3727 1.00351 11.4956 1.00351C11.6185 1.00351 11.7371 1.04877 11.8288 1.13065L21.8363 10.5781C21.8884 10.6256 21.93 10.6835 21.9582 10.7481C21.9865 10.8128 22.0007 10.8826 22 10.9531V22.4994Z" fill="#808080"/>
</svg>
