<svg xmlns="http://www.w3.org/2000/svg" xmlns:xlink="http://www.w3.org/1999/xlink" width="82" height="82" viewBox="0 0 82 82">
  <defs>
    <filter id="help_BG" x="0" y="0" width="82" height="82" filterUnits="userSpaceOnUse">
      <feOffset dy="3" input="SourceAlpha"/>
      <feGaussianBlur stdDeviation="3" result="blur"/>
      <feFlood flood-color="#b7cee6"/>
      <feComposite operator="in" in2="blur"/>
      <feComposite in="SourceGraphic"/>
    </filter>
    <linearGradient id="linear-gradient" x1="0.5" x2="0.5" y2="1" gradientUnits="objectBoundingBox">
      <stop offset="0" stop-color="#fff"/>
      <stop offset="1" stop-color="#fff" stop-opacity="0"/>
    </linearGradient>
    <linearGradient id="linear-gradient-2" x1="0.5" x2="0.5" y2="0.5" gradientUnits="objectBoundingBox">
      <stop offset="0" stop-color="#fff" stop-opacity="0.502"/>
      <stop offset="1" stop-color="#fff" stop-opacity="0"/>
    </linearGradient>
    <filter id="Path_8787" x="17.375" y="19.267" width="42.68" height="40.493" filterUnits="userSpaceOnUse">
      <feOffset dy="3" input="SourceAlpha"/>
      <feGaussianBlur stdDeviation="3" result="blur-2"/>
      <feFlood flood-color="#53a88c"/>
      <feComposite operator="in" in2="blur-2"/>
      <feComposite in="SourceGraphic"/>
    </filter>
    <filter id="Path_8788" x="26.599" y="23.696" width="38.026" height="40.57" filterUnits="userSpaceOnUse">
      <feOffset dy="3" input="SourceAlpha"/>
      <feGaussianBlur stdDeviation="3" result="blur-3"/>
      <feFlood flood-color="#53a88c"/>
      <feComposite operator="in" in2="blur-3"/>
      <feComposite in="SourceGraphic"/>
    </filter>
  </defs>
  <g id="ic_03" transform="translate(-39 -501)">
    <g transform="matrix(1, 0, 0, 1, 39, 501)" filter="url(#help_BG)">
      <path id="help_BG-2" data-name="help BG" d="M0,32A32,32,0,1,1,32,64,32,32,0,0,1,0,32Z" transform="translate(9 6)" fill="#0dc68c" opacity="0.5"/>
    </g>
    <path id="help_BG-3" data-name="help BG" d="M0,24.233A24.233,24.233,0,1,1,24.233,48.467,24.233,24.233,0,0,1,0,24.233Z" transform="translate(58.239 515.533)" opacity="0.15" fill="url(#linear-gradient)"/>
    <path id="help_BG-4" data-name="help BG" d="M0,15.84A15.84,15.84,0,1,0,15.84,0,15.84,15.84,0,0,0,0,15.84Z" transform="translate(53.293 519.087)" opacity="0.23" fill="url(#linear-gradient-2)"/>
    <g id="Icon_ionic-md-chatboxes" data-name="Icon ionic-md-chatboxes" transform="translate(62 521.767)">
      <g transform="matrix(1, 0, 0, 1, -23, -20.77)" filter="url(#Path_8787)">
        <path id="Path_8787-2" data-name="Path 8787" d="M27.531,4.5H4.05a.677.677,0,0,0-.675.574V20.136a.705.705,0,0,0,.675.606H8.086v6.25l6.337-6.25H27.531a.568.568,0,0,0,.524-.606V5.074A.538.538,0,0,0,27.531,4.5Z" transform="translate(23 20.77)" fill="#fff"/>
      </g>
      <g transform="matrix(1, 0, 0, 1, -23, -20.77)" filter="url(#Path_8788)">
        <path id="Path_8788-2" data-name="Path 8788" d="M32.09,8.93H29.813V20.642c0,1.124-.486,1.858-1.768,1.858H15.335L12.6,25.242h9.119L28.055,31.5V25.242H32.09a.58.58,0,0,0,.535-.61V9.57A.608.608,0,0,0,32.09,8.93Z" transform="translate(23 20.77)" fill="#fff"/>
      </g>
    </g>
  </g>
</svg>
