<svg xmlns="http://www.w3.org/2000/svg" xmlns:xlink="http://www.w3.org/1999/xlink" width="32.601" height="37.258" viewBox="0 0 32.601 37.258">
  <defs>
    <linearGradient id="linear-gradient" x1="0.5" x2="0.5" y2="1" gradientUnits="objectBoundingBox">
      <stop offset="0" stop-color="#0dbbd6"/>
      <stop offset="1" stop-color="#339dfa"/>
    </linearGradient>
  </defs>
  <path id="ico_2" d="M16.3,18.629A9.314,9.314,0,1,0,6.986,9.314,9.314,9.314,0,0,0,16.3,18.629ZM7.568,30.854a1.746,1.746,0,1,0,1.746-1.746A1.742,1.742,0,0,0,7.568,30.854ZM23.286,21v3.566a5.83,5.83,0,0,1,4.657,5.705v3.034A1.168,1.168,0,0,1,27,34.449l-2.343.466a.579.579,0,0,1-.684-.458l-.226-1.142a.576.576,0,0,1,.458-.684l1.4-.284V30.272c0-4.57-6.986-4.737-6.986.138v1.943l1.4.284a.59.59,0,0,1,.458.684l-.226,1.142a.59.59,0,0,1-.684.458l-2.27-.306a1.163,1.163,0,0,1-1-1.157V30.272a5.836,5.836,0,0,1,4.657-5.705V21.278c-.16.051-.32.08-.48.138a12.589,12.589,0,0,1-8.354,0,8.042,8.042,0,0,0-1.645-.378v5.938a4.075,4.075,0,1,1-2.329,0V21.125A9.755,9.755,0,0,0,0,30.738V34a3.264,3.264,0,0,0,3.26,3.26h26.08A3.264,3.264,0,0,0,32.6,34v-3.26A9.766,9.766,0,0,0,23.286,21Z" fill="url(#linear-gradient)"/>
</svg>
