<svg xmlns="http://www.w3.org/2000/svg" xmlns:xlink="http://www.w3.org/1999/xlink" width="36.302" height="36.3" viewBox="0 0 36.302 36.3">
  <defs>
    <linearGradient id="linear-gradient" x1="0.5" x2="0.5" y2="1" gradientUnits="objectBoundingBox">
      <stop offset="0" stop-color="#0dbbd6"/>
      <stop offset="1" stop-color="#339dfa"/>
    </linearGradient>
  </defs>
  <path id="ico_5" d="M31.7,7.941a4.537,4.537,0,0,0-2.2,8.466V24.39c0,4.063-3.559,7.374-7.941,7.374a7.718,7.718,0,0,1-7.934-7.033,11.375,11.375,0,0,0,9.061-11.117V2.595A1.7,1.7,0,0,0,21.32.929L16.86.035a1.7,1.7,0,0,0-2,1.333l-.227,1.113a1.7,1.7,0,0,0,1.333,2l2.177.433v8.608a6.807,6.807,0,1,1-13.613.085V4.921l2.177-.433a1.7,1.7,0,0,0,1.333-2L7.82,1.375a1.7,1.7,0,0,0-2-1.333L1.368.922A1.708,1.708,0,0,0,0,2.595V13.613A11.362,11.362,0,0,0,9.083,24.731C9.267,31.14,14.79,36.3,21.554,36.3c6.877,0,12.479-5.346,12.479-11.912V16.407A4.537,4.537,0,0,0,31.7,7.941Zm.064,5.672A1.134,1.134,0,1,1,32.9,12.479,1.138,1.138,0,0,1,31.764,13.613Z" transform="translate(0 -0.002)" fill="url(#linear-gradient)"/>
</svg>
