<svg id="ico_6" xmlns="http://www.w3.org/2000/svg" xmlns:xlink="http://www.w3.org/1999/xlink" width="36.2" height="36.2" viewBox="0 0 36.2 36.2">
  <defs>
    <linearGradient id="linear-gradient" x1="0.5" x2="0.5" y2="1" gradientUnits="objectBoundingBox">
      <stop offset="0" stop-color="#0dbbd6"/>
      <stop offset="1" stop-color="#339dfa"/>
    </linearGradient>
  </defs>
  <path id="Path_50786" data-name="Path 50786" d="M79.139,171.084a6.033,6.033,0,0,1,10.385-6Zm11.056-4.835a6.033,6.033,0,0,1-10.385,6Zm-7.8-6.04-4.427,2.555a4.022,4.022,0,1,1-4.022-6.966l4.428-2.557c.021.154.044.31.07.464a10.9,10.9,0,0,0,3.585,6.21q.183.151.366.294Zm-2.754-7.7,3.593-2.074a4.022,4.022,0,0,1,4.022,6.966l-3.6,2.081c-.253-.188-.514-.389-.768-.6a9.554,9.554,0,0,1-3.119-5.4c-.055-.323-.1-.652-.125-.972Zm-18.1-5.965H60.533a2.009,2.009,0,0,1-2.011-2.011v-4.022a2.01,2.01,0,0,1,2.011-2.011h1.006ZM62.88,138.5h1.676v8.044H62.88Zm3.017,0h1.676v8.044H65.9Zm3.017,0h1.006a2.01,2.01,0,0,1,2.011,2.011v4.022a2.009,2.009,0,0,1-2.011,2.011H68.913Zm7.039,26.144v4.693H54.5V155.09a3.889,3.889,0,0,1,2.946-3.773l.488-.122a2.546,2.546,0,0,0,1.929-2.471v-.908a3.288,3.288,0,0,0,.67.068h9.385a3.383,3.383,0,0,0,.67-.067v.906a2.546,2.546,0,0,0,1.929,2.471l.488.122a3.9,3.9,0,0,1,2.526,2.014l-2.262,1.306a5.363,5.363,0,0,0,2.681,10.007Zm-12.737-6.033H61.2a.671.671,0,0,0-.67.67v2.681a.671.671,0,0,0,.67.67h2.011v2.011a.671.671,0,0,0,.67.67h2.681a.671.671,0,0,0,.67-.67v-2.011h2.011a.671.671,0,0,0,.67-.67v-2.681a.671.671,0,0,0-.67-.67H67.237V156.6a.671.671,0,0,0-.67-.67H63.885a.671.671,0,0,0-.67.67Zm12.737,12.067v.67A3.351,3.351,0,0,1,72.6,174.7H57.852a3.351,3.351,0,0,1-3.352-3.352v-.67Z" transform="translate(-54.5 -138.5)" fill-rule="evenodd" fill="url(#linear-gradient)"/>
</svg>
