<svg id="ico_4" xmlns="http://www.w3.org/2000/svg" xmlns:xlink="http://www.w3.org/1999/xlink" width="45.4" height="38.674" viewBox="0 0 45.4 38.674">
  <defs>
    <linearGradient id="linear-gradient" x1="0.5" x2="0.5" y2="1" gradientUnits="objectBoundingBox">
      <stop offset="0" stop-color="#0dbbd6"/>
      <stop offset="1" stop-color="#339dfa"/>
    </linearGradient>
  </defs>
  <path id="Path_50796" data-name="Path 50796" d="M138.5,129.607a.841.841,0,1,1,1.681,0v3.363a2.523,2.523,0,0,0,2.522,2.522h3.363a.841.841,0,1,1,0,1.681H142.7a4.2,4.2,0,0,1-4.2-4.2Zm45.4-23.541a.841.841,0,0,1-1.681,0V102.7a2.523,2.523,0,0,0-2.522-2.522h-3.363a.841.841,0,0,1,0-1.681H179.7a4.2,4.2,0,0,1,4.2,4.2Zm-3.363-1.681v26.9a2.52,2.52,0,0,1-2.522,2.522h-33.63a2.52,2.52,0,0,1-2.522-2.522v-26.9a2.52,2.52,0,0,1,2.522-2.522h33.63a2.52,2.52,0,0,1,2.522,2.522Zm-21.859,22.239v.461a1.682,1.682,0,0,0,1.681,1.681h1.681a1.682,1.682,0,0,0,1.681-1.681v-.461a4.9,4.9,0,0,1,3.107-1.226c2.783.326,4.387,3.307,4.387,3.307a.841.841,0,0,0,1.564-.254c1.675-9.171-.375-15.244-2.5-18.347a6.726,6.726,0,0,0-2.847-2.589,3.885,3.885,0,0,0-3.109.294,6.153,6.153,0,0,0-.646.38,1.7,1.7,0,0,0-.446-.79,1.677,1.677,0,0,0-1.189-.493h-1.681a1.677,1.677,0,0,0-1.189.493,1.7,1.7,0,0,0-.446.79,6.149,6.149,0,0,0-.646-.38,3.885,3.885,0,0,0-3.109-.294,6.726,6.726,0,0,0-2.847,2.589c-2.129,3.1-4.178,9.176-2.5,18.347a.841.841,0,0,0,1.564.254s1.6-2.981,4.387-3.307A4.9,4.9,0,0,1,158.678,126.624Zm5.044-10.805a4.712,4.712,0,0,1,1.11-1.184,2.123,2.123,0,0,1,1.675-.441,5.744,5.744,0,0,1,2.546,1.574,17.681,17.681,0,0,1,2.194,2.542.842.842,0,0,0,.252.242,25.863,25.863,0,0,1,.205,2.692,14.906,14.906,0,0,0-1.9-2.046,4.97,4.97,0,0,0-2.785-1.357,4.85,4.85,0,0,0-3.3,1.09Zm0,5.517a3.768,3.768,0,0,1,3.207-1.816,4.349,4.349,0,0,1,2.44,1.581,19.28,19.28,0,0,1,2.273,2.978c-.047.689-.116,1.4-.214,2.139a7.328,7.328,0,0,0-4.4-2.49,6.085,6.085,0,0,0-3.3.888Zm-5.044-11.017v3.048c-.04-.032-.082-.064-.124-.094a3.775,3.775,0,0,0-2.98-.73,7.466,7.466,0,0,0-3.375,2c-.2.183-.385.37-.565.557a16.432,16.432,0,0,1,1.068-2.677c.977-1.913,2.07-3.049,2.837-3.324a2.234,2.234,0,0,1,1.782.212,5.524,5.524,0,0,1,1.357,1.009Zm-7.777,8.234a.842.842,0,0,0,.252-.242,17.677,17.677,0,0,1,2.194-2.542,5.743,5.743,0,0,1,2.546-1.574,2.123,2.123,0,0,1,1.675.441,4.712,4.712,0,0,1,1.11,1.184v3.112a4.85,4.85,0,0,0-3.3-1.09,4.97,4.97,0,0,0-2.785,1.357,14.8,14.8,0,0,0-1.895,2.046A25.873,25.873,0,0,1,150.9,118.553Zm-.143,5.524a19.53,19.53,0,0,1,2.273-2.976,4.349,4.349,0,0,1,2.44-1.581,3.768,3.768,0,0,1,3.207,1.816v3.279a6.085,6.085,0,0,0-3.3-.888,7.335,7.335,0,0,0-4.4,2.489q-.144-1.1-.214-2.139Zm12.964-13.758a5.524,5.524,0,0,1,1.357-1.009,2.234,2.234,0,0,1,1.782-.212c.767.276,1.86,1.411,2.837,3.324a16.428,16.428,0,0,1,1.068,2.677c-.18-.187-.368-.373-.565-.557a7.466,7.466,0,0,0-3.375-2,3.776,3.776,0,0,0-2.98.73c-.042.03-.084.062-.124.094Z" transform="translate(-138.5 -98.5)" fill-rule="evenodd" fill="url(#linear-gradient)"/>
</svg>
