<svg xmlns="http://www.w3.org/2000/svg" width="21.531" height="13.84" viewBox="0 0 21.531 13.84">
  <g id="Icon_ionic-ios-eye" data-name="Icon ionic-ios-eye" transform="translate(0)">
    <path id="Path_51472" data-name="Path 51472" d="M13.006,7.875c-3.864,0-6.91,2.432-10.553,6.406a.76.76,0,0,0,0,1.024c3.119,3.446,5.868,6.411,10.558,6.411,4.633,0,8.107-3.734,10.577-6.44a.754.754,0,0,0,.024-.995C21.089,11.229,17.6,7.875,13.006,7.875Zm.211,11.24A4.325,4.325,0,1,1,17.335,15,4.327,4.327,0,0,1,13.217,19.115Z" transform="translate(-2.252 -7.875)" fill="#0dbbd6"/>
    <path id="Path_51473" data-name="Path 51473" d="M16.576,14.317a2.258,2.258,0,0,1,.149-.812c-.048,0-.1,0-.149,0a3.075,3.075,0,1,0,3.076,3.076c0-.062,0-.125,0-.187a2.131,2.131,0,0,1-.875.187A2.231,2.231,0,0,1,16.576,14.317Z" transform="translate(-5.813 -9.656)" fill="#0dbbd6"/>
  </g>
</svg>
