<svg xmlns="http://www.w3.org/2000/svg" width="14.195" height="18.454" viewBox="0 0 14.195 18.454">
  <path id="Icon_ionic-ios-lock" data-name="Icon ionic-ios-lock" d="M19.171,9.763H18.106V7.691a4.259,4.259,0,1,0-8.517-.058V9.763H8.524A1.78,1.78,0,0,0,6.75,11.537v8.517a1.78,1.78,0,0,0,1.774,1.774H19.171a1.78,1.78,0,0,0,1.774-1.774V11.537A1.78,1.78,0,0,0,19.171,9.763Zm-4.7,5.536v3.052a.636.636,0,0,1-.59.639.622.622,0,0,1-.652-.621V15.3a1.42,1.42,0,1,1,1.242,0Zm2.4-5.536H10.831V7.633a3.017,3.017,0,0,1,6.033,0Z" transform="translate(-6.75 -3.374)" fill="#0dbbd6"/>
</svg>
