<svg xmlns="http://www.w3.org/2000/svg" width="21.526" height="18.454" viewBox="0 0 21.526 18.454">
  <g id="Icon_ionic-ios-eye-off" data-name="Icon ionic-ios-eye-off" transform="translate(0)">
    <path id="Path_51474" data-name="Path 51474" d="M5.669,4.7a.683.683,0,0,0-.966.966L21.787,22.756a.677.677,0,0,0,.658.173.666.666,0,0,0,.308-.178.682.682,0,0,0,0-.961Z" transform="translate(-2.965 -4.499)" fill="#0dbbd6"/>
    <g id="Group_55372" data-name="Group 55372" transform="translate(0 2.307)">
      <path id="Path_51475" data-name="Path 51475" d="M13.217,20.273A4.321,4.321,0,0,1,9.108,14.1L6.542,11.531a33.709,33.709,0,0,0-4.09,3.907.76.76,0,0,0,0,1.024c3.119,3.446,5.868,6.411,10.558,6.411a9.253,9.253,0,0,0,3.955-.923l-2.09-2.09A4.367,4.367,0,0,1,13.217,20.273Z" transform="translate(-2.252 -9.032)" fill="#0dbbd6"/>
      <path id="Path_51476" data-name="Path 51476" d="M26.733,15.276a.754.754,0,0,0,.024-.995c-2.513-3.052-6-6.406-10.6-6.406a9,9,0,0,0-3.941.913l2.1,2.1a4.234,4.234,0,0,1,1.648-.413,4.321,4.321,0,0,1,4.109,6.17l2.571,2.571A31.788,31.788,0,0,0,26.733,15.276Z" transform="translate(-5.407 -7.875)" fill="#0dbbd6"/>
      <path id="Path_51477" data-name="Path 51477" d="M13.51,17.822a3.088,3.088,0,0,0,2.831,2.831,3,3,0,0,0,1.125-.125L13.63,16.692A3.143,3.143,0,0,0,13.51,17.822Z" transform="translate(-5.813 -10.666)" fill="#0dbbd6"/>
      <path id="Path_51478" data-name="Path 51478" d="M22.024,17.913c0-.062,0-.125,0-.187a2.131,2.131,0,0,1-.875.187c-.053,0-.1,0-.149,0l.894.9A3.073,3.073,0,0,0,22.024,17.913Z" transform="translate(-8.185 -10.993)" fill="#0dbbd6"/>
      <path id="Path_51479" data-name="Path 51479" d="M17.588,14.317a2.258,2.258,0,0,1,.149-.812c-.048,0-.1,0-.149,0a3.04,3.04,0,0,0-.889.135l.9.9C17.593,14.461,17.588,14.389,17.588,14.317Z" transform="translate(-6.825 -9.656)" fill="#0dbbd6"/>
    </g>
  </g>
</svg>
