<svg xmlns="http://www.w3.org/2000/svg" width="22.733" height="20.208" viewBox="0 0 22.733 20.208">
  <path id="id-card" d="M20.839,2.526H15.156V6.315H7.578V2.526H1.894A1.9,1.9,0,0,0,0,4.42V18.313a1.9,1.9,0,0,0,1.894,1.894H20.839a1.9,1.9,0,0,0,1.894-1.894V4.42A1.9,1.9,0,0,0,20.839,2.526ZM11.367,8.841a2.526,2.526,0,1,1-2.526,2.526A2.528,2.528,0,0,1,11.367,8.841Zm3.682,8.841H7.684a.623.623,0,0,1-.616-.781,2.527,2.527,0,0,1,2.4-1.744H9.8a4.065,4.065,0,0,0,3.142,0h.324a2.529,2.529,0,0,1,2.4,1.744.623.623,0,0,1-.616.781ZM13.893,1.263A1.262,1.262,0,0,0,12.63,0H10.1A1.262,1.262,0,0,0,8.841,1.263V5.052h5.052Z" fill="#b7cee6"/>
</svg>
