<svg width="23" height="22" viewBox="0 0 23 22" fill="none" xmlns="http://www.w3.org/2000/svg">
<path d="M20.6667 0H6C5.51377 0 5.04745 0.193154 4.70364 0.536971C4.35982 0.880787 4.16667 1.3471 4.16667 1.83333V3.66667H2.33333C1.8471 3.66667 1.38079 3.85982 1.03697 4.20364C0.693154 4.54745 0.5 5.01377 0.5 5.5V20.1667C0.5 20.6529 0.693154 21.1192 1.03697 21.463C1.38079 21.8068 1.8471 22 2.33333 22H17C17.4862 22 17.9525 21.8068 18.2964 21.463C18.6402 21.1192 18.8333 20.6529 18.8333 20.1667V18.3333H20.6667C21.1529 18.3333 21.6192 18.1402 21.963 17.7964C22.3068 17.4525 22.5 16.9862 22.5 16.5V1.83333C22.5 1.3471 22.3068 0.880787 21.963 0.536971C21.6192 0.193154 21.1529 0 20.6667 0ZM6 1.83333H20.6667V9.78312L18.7531 7.86958C18.4093 7.52603 17.9432 7.33304 17.4572 7.33304C16.9712 7.33304 16.505 7.52603 16.1612 7.86958L7.53198 16.5H6V1.83333ZM17 20.1667H2.33333V5.5H4.16667V16.5C4.16667 16.9862 4.35982 17.4525 4.70364 17.7964C5.04745 18.1402 5.51377 18.3333 6 18.3333H17V20.1667ZM20.6667 16.5H10.125L17.4583 9.16667L20.6667 12.375V16.5ZM10.5833 9.16667C11.1272 9.16667 11.6589 9.00538 12.1112 8.70321C12.5634 8.40103 12.9159 7.97154 13.124 7.46905C13.3321 6.96655 13.3866 6.41362 13.2805 5.88017C13.1744 5.34672 12.9125 4.85672 12.5279 4.47212C12.1433 4.08753 11.6533 3.82562 11.1198 3.71951C10.5864 3.6134 10.0335 3.66786 9.53095 3.876C9.02846 4.08414 8.59897 4.43661 8.29679 4.88885C7.99462 5.34108 7.83333 5.87277 7.83333 6.41667C7.83333 7.14601 8.12306 7.84549 8.63879 8.36121C9.15451 8.87694 9.85399 9.16667 10.5833 9.16667ZM10.5833 5.5C10.7646 5.5 10.9419 5.55376 11.0926 5.65449C11.2434 5.75521 11.3608 5.89837 11.4302 6.06587C11.4996 6.23337 11.5178 6.41768 11.4824 6.5955C11.447 6.77332 11.3597 6.93665 11.2315 7.06485C11.1033 7.19305 10.94 7.28035 10.7622 7.31572C10.5844 7.35109 10.4 7.33294 10.2325 7.26356C10.065 7.19418 9.92188 7.07668 9.82115 6.92594C9.72043 6.77519 9.66667 6.59797 9.66667 6.41667C9.66667 6.17355 9.76324 5.94039 9.93515 5.76849C10.1071 5.59658 10.3402 5.5 10.5833 5.5Z" fill="black"/>
</svg>
