<svg width="19" height="19" viewBox="0 0 19 19" fill="none" xmlns="http://www.w3.org/2000/svg">
<path d="M8.66667 0.333374H2C1.08333 0.333374 0.333334 1.08337 0.333334 2.00004V12L2.83333 9.50004H7V8.66671C7 6.83337 8.49167 5.33337 10.3333 5.33337V2.00004C10.3333 1.08337 9.58333 0.333374 8.66667 0.333374ZM8.66667 2.83337H7.41667C7.13333 3.82504 6.61667 4.75004 5.9 5.55004L5.88333 5.56671L6.93333 6.60837L6.625 7.45004L5.33333 6.16671L3.25 8.25004L2.675 7.64171L4.78333 5.56671C4.27387 5.00293 3.85754 4.36155 3.55 3.66671H4.375C4.63333 4.16671 4.95 4.64171 5.33333 5.06671C5.91681 4.419 6.362 3.65906 6.64167 2.83337H2V2.00004H4.91667V1.16671H5.75V2.00004H8.66667V2.83337ZM17 7.00004H10.3333C9.41667 7.00004 8.66667 7.75004 8.66667 8.66671V14.5C8.66667 15.4167 9.41667 16.1667 10.3333 16.1667H16.1667L18.6667 18.6667V8.66671C18.6667 7.75004 17.9167 7.00004 17 7.00004ZM15.8583 15.3334L15.15 13.4584H12.1833L11.4833 15.3334H10.2333L13.0417 7.83337H14.2917L17.1083 15.3334H15.8583ZM13.6667 9.50004L14.6833 12.2084H12.6583L13.6667 9.50004Z" fill="black"/>
</svg>
