<svg xmlns="http://www.w3.org/2000/svg" xmlns:xlink="http://www.w3.org/1999/xlink" width="65.846" height="63.859" viewBox="0 0 65.846 63.859">
  <defs>
    <filter id="Rectangle_2358" x="0" y="0" width="65.846" height="63.859" filterUnits="userSpaceOnUse">
      <feOffset dy="3" input="SourceAlpha"/>
      <feGaussianBlur stdDeviation="4" result="blur"/>
      <feFlood flood-color="#bcbcbc" flood-opacity="0.439"/>
      <feComposite operator="in" in2="blur"/>
      <feComposite in="SourceGraphic"/>
    </filter>
  </defs>
  <g id="login_google" transform="translate(12 9)">
    <g transform="matrix(1, 0, 0, 1, -12, -9)" filter="url(#Rectangle_2358)">
      <rect id="Rectangle_2358-2" data-name="Rectangle 2358" width="41.846" height="39.859" rx="10" transform="translate(12 9)" fill="#fff"/>
    </g>
    <g id="login_google-2" data-name="login_google" transform="translate(10.741 9.093)">
      <path id="Shape" d="M4.513,7.245,3.8,10.061l-2.591.058A11.343,11.343,0,0,1,0,4.984,11.346,11.346,0,0,1,1.138,0h0L3.446.45l1.01,2.44a6.86,6.86,0,0,0,.057,4.354Z" transform="translate(0 5.853)" fill="#fbbb00"/>
      <path id="Shape-2" data-name="Shape" d="M9.78,0a11.526,11.526,0,0,1,.178,2.024,11.53,11.53,0,0,1-.223,2.263,10.957,10.957,0,0,1-3.585,6.188h0l-2.905-.158L2.834,7.585a6.373,6.373,0,0,0,2.611-3.3H0V0H9.78Z" transform="translate(10.406 8.812)" fill="#518ef8"/>
      <path id="Shape-3" data-name="Shape" d="M15.343,6.19h0A9.766,9.766,0,0,1,8.969,8.576,10.114,10.114,0,0,1,0,2.875L3.3,0A6.083,6.083,0,0,0,8.969,4.181,5.746,5.746,0,0,0,12.026,3.3Z" transform="translate(1.213 13.098)" fill="#28b446"/>
      <path id="Shape-4" data-name="Shape" d="M15.543,2.495l-3.3,2.874a5.754,5.754,0,0,0-3.2-.974A6.1,6.1,0,0,0,3.318,8.743L0,5.853H0A10.127,10.127,0,0,1,9.044,0,9.777,9.777,0,0,1,15.543,2.495Z" transform="translate(1.138)" fill="#f14336"/>
    </g>
  </g>
</svg>
