<svg xmlns="http://www.w3.org/2000/svg" xmlns:xlink="http://www.w3.org/1999/xlink" width="161" height="139" viewBox="0 0 161 139">
  <defs>
    <filter id="Rectangle_26896" x="0" y="0" width="161" height="139" filterUnits="userSpaceOnUse">
      <feOffset input="SourceAlpha"/>
      <feGaussianBlur stdDeviation="7.5" result="blur"/>
      <feFlood flood-opacity="0.4"/>
      <feComposite operator="in" in2="blur"/>
      <feComposite in="SourceGraphic"/>
    </filter>
    <linearGradient id="linear-gradient" x1="0.5" x2="0.5" y2="1" gradientUnits="objectBoundingBox">
      <stop offset="0" stop-color="#0dbbd6"/>
      <stop offset="1" stop-color="#339dfa"/>
    </linearGradient>
  </defs>
  <g id="_004" data-name="004" transform="translate(-26.5 -112.5)">
    <g transform="matrix(1, 0, 0, 1, 26.5, 112.5)" filter="url(#Rectangle_26896)">
      <rect id="Rectangle_26896-2" data-name="Rectangle 26896" width="116" height="94" rx="20" transform="translate(22.5 22.5)" fill="#fff"/>
    </g>
    <g id="x-ray_10151848" transform="translate(76 156)">
      <path id="Path_50796" data-name="Path 50796" d="M138.5,140.648a1.139,1.139,0,1,1,2.278,0V145.2a3.419,3.419,0,0,0,3.417,3.417h4.557a1.139,1.139,0,1,1,0,2.278H144.2a5.7,5.7,0,0,1-5.7-5.7Zm61.513-31.9a1.139,1.139,0,0,1-2.278,0V104.2a3.419,3.419,0,0,0-3.417-3.417h-4.557a1.139,1.139,0,0,1,0-2.278h4.557a5.7,5.7,0,0,1,5.7,5.7Zm-4.557-2.278v36.452a3.415,3.415,0,0,1-3.417,3.417H146.474a3.415,3.415,0,0,1-3.417-3.417V106.474a3.415,3.415,0,0,1,3.417-3.417h45.565a3.415,3.415,0,0,1,3.417,3.417Zm-29.617,30.132v.624a2.279,2.279,0,0,0,2.278,2.278H170.4a2.279,2.279,0,0,0,2.278-2.278v-.624a6.639,6.639,0,0,1,4.21-1.661c3.771.442,5.944,4.481,5.944,4.481a1.14,1.14,0,0,0,2.119-.344c2.269-12.426-.508-20.655-3.392-24.858a9.113,9.113,0,0,0-3.857-3.509,5.264,5.264,0,0,0-4.213.4,8.337,8.337,0,0,0-.875.515,2.3,2.3,0,0,0-.6-1.071,2.272,2.272,0,0,0-1.611-.668h-2.278a2.272,2.272,0,0,0-1.611.668,2.3,2.3,0,0,0-.6,1.071,8.33,8.33,0,0,0-.875-.515,5.264,5.264,0,0,0-4.212-.4,9.113,9.113,0,0,0-3.857,3.509c-2.884,4.2-5.661,12.432-3.392,24.858a1.14,1.14,0,0,0,2.119.344s2.173-4.039,5.944-4.481A6.639,6.639,0,0,1,165.839,136.606Zm6.835-14.64a6.384,6.384,0,0,1,1.5-1.6,2.877,2.877,0,0,1,2.269-.6A7.782,7.782,0,0,1,179.9,121.9a23.955,23.955,0,0,1,2.973,3.445,1.141,1.141,0,0,0,.342.328,35.045,35.045,0,0,1,.278,3.647,20.194,20.194,0,0,0-2.568-2.773,6.734,6.734,0,0,0-3.773-1.839,6.572,6.572,0,0,0-4.475,1.476Zm0,7.475a5.105,5.105,0,0,1,4.345-2.461c1.125.066,2.271,1.066,3.306,2.142a26.123,26.123,0,0,1,3.08,4.035c-.064.934-.157,1.9-.289,2.9a9.929,9.929,0,0,0-5.964-3.374,8.244,8.244,0,0,0-4.477,1.2Zm-6.835-14.927v4.13c-.055-.043-.112-.087-.169-.128a5.115,5.115,0,0,0-4.037-.989,10.117,10.117,0,0,0-4.573,2.709c-.267.248-.522.5-.765.754a22.264,22.264,0,0,1,1.447-3.627c1.324-2.593,2.8-4.13,3.843-4.5a3.027,3.027,0,0,1,2.415.287,7.484,7.484,0,0,1,1.839,1.367ZM155.3,125.67a1.141,1.141,0,0,0,.342-.328,23.951,23.951,0,0,1,2.973-3.445,7.782,7.782,0,0,1,3.449-2.132,2.877,2.877,0,0,1,2.269.6,6.384,6.384,0,0,1,1.5,1.6v4.217a6.572,6.572,0,0,0-4.475-1.476,6.734,6.734,0,0,0-3.773,1.839,20.057,20.057,0,0,0-2.568,2.773,35.05,35.05,0,0,1,.278-3.647Zm-.194,7.484a26.464,26.464,0,0,1,3.08-4.033c1.034-1.075,2.18-2.076,3.306-2.142a5.105,5.105,0,0,1,4.345,2.461v4.443a8.244,8.244,0,0,0-4.477-1.2,9.938,9.938,0,0,0-5.964,3.372q-.195-1.5-.289-2.9Zm17.565-18.641a7.484,7.484,0,0,1,1.839-1.367,3.027,3.027,0,0,1,2.415-.287c1.039.374,2.52,1.911,3.843,4.5a22.259,22.259,0,0,1,1.447,3.627c-.244-.253-.5-.506-.765-.754a10.116,10.116,0,0,0-4.572-2.709,5.116,5.116,0,0,0-4.037.989c-.057.041-.114.084-.169.128Z" transform="translate(-138.5 -98.5)" fill-rule="evenodd" fill="url(#linear-gradient)"/>
    </g>
  </g>
</svg>
