<svg xmlns="http://www.w3.org/2000/svg" xmlns:xlink="http://www.w3.org/1999/xlink" width="161" height="139" viewBox="0 0 161 139">
  <defs>
    <filter id="Rectangle_26896" x="0" y="0" width="161" height="139" filterUnits="userSpaceOnUse">
      <feOffset input="SourceAlpha"/>
      <feGaussianBlur stdDeviation="7.5" result="blur"/>
      <feFlood flood-opacity="0.4"/>
      <feComposite operator="in" in2="blur"/>
      <feComposite in="SourceGraphic"/>
    </filter>
    <linearGradient id="linear-gradient" x1="0.5" x2="0.5" y2="1" gradientUnits="objectBoundingBox">
      <stop offset="0" stop-color="#0dbbd6"/>
      <stop offset="1" stop-color="#339dfa"/>
    </linearGradient>
  </defs>
  <g id="_006" data-name="006" transform="translate(-26.5 -112.5)">
    <g transform="matrix(1, 0, 0, 1, 26.5, 112.5)" filter="url(#Rectangle_26896)">
      <rect id="Rectangle_26896-2" data-name="Rectangle 26896" width="116" height="94" rx="20" transform="translate(22.5 22.5)" fill="#fff"/>
    </g>
    <g id="medicine_10151798" transform="translate(80 155)">
      <path id="Path_50786" data-name="Path 50786" d="M91.935,188.006a9.167,9.167,0,0,1,15.779-9.11Zm16.8-7.346a9.167,9.167,0,0,1-15.779,9.11Zm-11.858-9.177-6.726,3.883a6.111,6.111,0,0,1-6.111-10.584l6.728-3.885c.033.234.067.471.106.7a16.558,16.558,0,0,0,5.447,9.436q.278.229.556.446Zm-4.184-11.7,5.459-3.151a6.111,6.111,0,0,1,6.111,10.584l-5.476,3.161c-.385-.285-.78-.591-1.167-.913a14.515,14.515,0,0,1-4.738-8.205c-.084-.491-.145-.99-.189-1.477Zm-27.5-9.063H63.667a3.053,3.053,0,0,1-3.056-3.056v-6.111a3.053,3.053,0,0,1,3.056-3.056h1.528ZM67.232,138.5h2.546v12.222H67.232Zm4.583,0h2.546v12.222H71.815Zm4.583,0h1.528a3.053,3.053,0,0,1,3.056,3.056v6.111a3.053,3.053,0,0,1-3.056,3.056H76.4Zm10.694,39.722v7.13H54.5V163.706a5.909,5.909,0,0,1,4.475-5.732l.741-.185a3.868,3.868,0,0,0,2.931-3.754v-1.379a5,5,0,0,0,1.019.1H77.926a5.14,5.14,0,0,0,1.019-.1v1.377a3.868,3.868,0,0,0,2.931,3.754l.741.185a5.919,5.919,0,0,1,3.838,3.06l-3.436,1.984a8.148,8.148,0,0,0,4.074,15.2Zm-19.352-9.167H64.685a1.019,1.019,0,0,0-1.019,1.019v4.074a1.019,1.019,0,0,0,1.019,1.018h3.056v3.056a1.019,1.019,0,0,0,1.019,1.019h4.074a1.019,1.019,0,0,0,1.019-1.019v-3.056h3.056a1.019,1.019,0,0,0,1.019-1.018v-4.074a1.019,1.019,0,0,0-1.019-1.019H73.852V166a1.019,1.019,0,0,0-1.019-1.019H68.759A1.019,1.019,0,0,0,67.741,166Zm19.352,18.333v1.019A5.091,5.091,0,0,1,82,193.5H59.593a5.091,5.091,0,0,1-5.093-5.093v-1.019Z" transform="translate(-54.5 -138.5)" fill-rule="evenodd" fill="url(#linear-gradient)"/>
    </g>
  </g>
</svg>
