<svg width="14" height="18" viewBox="0 0 14 18" fill="none" xmlns="http://www.w3.org/2000/svg">
<path d="M12.625 2.06274H10.75V1.43774C10.75 1.10622 10.6183 0.788281 10.3839 0.553861C10.1495 0.31944 9.83152 0.187744 9.5 0.187744H4.5C4.16848 0.187744 3.85054 0.31944 3.61612 0.553861C3.3817 0.788281 3.25 1.10622 3.25 1.43774V2.06274H1.375C1.04348 2.06274 0.725537 2.19444 0.491116 2.42886C0.256696 2.66328 0.125 2.98122 0.125 3.31274V16.4377C0.125 16.7693 0.256696 17.0872 0.491116 17.3216C0.725537 17.556 1.04348 17.6877 1.375 17.6877H12.625C12.9565 17.6877 13.2745 17.556 13.5089 17.3216C13.7433 17.0872 13.875 16.7693 13.875 16.4377V3.31274C13.875 2.98122 13.7433 2.66328 13.5089 2.42886C13.2745 2.19444 12.9565 2.06274 12.625 2.06274ZM4.5 1.43774H9.5V3.93774H4.5V1.43774ZM12.625 16.4377H1.375V3.31274H3.25V5.18774H10.75V3.31274H12.625V16.4377Z" fill="black"/>
</svg>
