<svg width="20" height="21" viewBox="0 0 20 21" fill="none" xmlns="http://www.w3.org/2000/svg">
<path fill-rule="evenodd" clip-rule="evenodd" d="M6.93709 4.82357L6.96 4.72357C7.00375 4.53774 7.07542 4.2644 7.22334 3.99524C7.37417 3.72107 7.60792 3.44315 7.97459 3.26024C8.34 3.07815 8.79792 3.01024 9.36417 3.08524C9.98917 3.16857 11.2446 3.37524 12.3538 3.9394C13.4692 4.5069 14.5142 5.48315 14.5142 7.10899C14.5142 7.94899 14.1892 8.85024 13.8742 9.43774C13.7229 9.72024 13.5433 9.99024 13.3633 10.1357C13.3221 10.169 13.2633 10.2107 13.1904 10.2398C12.9904 10.8971 12.5923 11.4766 12.0504 11.8991C11.5086 12.3215 10.8494 12.5663 10.1632 12.6C9.47695 12.6336 8.79705 12.4545 8.21647 12.0871C7.63588 11.7197 7.18295 11.1819 6.91959 10.5473L6.90959 10.549L6.76167 10.3694L6.76125 10.3686L6.76042 10.3677L6.75833 10.3648L6.75125 10.3565C6.71559 10.3121 6.68127 10.2667 6.64834 10.2202C6.55836 10.0954 6.47357 9.967 6.39417 9.83524C6.19833 9.51107 5.96209 9.0494 5.81084 8.51065C5.66 7.9719 5.59084 7.34024 5.74917 6.68857C5.90334 6.0544 6.26709 5.43024 6.92584 4.87274L6.93709 4.82357ZM7.63709 10.0894C7.8178 10.6091 8.16482 11.0547 8.62441 11.3572C9.08399 11.6597 9.6305 11.8022 10.1793 11.7627C10.7281 11.7231 11.2485 11.5038 11.66 11.1385C12.0715 10.7733 12.3511 10.2825 12.4554 9.74232L12.5025 9.75815C12.5008 9.73458 12.5 9.71095 12.5 9.68732C12.5 8.99774 12.4042 8.51649 12.315 8.21649C12.2976 8.15809 12.2783 8.10028 12.2571 8.04315L12.24 8.04399H12.2233C11.9118 8.05071 11.6003 8.02699 11.2933 7.97315C10.5779 7.85232 9.60917 7.55065 8.46834 6.8519C8.44334 6.90774 8.41833 6.97065 8.39333 7.04065C8.31167 7.2719 8.24459 7.54649 8.18667 7.83649C8.13542 8.0919 8.09333 8.34899 8.05333 8.58982L8.03792 8.68482C7.995 8.94315 7.95209 9.1969 7.90209 9.38065C7.81459 9.69982 7.72542 9.92649 7.63709 10.089V10.0894ZM7.05375 9.31315C6.86555 8.99011 6.71778 8.64517 6.61375 8.28607C6.48917 7.8419 6.44333 7.36107 6.55917 6.88565C6.67167 6.42315 6.94375 5.9369 7.50333 5.47607C7.60417 5.40774 7.65 5.31607 7.6625 5.29149V5.29107C7.68438 5.24602 7.70196 5.19901 7.715 5.15065C7.72834 5.10315 7.74292 5.03815 7.75667 4.97982L7.77125 4.9144C7.81083 4.74649 7.86209 4.56357 7.95375 4.39649C8.04292 4.23482 8.165 4.09649 8.34667 4.00607C8.52917 3.91482 8.81167 3.85232 9.25417 3.91149C9.85958 3.9919 10.9983 4.18482 11.9758 4.68232C12.9467 5.17607 13.6808 5.92357 13.6808 7.10899C13.6808 7.65482 13.4975 8.27565 13.2767 8.76524C13.235 8.44607 13.175 8.18524 13.1133 7.97857C13.0704 7.83086 13.0167 7.68646 12.9529 7.54649C12.9289 7.49461 12.9024 7.44387 12.8738 7.3944L12.8667 7.38315L12.8642 7.37899L12.8629 7.3769L12.8621 7.37565L12.7079 7.13649L12.4321 7.1919L12.4263 7.19315L12.3858 7.19857C12.3238 7.20548 12.2615 7.20965 12.1992 7.21107C11.9423 7.21603 11.6855 7.19594 11.4325 7.15107C10.7604 7.03774 9.77292 6.72899 8.57334 5.93024L8.28167 5.73565L8.04042 5.98982C7.84167 6.19899 7.70667 6.4844 7.60792 6.76232C7.50709 7.04774 7.43084 7.36649 7.36959 7.67232C7.3188 7.93258 7.27269 8.19374 7.23125 8.45565L7.21542 8.54899C7.17083 8.82024 7.13459 9.02732 7.09792 9.16149C7.08424 9.21234 7.06951 9.26291 7.05375 9.31315Z" fill="black"/>
<path fill-rule="evenodd" clip-rule="evenodd" d="M7.46417 12.9606C7.37583 12.7848 7.26708 12.5677 7.08333 12.6098C4.83167 13.1223 2.5 14.6019 2.5 16.1752V18.4377H17.5V16.1752C17.5 14.936 16.0533 13.7548 14.3387 13.0585L14.3367 13.0544C14.3348 13.0506 14.3328 13.0469 14.3308 13.0431L14.3171 13.0498C13.8617 12.8665 13.3875 12.7165 12.9167 12.6098C12.7071 12.5619 12.4904 12.8502 12.3958 13.0306H7.5C7.48833 13.009 7.47667 12.9848 7.46417 12.9606ZM13.0846 13.5106C13.2667 13.561 13.4479 13.6177 13.6267 13.6802C13.6317 13.8227 13.6208 13.991 13.5975 14.1627C13.5737 14.3404 13.5358 14.516 13.4842 14.6877H12.9167C12.8393 14.6877 12.7635 14.7093 12.6977 14.75C12.6319 14.7907 12.5787 14.8489 12.5442 14.9181L12.1275 15.7515C12.0985 15.8093 12.0834 15.873 12.0833 15.9377V16.771C12.0833 16.8815 12.1272 16.9875 12.2054 17.0657C12.2835 17.1438 12.3895 17.1877 12.5 17.1877H13.3333V16.3544H12.9167V16.036L13.1742 15.521H14.3258L14.5833 16.036V16.3544H14.1667V17.1877H15C15.1105 17.1877 15.2165 17.1438 15.2946 17.0657C15.3728 16.9875 15.4167 16.8815 15.4167 16.771V15.9377C15.4166 15.873 15.4015 15.8093 15.3725 15.7515L14.9558 14.9181C14.9213 14.8489 14.8681 14.7907 14.8023 14.75C14.7365 14.7093 14.6607 14.6877 14.5833 14.6877H14.3475C14.399 14.4672 14.4335 14.2431 14.4508 14.0173C14.8571 14.2094 15.2346 14.4298 15.5617 14.6681C16.3625 15.2523 16.6667 15.799 16.6667 16.1752V17.6044H3.33333V16.1752C3.33333 15.799 3.6375 15.2523 4.43833 14.6681C4.84083 14.3744 5.32125 14.1085 5.83625 13.8885C5.85055 14.2206 5.90384 14.5498 5.995 14.8694L5.99833 14.881C5.74923 15.0386 5.56384 15.2792 5.47489 15.5602C5.38594 15.8412 5.39916 16.1446 5.51222 16.4168C5.62527 16.6891 5.83089 16.9126 6.09275 17.0479C6.35461 17.1832 6.65587 17.2216 6.94332 17.1564C7.23077 17.0911 7.48591 16.9264 7.66369 16.6913C7.84146 16.4562 7.93043 16.1658 7.91488 15.8715C7.89933 15.5771 7.78025 15.2977 7.5787 15.0826C7.37714 14.8676 7.10606 14.7306 6.81333 14.696C6.76009 14.5217 6.72108 14.3433 6.69667 14.1627C6.67347 14.0012 6.66385 13.8379 6.66792 13.6748C6.66912 13.6436 6.67121 13.6125 6.67417 13.5815C6.72417 13.566 6.77417 13.551 6.82417 13.5369L6.99708 13.8644H12.8988L13.0846 13.511V13.5106ZM6.66667 16.361C6.89083 16.361 7.08333 16.1777 7.08333 15.9381C7.08333 15.699 6.89083 15.5152 6.66667 15.5152C6.4425 15.5152 6.25 15.6985 6.25 15.9381C6.25 16.1773 6.4425 16.361 6.66667 16.361Z" fill="black"/>
</svg>
