<svg width="21" height="26" viewBox="0 0 21 26" fill="none" xmlns="http://www.w3.org/2000/svg">
<path d="M15.1154 2.84619H17.8846C18.3742 2.84619 18.8438 3.0407 19.19 3.38692C19.5363 3.73314 19.7308 4.20271 19.7308 4.69235V23.1539C19.7308 23.6435 19.5363 24.1131 19.19 24.4593C18.8438 24.8055 18.3742 25 17.8846 25H3.11538C2.62575 25 2.15617 24.8055 1.80995 24.4593C1.46373 24.1131 1.26923 23.6435 1.26923 23.1539V4.69235C1.26923 4.20271 1.46373 3.73314 1.80995 3.38692C2.15617 3.0407 2.62575 2.84619 3.11538 2.84619H5.88461" stroke="#808080" stroke-linecap="round" stroke-linejoin="round"/>
<path d="M13.2692 1H7.73077C6.71116 1 5.88461 1.82655 5.88461 2.84615V3.76923C5.88461 4.78883 6.71116 5.61538 7.73077 5.61538H13.2692C14.2888 5.61538 15.1154 4.78883 15.1154 3.76923V2.84615C15.1154 1.82655 14.2888 1 13.2692 1Z" stroke="#808080" stroke-linecap="round" stroke-linejoin="round"/>
<path d="M5.88461 10.2307H15.1154M5.88461 14.8461H15.1154M5.88461 19.4615H15.1154" stroke="#808080" stroke-linecap="round" stroke-linejoin="round"/>
</svg>
