<svg width="17" height="16" viewBox="0 0 17 16" fill="none" xmlns="http://www.w3.org/2000/svg">
<path d="M16.9044 4.90413L11.9904 0.0940488C11.96 0.0642339 11.9238 0.0405815 11.8841 0.0244439C11.8443 0.00830633 11.8017 0 11.7586 0C11.7155 0 11.6729 0.00830633 11.6331 0.0244439C11.5934 0.0405815 11.5572 0.0642339 11.5268 0.0940488L0.942895 10.4542C0.332167 11.0703 -0.00647869 11.8968 9.39148e-05 12.7553C0.00666652 13.6137 0.35793 14.4352 0.978023 15.0423C1.59812 15.6493 2.43728 15.9933 3.31427 15.9999C4.19127 16.0065 5.03571 15.6751 5.66525 15.0774L14.8839 6.05213L16.7758 5.43484C16.8288 5.41759 16.8763 5.38739 16.914 5.34708C16.9517 5.30678 16.9783 5.25772 16.9912 5.20455C17.004 5.15139 17.0028 5.09588 16.9876 5.0433C16.9725 4.99073 16.9438 4.94282 16.9044 4.90413ZM5.20169 14.6237C4.6983 15.1163 4.0156 15.393 3.30378 15.393C2.59196 15.3929 1.90932 15.116 1.40604 14.6233C0.902759 14.1305 0.620062 13.4623 0.620139 12.7655C0.620216 12.0687 0.90306 11.4005 1.40645 10.9079L3.81431 8.54776C4.56779 8.27679 5.77499 8.14051 7.34501 8.94299C8.33518 9.44885 9.20742 9.62281 9.93797 9.62281C10.0723 9.62281 10.2 9.6156 10.3254 9.60518L5.20169 14.6237ZM14.6038 5.46771C14.5552 5.48432 14.5112 5.51177 14.4752 5.54787L11.1853 8.76902C10.4318 9.03999 9.22462 9.17628 7.6546 8.3738C6.48343 7.77494 5.4777 7.64186 4.67508 7.71081L11.7586 0.773873L16.0665 4.99071L14.6038 5.46771Z" fill="#009CAA"/>
</svg>
