<svg width="24" height="14" viewBox="0 0 24 14" fill="none" xmlns="http://www.w3.org/2000/svg">
<path d="M13.1619 2.32512C13.1619 2.1198 13.2435 1.92289 13.3886 1.77771C13.5338 1.63253 13.7307 1.55097 13.936 1.55097H23.2259C23.4312 1.55097 23.6281 1.63253 23.7733 1.77771C23.9184 1.92289 24 2.1198 24 2.32512C24 2.53044 23.9184 2.72734 23.7733 2.87252C23.6281 3.01771 23.4312 3.09927 23.2259 3.09927H13.936C13.7307 3.09927 13.5338 3.01771 13.3886 2.87252C13.2435 2.72734 13.1619 2.53044 13.1619 2.32512ZM23.2259 6.19587H13.936C13.7307 6.19587 13.5338 6.27743 13.3886 6.42261C13.2435 6.56779 13.1619 6.7647 13.1619 6.97002C13.1619 7.17534 13.2435 7.37224 13.3886 7.51743C13.5338 7.66261 13.7307 7.74417 13.936 7.74417H23.2259C23.4312 7.74417 23.6281 7.66261 23.7733 7.51743C23.9184 7.37224 24 7.17534 24 6.97002C24 6.7647 23.9184 6.56779 23.7733 6.42261C23.6281 6.27743 23.4312 6.19587 23.2259 6.19587ZM23.2259 10.8408H16.2585C16.0532 10.8408 15.8563 10.9223 15.7111 11.0675C15.5659 11.2127 15.4843 11.4096 15.4843 11.6149C15.4843 11.8202 15.5659 12.0171 15.7111 12.1623C15.8563 12.3075 16.0532 12.3891 16.2585 12.3891H23.2259C23.4312 12.3891 23.6281 12.3075 23.7733 12.1623C23.9184 12.0171 24 11.8202 24 11.6149C24 11.4096 23.9184 11.2127 23.7733 11.0675C23.6281 10.9223 23.4312 10.8408 23.2259 10.8408ZM13.9119 12.9697C13.9372 13.0682 13.9428 13.1707 13.9285 13.2713C13.9142 13.372 13.8802 13.4689 13.8284 13.5564C13.7767 13.6439 13.7082 13.7204 13.6268 13.7815C13.5455 13.8425 13.453 13.8869 13.3545 13.9122C13.2914 13.9292 13.2263 13.9377 13.1609 13.9374C12.9892 13.9375 12.8224 13.8805 12.6866 13.7754C12.5509 13.6703 12.4539 13.523 12.411 13.3568C11.8149 11.0401 9.47501 9.29247 6.96773 9.29247C4.46045 9.29247 2.12058 11.0391 1.52449 13.3568C1.47316 13.5557 1.34492 13.726 1.16798 13.8304C0.991039 13.9347 0.779894 13.9645 0.580993 13.9132C0.382091 13.8618 0.211727 13.7336 0.107378 13.5567C0.00302911 13.3797 -0.0267571 13.1686 0.0245723 12.9697C0.56551 10.8688 2.138 9.16764 4.13337 8.32478C3.36506 7.733 2.80124 6.91558 2.521 5.98716C2.24075 5.05873 2.25813 4.06588 2.5707 3.14783C2.88327 2.22979 3.47535 1.4326 4.2639 0.868075C5.05246 0.303549 5.99793 0 6.96773 0C7.93753 0 8.883 0.303549 9.67156 0.868075C10.4601 1.4326 11.0522 2.22979 11.3648 3.14783C11.6773 4.06588 11.6947 5.05873 11.4145 5.98716C11.1342 6.91558 10.5704 7.733 9.80209 8.32478C11.7984 9.16764 13.3709 10.8688 13.9119 12.9697ZM6.9687 7.74417C7.58115 7.74417 8.17984 7.56256 8.68908 7.2223C9.19831 6.88204 9.59521 6.39842 9.82959 5.83259C10.064 5.26676 10.1253 4.64413 10.0058 4.04345C9.88632 3.44277 9.59139 2.89101 9.15833 2.45794C8.72526 2.02487 8.1735 1.72995 7.57282 1.61047C6.97213 1.49098 6.34951 1.55231 5.78368 1.78668C5.21785 2.02106 4.73423 2.41796 4.39397 2.92719C4.05371 3.43642 3.8721 4.03512 3.8721 4.64757C3.8721 5.46884 4.19835 6.25647 4.77907 6.83719C5.3598 7.41792 6.14743 7.74417 6.9687 7.74417Z" fill="black"/>
</svg>
