<?xml version="1.0" ?><svg id="Layer_1_1_" style="enable-background:new 0 0 64 64;" version="1.1" viewBox="0 0 64 64" xml:space="preserve" xmlns="http://www.w3.org/2000/svg" xmlns:xlink="http://www.w3.org/1999/xlink"><g><path d="M18,37h4c1.103,0,2,0.897,2,2h2c0-2.206-1.794-4-4-4h-1v-2h-2v2h-1c-2.206,0-4,1.794-4,4v2   c0,2.206,1.794,4,4,4h4c1.103,0,2,0.897,2,2v2c0,1.103-0.897,2-2,2h-4c-1.103,0-2-0.897-2-2h-2c0,2.206,1.794,4,4,4h1v2h2v-2h1   c2.206,0,4-1.794,4-4v-2c0-2.206-1.794-4-4-4h-4c-1.103,0-2-0.897-2-2v-2C16,37.897,16.897,37,18,37z" style="fill:#3F3A34;"/><path d="M54.813,17.389C55.534,16.84,56,15.974,56,15v-2c0-1.629-1.306-2.952-2.926-2.992l2.121-2.652   C55.714,6.708,56,5.893,56,5.063V4.671C56,2.647,54.353,1,52.329,1c-0.299,0-0.598,0.037-0.89,0.109L44,2.969l-7.439-1.86   C36.269,1.037,35.97,1,35.671,1C33.647,1,32,2.647,32,4.671v0.392c0,0.83,0.286,1.645,0.805,2.293l2.121,2.652   C33.306,10.048,32,11.371,32,13v2c0,0.976,0.468,1.844,1.191,2.392c-1.468,1.019-2.789,2.254-3.917,3.636   c-0.067-0.006-0.132-0.018-0.2-0.02l2.121-2.652C31.714,17.708,32,16.893,32,16.063v-0.392C32,13.647,30.353,12,28.329,12   c-0.299,0-0.598,0.037-0.89,0.109L20,13.969l-7.439-1.86C12.269,12.037,11.97,12,11.671,12C9.647,12,8,13.647,8,15.671v0.392   c0,0.83,0.286,1.645,0.805,2.293l2.121,2.652C9.306,21.048,8,22.371,8,24v2c0,0.974,0.466,1.84,1.187,2.389   C4.083,31.913,1,37.696,1,44c0,10.477,8.523,19,19,19c8.041,0,14.914-5.029,17.683-12.099C39.708,51.616,41.824,52,44,52   c10.477,0,19-8.523,19-19C63,26.696,59.917,20.913,54.813,17.389z M34,5.063V4.671c0-1.058,1.048-1.882,2.076-1.622L44,5.031   l7.923-1.981C52.956,2.791,54,3.614,54,4.671v0.392c0,0.378-0.13,0.749-0.366,1.044L50.52,10H37.48l-3.114-3.893   C34.13,5.812,34,5.441,34,5.063z M34,13c0-0.551,0.449-1,1-1h18c0.551,0,1,0.449,1,1v2c0,0.551-0.449,1-1,1h-0.778h-4.126h-8.19H35   c-0.551,0-1-0.449-1-1V13z M10,16.063v-0.392c0-1.058,1.048-1.881,2.076-1.622L20,16.031l7.923-1.981   C28.957,13.791,30,14.614,30,15.671v0.392c0,0.378-0.13,0.749-0.366,1.044L26.52,21H13.48l-3.114-3.893   C10.13,16.812,10,16.441,10,16.063z M10,24c0-0.551,0.449-1,1-1h18c0.551,0,1,0.449,1,1v2c0,0.551-0.449,1-1,1h-0.778h-4.126h-8.19   H11c-0.551,0-1-0.449-1-1V24z M20,61c-9.374,0-17-7.626-17-17c0-6.311,3.459-12.034,9.038-15h15.924C33.541,31.966,37,37.689,37,44   C37,53.374,29.374,61,20,61z M44,50c-1.961,0-3.868-0.349-5.69-0.998C38.747,47.406,39,45.734,39,44   c0-1.351-0.15-2.675-0.422-3.961C39.277,41.208,40.542,42,42,42h1v2h2v-2h1c2.206,0,4-1.794,4-4v-2c0-2.206-1.794-4-4-4h-4   c-1.103,0-2-0.897-2-2v-2c0-1.103,0.897-2,2-2h4c1.103,0,2,0.897,2,2h2c0-2.206-1.794-4-4-4h-1v-2h-2v2h-1c-2.206,0-4,1.794-4,4v2   c0,2.206,1.794,4,4,4h4c1.103,0,2,0.897,2,2v2c0,1.103-0.897,2-2,2h-4c-1.103,0-2-0.897-2-2h-1.973   c-1.285-3.869-3.792-7.249-7.214-9.611C31.534,27.84,32,26.974,32,26v-2c0-0.808-0.325-1.54-0.846-2.08   c1.378-1.589,3.042-2.936,4.894-3.92h15.914C57.541,20.966,61,26.689,61,33C61,42.374,53.374,50,44,50z" style="fill:#3F3A34;"/><path d="M7,44H5c0,6.588,4.406,12.5,10.714,14.378l0.57-1.917C10.818,54.834,7,49.71,7,44z" style="fill:#3F3A34;"/><path d="M17.859,58.848C18.563,58.949,19.284,59,20,59v-2c-0.622,0-1.247-0.044-1.859-0.131L17.859,58.848z" style="fill:#3F3A34;"/></g></svg>