<svg xmlns="http://www.w3.org/2000/svg" width="30" height="30" viewBox="0 0 30 30">
  <g id="not" transform="translate(-380 -40)">
    <path id="help_BG" data-name="help BG" d="M0,15A15,15,0,1,1,15,30,15,15,0,0,1,0,15Z" transform="translate(380 40)" fill="rgba(255,255,255,0.11)"/>
    <g id="notification-line" transform="translate(383.293 44.3)">
      <path id="Path_8634" data-name="Path 8634" d="M19.172,15.726a7.383,7.383,0,0,1-1.287-1.5,6.476,6.476,0,0,1-.692-2.466V9.224a5.543,5.543,0,0,0-4.84-5.512V3.051a.684.684,0,1,0-1.369,0v.672A5.543,5.543,0,0,0,6.2,9.224v2.533a6.476,6.476,0,0,1-.692,2.466,7.383,7.383,0,0,1-1.266,1.5.513.513,0,0,0-.174.385v.7a.513.513,0,0,0,.513.513H18.833a.513.513,0,0,0,.513-.513v-.7A.513.513,0,0,0,19.172,15.726ZM5.133,16.3a8.291,8.291,0,0,0,1.251-1.538,7.3,7.3,0,0,0,.846-3V9.224a4.481,4.481,0,1,1,8.957,0v2.533a7.3,7.3,0,0,0,.846,3A8.291,8.291,0,0,0,18.285,16.3Z" fill="#fff"/>
      <path id="Path_8635" data-name="Path 8635" d="M21.8,43.836a1.369,1.369,0,0,0,1.323-1.169h-2.7A1.369,1.369,0,0,0,21.8,43.836Z" transform="translate(-10.069 -24.803)" fill="#fff"/>
    </g>
  </g>
</svg>
