<svg width="27" height="22" viewBox="0 0 27 22" fill="none" xmlns="http://www.w3.org/2000/svg">
<path d="M22.5 9C22.5 9.26522 22.3946 9.51957 22.2071 9.70711C22.0196 9.89464 21.7652 10 21.5 10H16.5C16.2348 10 15.9804 9.89464 15.7929 9.70711C15.6054 9.51957 15.5 9.26522 15.5 9C15.5 8.73478 15.6054 8.48043 15.7929 8.29289C15.9804 8.10536 16.2348 8 16.5 8H21.5C21.7652 8 22.0196 8.10536 22.2071 8.29289C22.3946 8.48043 22.5 8.73478 22.5 9ZM21.5 12H16.5C16.2348 12 15.9804 12.1054 15.7929 12.2929C15.6054 12.4804 15.5 12.7348 15.5 13C15.5 13.2652 15.6054 13.5196 15.7929 13.7071C15.9804 13.8946 16.2348 14 16.5 14H21.5C21.7652 14 22.0196 13.8946 22.2071 13.7071C22.3946 13.5196 22.5 13.2652 22.5 13C22.5 12.7348 22.3946 12.4804 22.2071 12.2929C22.0196 12.1054 21.7652 12 21.5 12ZM26.5 2V20C26.5 20.5304 26.2893 21.0391 25.9142 21.4142C25.5391 21.7893 25.0304 22 24.5 22H2.5C1.96957 22 1.46086 21.7893 1.08579 21.4142C0.710714 21.0391 0.5 20.5304 0.5 20V2C0.5 1.46957 0.710714 0.960859 1.08579 0.585786C1.46086 0.210714 1.96957 0 2.5 0H24.5C25.0304 0 25.5391 0.210714 25.9142 0.585786C26.2893 0.960859 26.5 1.46957 26.5 2ZM24.5 20V2H2.5V20H24.5ZM14.4675 15.75C14.5338 16.0069 14.4953 16.2797 14.3605 16.5082C14.2257 16.7368 14.0057 16.9024 13.7488 16.9688C13.4918 17.0351 13.2191 16.9966 12.9905 16.8618C12.762 16.727 12.5963 16.5069 12.53 16.25C12.2013 14.9675 10.8975 14 9.49875 14C8.1 14 6.7975 14.9675 6.4675 16.25C6.4012 16.5069 6.23554 16.727 6.00698 16.8618C5.77842 16.9966 5.50568 17.0351 5.24875 16.9688C4.99182 16.9024 4.77176 16.7368 4.63696 16.5082C4.50217 16.2797 4.4637 16.0069 4.53 15.75C4.8545 14.5422 5.62157 13.5007 6.67875 12.8325C6.11696 12.274 5.73363 11.5614 5.57736 10.7848C5.42109 10.0082 5.49891 9.20273 5.80096 8.47044C6.10301 7.73815 6.61568 7.11202 7.274 6.67145C7.93231 6.23087 8.70661 5.99567 9.49875 5.99567C10.2909 5.99567 11.0652 6.23087 11.7235 6.67145C12.3818 7.11202 12.8945 7.73815 13.1965 8.47044C13.4986 9.20273 13.5764 10.0082 13.4201 10.7848C13.2639 11.5614 12.8805 12.274 12.3188 12.8325C13.3771 13.4997 14.1448 14.5416 14.4688 15.75H14.4675ZM9.5 12C9.89556 12 10.2822 11.8827 10.6111 11.6629C10.94 11.4432 11.1964 11.1308 11.3478 10.7654C11.4991 10.3999 11.5387 9.99778 11.4616 9.60982C11.3844 9.22186 11.1939 8.86549 10.9142 8.58579C10.6345 8.30608 10.2781 8.1156 9.89018 8.03843C9.50222 7.96126 9.10009 8.00087 8.73463 8.15224C8.36918 8.30362 8.05682 8.55996 7.83706 8.88886C7.6173 9.21776 7.5 9.60444 7.5 10C7.5 10.5304 7.71071 11.0391 8.08579 11.4142C8.46086 11.7893 8.96957 12 9.5 12Z" fill="black"/>
</svg>
