<svg width="21" height="20" viewBox="0 0 21 20" fill="none" xmlns="http://www.w3.org/2000/svg">
<path d="M20.7213 19.0604C19.11 16.2761 16.5804 14.3224 13.6411 13.4938C15.0702 12.7674 16.2129 11.5809 16.885 10.1255C17.5572 8.67022 17.7196 7.03094 17.3462 5.47201C16.9727 3.91308 16.085 2.52536 14.8264 1.53263C13.5677 0.539895 12.0114 0 10.4084 0C8.80531 0 7.24898 0.539895 5.99032 1.53263C4.73166 2.52536 3.84402 3.91308 3.47054 5.47201C3.09706 7.03094 3.2595 8.67022 3.93167 10.1255C4.60383 11.5809 5.74655 12.7674 7.17557 13.4938C4.2363 14.3213 1.70674 16.2751 0.0954451 19.0604C0.0512009 19.13 0.0214926 19.2079 0.00810743 19.2893C-0.00527769 19.3706 -0.00206291 19.4539 0.0175581 19.534C0.0371791 19.6141 0.0728008 19.6894 0.122281 19.7554C0.17176 19.8214 0.234075 19.8766 0.305477 19.9179C0.376879 19.9592 0.455891 19.9856 0.537761 19.9955C0.619632 20.0055 0.702667 19.9988 0.781874 19.9758C0.86108 19.9528 0.934819 19.914 0.998656 19.8618C1.06249 19.8096 1.11511 19.745 1.15334 19.6719C3.11115 16.2893 6.57019 14.2704 10.4084 14.2704C14.2465 14.2704 17.7056 16.2893 19.6634 19.6719C19.7016 19.745 19.7542 19.8096 19.818 19.8618C19.8819 19.914 19.9556 19.9528 20.0348 19.9758C20.114 19.9988 20.1971 20.0055 20.2789 19.9955C20.3608 19.9856 20.4398 19.9592 20.5112 19.9179C20.5826 19.8766 20.6449 19.8214 20.6944 19.7554C20.7439 19.6894 20.7795 19.6141 20.7991 19.534C20.8188 19.4539 20.822 19.3706 20.8086 19.2893C20.7952 19.2079 20.7655 19.13 20.7213 19.0604ZM4.49721 7.13624C4.49721 5.96713 4.84389 4.82427 5.49342 3.85219C6.14294 2.88011 7.06613 2.12246 8.14626 1.67506C9.22638 1.22766 10.4149 1.1106 11.5616 1.33868C12.7082 1.56676 13.7615 2.12975 14.5882 2.95643C15.4149 3.78312 15.9778 4.83639 16.2059 5.98304C16.434 7.12969 16.3169 8.31822 15.8695 9.39834C15.4221 10.4785 14.6645 11.4017 13.6924 12.0512C12.7203 12.7007 11.5775 13.0474 10.4084 13.0474C8.8412 13.0455 7.33877 12.4221 6.23063 11.314C5.12248 10.2058 4.4991 8.7034 4.49721 7.13624Z" fill="black"/>
</svg>
