<svg xmlns="http://www.w3.org/2000/svg" width="16.81" height="23.908" viewBox="0 0 16.81 23.908">
  <g id="placeholder" transform="translate(-76)">
    <path id="Path_50756" data-name="Path 50756" d="M84.405,0A8.412,8.412,0,0,0,76,8.405a8.288,8.288,0,0,0,1.261,4.413l6.575,10.759a.664.664,0,0,0,.476.322.7.7,0,0,0,.714-.336L91.62,12.706a8.29,8.29,0,0,0,1.191-4.3A8.412,8.412,0,0,0,84.405,0Zm0,12.608a4.2,4.2,0,1,1,4.2-4.2A4.2,4.2,0,0,1,84.405,12.608Z" transform="translate(0 0)" fill="#28cce6"/>
    <path id="Path_50757" data-name="Path 50757" d="M256,0V4.2a4.2,4.2,0,1,1,0,8.405v11.3a.694.694,0,0,0,.621-.344l6.593-10.857a8.289,8.289,0,0,0,1.191-4.3A8.412,8.412,0,0,0,256,0Z" transform="translate(-171.595 0)" fill="#0dbbd6"/>
  </g>
</svg>
