<svg width="20" height="20" viewBox="0 0 20 20" fill="none" xmlns="http://www.w3.org/2000/svg">
<path d="M17.3077 12.3077C17.3077 12.5359 17.24 12.759 17.1132 12.9487C16.9864 13.1385 16.8062 13.2864 16.5954 13.3737C16.3846 13.461 16.1526 13.4839 15.9287 13.4394C15.7049 13.3948 15.4993 13.285 15.338 13.1236C15.1766 12.9622 15.0667 12.7566 15.0222 12.5328C14.9776 12.309 15.0005 12.077 15.0878 11.8661C15.1752 11.6553 15.3231 11.4751 15.5128 11.3483C15.7026 11.2215 15.9256 11.1538 16.1538 11.1538C16.4599 11.1538 16.7533 11.2754 16.9697 11.4918C17.1861 11.7082 17.3077 12.0017 17.3077 12.3077ZM16.8702 16.0856C16.7012 17.1748 16.1486 18.1679 15.3121 18.8856C14.4755 19.6034 13.41 19.9986 12.3077 20H10C8.77631 19.9987 7.60311 19.5121 6.73784 18.6468C5.87256 17.7815 5.38589 16.6083 5.38462 15.3846V11.4894C3.89762 11.3021 2.53011 10.5785 1.53872 9.45452C0.547319 8.33052 0.000188082 6.88336 0 5.38462V1.53846C0 1.13044 0.162087 0.739122 0.450605 0.450605C0.739122 0.162087 1.13044 0 1.53846 0H3.07692C3.28094 0 3.47659 0.0810437 3.62085 0.225302C3.76511 0.369561 3.84615 0.565218 3.84615 0.769231C3.84615 0.973243 3.76511 1.1689 3.62085 1.31316C3.47659 1.45742 3.28094 1.53846 3.07692 1.53846H1.53846V5.38462C1.53841 5.99593 1.6598 6.60116 1.89558 7.16518C2.13136 7.72919 2.47684 8.24074 2.91196 8.67014C3.34708 9.09953 3.86316 9.4382 4.43025 9.6665C4.99734 9.89479 5.60413 10.0082 6.21538 10C8.72596 9.96731 10.7692 7.86058 10.7692 5.30481V1.53846H9.23077C9.02676 1.53846 8.8311 1.45742 8.68684 1.31316C8.54258 1.1689 8.46154 0.973243 8.46154 0.769231C8.46154 0.565218 8.54258 0.369561 8.68684 0.225302C8.8311 0.0810437 9.02676 0 9.23077 0H10.7692C11.1773 0 11.5686 0.162087 11.8571 0.450605C12.1456 0.739122 12.3077 1.13044 12.3077 1.53846V5.30481C12.3077 8.4625 9.94904 11.1019 6.92308 11.4885V15.3846C6.92308 16.2007 7.24725 16.9833 7.82429 17.5603C8.40132 18.1374 9.18395 18.4615 10 18.4615H12.3077C13.0064 18.4604 13.684 18.2219 14.2295 17.7851C14.7749 17.3484 15.1557 16.7393 15.3096 16.0577C14.3806 15.849 13.562 15.3032 13.0123 14.5258C12.4625 13.7484 12.2207 12.7947 12.3335 11.8492C12.4463 10.9038 12.9059 10.0338 13.6232 9.40762C14.3404 8.78144 15.2645 8.44359 16.2165 8.45942C17.1685 8.47526 18.0809 8.84367 18.7769 9.49335C19.473 10.143 19.9033 11.0278 19.9846 11.9765C20.066 12.9252 19.7925 13.8703 19.2172 14.629C18.6419 15.3877 17.8056 15.906 16.8702 16.0837V16.0856ZM18.4615 12.3077C18.4615 11.8513 18.3262 11.4051 18.0726 11.0256C17.819 10.6461 17.4586 10.3503 17.037 10.1757C16.6153 10.001 16.1513 9.9553 15.7036 10.0443C15.256 10.1334 14.8448 10.3532 14.5221 10.6759C14.1993 10.9986 13.9795 11.4098 13.8905 11.8575C13.8015 12.3051 13.8472 12.7691 14.0218 13.1908C14.1965 13.6125 14.4923 13.9729 14.8718 14.2265C15.2513 14.48 15.6974 14.6154 16.1538 14.6154C16.7659 14.6154 17.3529 14.3723 17.7856 13.9395C18.2184 13.5067 18.4615 12.9197 18.4615 12.3077Z" fill="black"/>
</svg>
