<svg id="setting_on" xmlns="http://www.w3.org/2000/svg" width="19.59" height="21.052" viewBox="0 0 19.59 21.052">
  <path id="XMLID_111_" d="M14.547,11a3.547,3.547,0,1,0,3.547,3.547A3.551,3.551,0,0,0,14.547,11Zm0,5.675a2.128,2.128,0,1,1,2.128-2.128A2.131,2.131,0,0,1,14.547,16.675Z" transform="translate(-4.751 -4.021)" fill="#157de6"/>
  <path id="XMLID_114_" d="M21.434,14.057l-.4-.229a1.5,1.5,0,0,1,0-2.6l.4-.229a2.254,2.254,0,0,0,.826-3.081l-.752-1.3a2.258,2.258,0,0,0-3.081-.826l-.4.228a1.5,1.5,0,0,1-2.256-1.3V4.256A2.258,2.258,0,0,0,13.519,2h-1.5A2.258,2.258,0,0,0,9.76,4.256v.457A1.5,1.5,0,0,1,7.5,6.015l-.4-.229a2.259,2.259,0,0,0-3.082.826l-.752,1.3A2.254,2.254,0,0,0,4.1,11l.4.229a1.5,1.5,0,0,1,0,2.6l-.4.229a2.254,2.254,0,0,0-.826,3.081l.752,1.3a2.258,2.258,0,0,0,3.081.826l.4-.228a1.5,1.5,0,0,1,2.256,1.3V20.8a2.258,2.258,0,0,0,2.256,2.256h1.5A2.258,2.258,0,0,0,15.775,20.8V20.34a1.5,1.5,0,0,1,2.256-1.3l.4.229a2.259,2.259,0,0,0,3.081-.826l.752-1.3a2.254,2.254,0,0,0-.826-3.081Zm-.477,2.329-.752,1.3a.751.751,0,0,1-1.027.275l-.4-.229a3.008,3.008,0,0,0-4.511,2.6V20.8a.753.753,0,0,1-.752.752h-1.5a.753.753,0,0,1-.752-.752V20.34a3.008,3.008,0,0,0-4.511-2.6l-.4.229a.751.751,0,0,1-1.027-.275l-.752-1.3a.752.752,0,0,1,.275-1.027l.4-.229a3.007,3.007,0,0,0,0-5.209l-.4-.229a.752.752,0,0,1-.275-1.027l.752-1.3a.753.753,0,0,1,1.027-.275l.4.229a3.008,3.008,0,0,0,4.511-2.6V4.256a.753.753,0,0,1,.752-.752h1.5a.753.753,0,0,1,.752.752v.457a3.008,3.008,0,0,0,4.511,2.6l.4-.229a.752.752,0,0,1,1.027.275l.752,1.3a.752.752,0,0,1-.275,1.027l-.4.229a3.007,3.007,0,0,0,0,5.209l.4.229A.752.752,0,0,1,20.957,16.386Z" transform="translate(-2.972 -2)" fill="#157de6"/>
</svg>
