<svg width="25" height="24" viewBox="0 0 25 24" fill="none" xmlns="http://www.w3.org/2000/svg">
<path d="M12.4998 6.7535C11.4623 6.7535 10.448 7.06118 9.58526 7.63763C8.72255 8.21408 8.05015 9.0334 7.65308 9.992C7.25602 10.9506 7.15213 12.0054 7.35455 13.023C7.55697 14.0407 8.05661 14.9754 8.79029 15.7091C9.52397 16.4428 10.4587 16.9424 11.4764 17.1449C12.494 17.3473 13.5488 17.2434 14.5074 16.8463C15.466 16.4493 16.2853 15.7769 16.8618 14.9142C17.4382 14.0514 17.7459 13.0372 17.7459 11.9996C17.7443 10.6087 17.1911 9.27528 16.2076 8.29179C15.2241 7.3083 13.8907 6.75508 12.4998 6.7535ZM12.4998 16.2918C11.6509 16.2918 10.821 16.0401 10.1152 15.5685C9.40933 15.0968 8.85918 14.4265 8.53431 13.6422C8.20944 12.8579 8.12444 11.9948 8.29005 11.1622C8.45567 10.3296 8.86447 9.56479 9.46475 8.96451C10.065 8.36423 10.8298 7.95543 11.6625 7.78981C12.4951 7.62419 13.3581 7.70919 14.1424 8.03406C14.9267 8.35893 15.5971 8.90908 16.0687 9.61494C16.5403 10.3208 16.7921 11.1507 16.7921 11.9996C16.7921 13.138 16.3399 14.2297 15.5349 15.0347C14.73 15.8396 13.6382 16.2918 12.4998 16.2918ZM22.5067 12.4181C22.5171 12.1391 22.5171 11.8609 22.5067 11.5835L24.3941 9.22393C24.441 9.16569 24.4735 9.09726 24.489 9.02415C24.5045 8.95104 24.5027 8.87531 24.4836 8.80305C24.2011 7.74694 23.7797 6.73299 23.2305 5.78775C23.1937 5.72277 23.1421 5.66735 23.08 5.62593C23.0179 5.58451 22.9469 5.55826 22.8728 5.54929L19.8694 5.21545C19.681 5.01157 19.4831 4.81365 19.2792 4.62526L18.9466 1.62665C18.9376 1.55252 18.9113 1.48154 18.8699 1.41941C18.8285 1.35729 18.7731 1.30575 18.7081 1.26896C17.7641 0.72097 16.7518 0.30003 15.6976 0.0170558C15.6254 -0.00222348 15.5497 -0.00428353 15.4766 0.0110414C15.4035 0.0263664 15.335 0.0586478 15.2767 0.105285L12.9183 1.99268C12.6393 1.98155 12.3611 1.98155 12.0837 1.99268L9.72179 0.105285C9.66355 0.0584437 9.59512 0.0259459 9.52201 0.0104131C9.4489 -0.00511976 9.37317 -0.00325282 9.30091 0.0158635C8.24563 0.298539 7.23249 0.719911 6.28799 1.26896C6.22302 1.30575 6.16759 1.35729 6.12617 1.41941C6.08476 1.48154 6.05851 1.55252 6.04953 1.62665L5.71569 4.63003C5.51181 4.81841 5.31389 5.01633 5.12551 5.22022L2.12689 5.55287C2.05277 5.56184 1.98178 5.58809 1.91966 5.62951C1.85753 5.67093 1.806 5.72635 1.76921 5.79132C1.22121 6.73536 0.800274 7.74762 0.5173 8.80186C0.498021 8.87402 0.495961 8.94971 0.511286 9.02281C0.526611 9.09591 0.558892 9.1644 0.605529 9.22274L2.49293 11.5811C2.4818 11.8601 2.4818 12.1383 2.49293 12.4157L0.605529 14.7776C0.558688 14.8359 0.52619 14.9043 0.510657 14.9774C0.495124 15.0505 0.496991 15.1263 0.516108 15.1985C0.798783 16.2538 1.22016 17.2669 1.76921 18.2114C1.806 18.2764 1.85753 18.3318 1.91966 18.3732C1.98178 18.4147 2.05277 18.4409 2.12689 18.4499L5.13028 18.7837C5.31866 18.9876 5.51658 19.1855 5.72046 19.3739L6.0543 22.3785C6.06327 22.4526 6.08953 22.5236 6.13094 22.5857C6.17236 22.6478 6.22779 22.6994 6.29276 22.7362C7.23816 23.2828 8.25163 23.7021 9.30687 23.9833C9.37904 24.0026 9.45472 24.0046 9.52782 23.9893C9.60093 23.974 9.66941 23.9417 9.72775 23.8951L12.0861 22.0077C12.3651 22.018 12.6433 22.018 12.9207 22.0077L15.2803 23.8951C15.3648 23.9629 15.4699 23.9999 15.5783 24C15.6186 23.9999 15.6586 23.9947 15.6976 23.9845C16.7533 23.7015 17.7669 23.2798 18.7117 22.7302C18.7766 22.6934 18.8321 22.6419 18.8735 22.5798C18.9149 22.5176 18.9412 22.4466 18.9501 22.3725L19.284 19.3691C19.4879 19.1808 19.6858 18.9828 19.8742 18.779L22.8787 18.4451C22.9529 18.4361 23.0238 18.4099 23.086 18.3685C23.1481 18.3271 23.1996 18.2716 23.2364 18.2067C23.783 17.2613 24.2024 16.2478 24.4836 15.1925C24.5028 15.1204 24.5049 15.0447 24.4896 14.9716C24.4742 14.8985 24.442 14.83 24.3953 14.7717L22.5067 12.4181ZM22.527 17.5247L19.5856 17.8514C19.4683 17.8644 19.36 17.9205 19.2816 18.0087C19.0398 18.2815 18.7818 18.5395 18.509 18.7813C18.4207 18.8597 18.3646 18.968 18.3516 19.0854L18.0249 22.0256C17.283 22.4357 16.4976 22.7616 15.6832 22.9973L13.3726 21.148C13.2879 21.0806 13.1828 21.0441 13.0745 21.0443H13.0459C12.6822 21.067 12.3175 21.067 11.9538 21.0443C11.8358 21.0372 11.7194 21.0742 11.6271 21.148L9.3176 22.9961C8.50294 22.7614 7.71711 22.4362 6.97475 22.0268L6.64806 19.0854C6.63504 18.968 6.57896 18.8597 6.49068 18.7813C6.21788 18.5395 5.95988 18.2815 5.71808 18.0087C5.6397 17.9205 5.53137 17.8644 5.41404 17.8514L2.47385 17.5247C2.06374 16.7827 1.73781 15.9973 1.50213 15.183L3.35138 12.8723C3.42524 12.7801 3.46221 12.6636 3.45511 12.5457C3.43365 12.1819 3.43365 11.8172 3.45511 11.4535C3.46221 11.3355 3.42524 11.2191 3.35138 11.1268L1.50332 8.81736C1.73805 8.0027 2.06318 7.21686 2.47266 6.47451L5.41404 6.14782C5.53137 6.1348 5.6397 6.07872 5.71808 5.99044C5.95988 5.71763 6.21788 5.45963 6.49068 5.21783C6.57896 5.13946 6.63504 5.03113 6.64806 4.9138L6.97475 1.97361C7.71668 1.5635 8.5021 1.23757 9.31641 1.00189L11.6271 2.85113C11.7194 2.925 11.8358 2.96196 11.9538 2.95486C12.3175 2.93221 12.6822 2.93221 13.0459 2.95486C13.1639 2.96196 13.2803 2.925 13.3726 2.85113L15.6821 1.00308C16.4967 1.2378 17.2826 1.56294 18.0249 1.97241L18.3516 4.9138C18.3646 5.03113 18.4207 5.13946 18.509 5.21783C18.7818 5.45963 19.0398 5.71763 19.2816 5.99044C19.36 6.07872 19.4683 6.1348 19.5856 6.14782L22.5258 6.47451C22.9359 7.21643 23.2618 8.00186 23.4975 8.81617L21.6483 11.1268C21.5744 11.2191 21.5375 11.3355 21.5446 11.4535C21.566 11.8172 21.566 12.1819 21.5446 12.5457C21.5375 12.6636 21.5744 12.7801 21.6483 12.8723L23.4963 15.1818C23.2616 15.9965 22.9365 16.7823 22.527 17.5247Z" fill="#808080"/>
</svg>
