<svg xmlns="http://www.w3.org/2000/svg" width="22.76" height="22.76" viewBox="0 0 22.76 22.76">
  <g id="spport_on" transform="translate(-3.5 -3.5)">
    <path id="Path_8632" data-name="Path 8632" d="M4.5,21.8V14.88a10.38,10.38,0,1,1,20.76,0V21.8" transform="translate(0 0)" fill="none" stroke="#157de6" stroke-linecap="round" stroke-linejoin="round" stroke-width="2"/>
    <path id="Path_8633" data-name="Path 8633" d="M25.26,26.767a2.307,2.307,0,0,1-2.307,2.307H21.8a2.307,2.307,0,0,1-2.307-2.307v-3.46A2.307,2.307,0,0,1,21.8,21h3.46Zm-20.76,0a2.307,2.307,0,0,0,2.307,2.307H7.96a2.307,2.307,0,0,0,2.307-2.307v-3.46A2.307,2.307,0,0,0,7.96,21H4.5Z" transform="translate(0 -3.813)" fill="none" stroke="#157de6" stroke-linecap="round" stroke-linejoin="round" stroke-width="2"/>
  </g>
</svg>
