<svg id="up_img" xmlns="http://www.w3.org/2000/svg" xmlns:xlink="http://www.w3.org/1999/xlink" width="396" height="175" viewBox="0 0 396 175">
  <defs>
    <clipPath id="clip-path">
      <path id="Path_51321" data-name="Path 51321" d="M168.825,276.852a1.384,1.384,0,0,0,2.113,1.179l6.381,5.265a1.809,1.809,0,0,0,.248,1.94l-2.451,3.393a2.565,2.565,0,1,0,.755.482l2.422-3.352a1.817,1.817,0,1,0-.4-3.152l-6.381-5.265a1.386,1.386,0,1,0-2.682-.49" transform="translate(-168.825 -275.466)" fill="none"/>
    </clipPath>
    <radialGradient id="radial-gradient" cx="0.389" cy="-0.115" r="2.329" gradientUnits="objectBoundingBox">
      <stop offset="0" stop-color="#00c9ff"/>
      <stop offset="0.78" stop-color="#92fe9d"/>
      <stop offset="1" stop-color="#92fe9d"/>
    </radialGradient>
    <clipPath id="clip-path-2">
      <path id="Path_51322" data-name="Path 51322" d="M63.732,225.319a1.385,1.385,0,0,0,.661,2.328l.789,8.235a1.809,1.809,0,0,0-1.2,1.547l-4.133.666a2.565,2.565,0,1,0,.192.875l4.083-.658a1.817,1.817,0,1,0,1.944-2.515l-.789-8.235a1.386,1.386,0,1,0-1.551-2.243" transform="translate(-54.951 -224.913)" fill="none"/>
    </clipPath>
    <radialGradient id="radial-gradient-2" cx="1.231" cy="0.171" r="2.481" gradientUnits="objectBoundingBox">
      <stop offset="0" stop-color="#00c9ff"/>
      <stop offset="1" stop-color="#92fe9d"/>
    </radialGradient>
    <clipPath id="clip-path-3">
      <path id="Path_51323" data-name="Path 51323" d="M15.3,170.212a1.378,1.378,0,0,0,.207.727l-5.265,6.381a1.809,1.809,0,0,0-1.94.248l-3.393-2.451a2.564,2.564,0,1,0-.482.755l3.352,2.422a1.817,1.817,0,1,0,3.153-.4l5.265-6.381a1.386,1.386,0,1,0-.9-1.3" transform="translate(0 -168.826)" fill="none"/>
    </clipPath>
    <radialGradient id="radial-gradient-3" cx="1.177" cy="0.704" r="3.522" xlink:href="#radial-gradient-2"/>
    <clipPath id="clip-path-4">
      <path id="Path_51324" data-name="Path 51324" d="M65.088,55.7A2.547,2.547,0,0,0,67,60.045l.658,4.083a1.817,1.817,0,1,0,2.515,1.944l8.235-.789a1.389,1.389,0,1,0-.085-.89l-8.235.789a1.809,1.809,0,0,0-1.547-1.2l-.666-4.133A2.55,2.55,0,1,0,65.088,55.7" transform="translate(-64.341 -54.951)" fill="none"/>
    </clipPath>
    <radialGradient id="radial-gradient-4" cx="0.888" cy="1.529" r="3.279" xlink:href="#radial-gradient-2"/>
    <clipPath id="clip-path-5">
      <path id="Path_51325" data-name="Path 51325" d="M175.455,0a2.547,2.547,0,0,0-1.723,4.426l-2.422,3.352a1.817,1.817,0,1,0,.4,3.153L178.1,16.2a1.39,1.39,0,1,0,.569-.69l-6.381-5.265a1.808,1.808,0,0,0-.248-1.94l2.451-3.393A2.55,2.55,0,1,0,175.455,0Z" transform="translate(-168.826)" fill="none"/>
    </clipPath>
    <radialGradient id="radial-gradient-5" cx="0.389" cy="1.385" r="2.329" xlink:href="#radial-gradient-2"/>
    <clipPath id="clip-path-6">
      <path id="Path_51326" data-name="Path 51326" d="M283.813,65.087A2.541,2.541,0,0,0,283.071,67l-4.083.658a1.817,1.817,0,1,0-1.944,2.515l.789,8.235a1.39,1.39,0,1,0,.89-.085l-.789-8.235a1.809,1.809,0,0,0,1.2-1.547l4.133-.666a2.549,2.549,0,1,0,.549-2.786" transform="translate(-275.505 -64.34)" fill="none"/>
    </clipPath>
    <radialGradient id="radial-gradient-6" cx="-0.433" cy="1.11" r="2.498" xlink:href="#radial-gradient-2"/>
    <clipPath id="clip-path-7">
      <path id="Path_51327" data-name="Path 51327" d="M282.255,170.643a1.806,1.806,0,0,0,.352,1.072l-5.265,6.381a1.389,1.389,0,1,0,.69.569l5.265-6.381a1.809,1.809,0,0,0,1.94-.248l3.393,2.451a2.565,2.565,0,1,0,.482-.755l-3.352-2.422a1.816,1.816,0,1,0-3.505-.668" transform="translate(-275.466 -168.826)" fill="none"/>
    </clipPath>
    <radialGradient id="radial-gradient-7" cx="-0.323" cy="0.704" r="3.522" xlink:href="#radial-gradient-2"/>
    <clipPath id="clip-path-8">
      <path id="Path_51328" data-name="Path 51328" d="M236.3,276.037a1.806,1.806,0,0,0-.509,1.007l-8.235.789a1.39,1.39,0,1,0,.085.89l8.235-.789a1.809,1.809,0,0,0,1.547,1.2l.666,4.133a2.565,2.565,0,1,0,.875-.193l-.658-4.083a1.816,1.816,0,1,0-2.006-2.951" transform="translate(-224.911 -275.505)" fill="none"/>
    </clipPath>
    <radialGradient id="radial-gradient-8" cx="-0.043" cy="-0.161" r="3.261" xlink:href="#radial-gradient-2"/>
    <linearGradient id="linear-gradient" x1="0.5" x2="0.5" y2="1" gradientUnits="objectBoundingBox">
      <stop offset="0" stop-color="#0dbbd6"/>
      <stop offset="1" stop-color="#339dfa"/>
    </linearGradient>
    <clipPath id="clip-path-9">
      <rect id="Rectangle_26975" data-name="Rectangle 26975" width="249" height="175" fill="#fff"/>
    </clipPath>
  </defs>
  <g id="logo" transform="translate(66.5 -263.5)">
    <g id="Path_51358" data-name="Path 51358" transform="translate(81.5 330.5)" fill="#157de6">
      <path d="M 41 81.5 C 35.53231048583984 81.5 30.22844505310059 80.42925262451172 25.23572158813477 78.31751251220703 C 20.41307830810547 76.27770233154297 16.08178901672363 73.35743713378906 12.36217784881592 69.63782501220703 C 8.642566680908203 65.918212890625 5.722300052642822 61.58692169189453 3.682488918304443 56.76427841186523 C 1.570744395256042 51.77155685424805 0.5 46.46768951416016 0.5 41 C 0.5 35.53231048583984 1.570744395256042 30.22844505310059 3.682488918304443 25.23572158813477 C 5.722300052642822 20.41307830810547 8.642566680908203 16.08178901672363 12.36217784881592 12.36217784881592 C 16.08178901672363 8.642566680908203 20.41307830810547 5.722300052642822 25.23572158813477 3.682488918304443 C 30.22844505310059 1.570744395256042 35.53231048583984 0.5 41 0.5 C 46.46768951416016 0.5 51.77155685424805 1.570744395256042 56.76427841186523 3.682488918304443 C 61.58692169189453 5.722300052642822 65.918212890625 8.642566680908203 69.63782501220703 12.36217784881592 C 73.35743713378906 16.08178901672363 76.27770233154297 20.41307830810547 78.31751251220703 25.23572158813477 C 80.42925262451172 30.22844505310059 81.5 35.53231048583984 81.5 41 C 81.5 46.46768951416016 80.42925262451172 51.77155685424805 78.31751251220703 56.76427841186523 C 76.27770233154297 61.58692169189453 73.35743713378906 65.918212890625 69.63782501220703 69.63782501220703 C 65.918212890625 73.35743713378906 61.58692169189453 76.27770233154297 56.76427841186523 78.31751251220703 C 51.77155685424805 80.42925262451172 46.46768951416016 81.5 41 81.5 Z" stroke="none"/>
      <path d="M 41 1 C 35.59959030151367 1 30.36125564575195 2.057456970214844 25.43050003051758 4.142990112304688 C 20.66744613647461 6.157585144042969 16.38957977294922 9.041877746582031 12.71572113037109 12.71572113037109 C 9.041877746582031 16.38957977294922 6.157585144042969 20.66744613647461 4.142990112304688 25.43050003051758 C 2.057456970214844 30.36125564575195 1 35.59959030151367 1 41 C 1 46.40040969848633 2.057456970214844 51.63874435424805 4.142990112304688 56.56949996948242 C 6.157585144042969 61.33255767822266 9.041877746582031 65.61042022705078 12.71572113037109 69.28427886962891 C 16.38957977294922 72.95812225341797 20.66744613647461 75.8424072265625 25.43050003051758 77.85700988769531 C 30.36125564575195 79.94254302978516 35.59959030151367 81 41 81 C 46.40040969848633 81 51.63874435424805 79.94254302978516 56.56949996948242 77.85700988769531 C 61.33255767822266 75.8424072265625 65.61042022705078 72.95812225341797 69.28427886962891 69.28427886962891 C 72.95812225341797 65.61042022705078 75.8424072265625 61.33255767822266 77.85700988769531 56.56949996948242 C 79.94254302978516 51.63874435424805 81 46.40040969848633 81 41 C 81 35.59959030151367 79.94254302978516 30.36125564575195 77.85700988769531 25.43050003051758 C 75.8424072265625 20.66744613647461 72.95812225341797 16.38957977294922 69.28427886962891 12.71572113037109 C 65.61042022705078 9.041877746582031 61.33255767822266 6.157585144042969 56.56949996948242 4.142990112304688 C 51.63874435424805 2.057456970214844 46.40040969848633 1 41 1 M 41 0 C 63.6436767578125 0 82 18.3563232421875 82 41 C 82 63.6436767578125 63.6436767578125 82 41 82 C 18.3563232421875 82 0 63.6436767578125 0 41 C 0 18.3563232421875 18.3563232421875 0 41 0 Z" stroke="none" fill="#329df9"/>
    </g>
    <g id="Ellipse_16" data-name="Ellipse 16" transform="translate(95.5 344.5)" fill="#fff" stroke="#329df9" stroke-width="0.8">
      <circle cx="26.5" cy="26.5" r="26.5" stroke="none"/>
      <circle cx="26.5" cy="26.5" r="26.1" fill="none"/>
    </g>
    <g id="logo-2" data-name="logo" transform="translate(99.525 348.525)">
      <g id="Group_55343" data-name="Group 55343" transform="translate(16.614 27.108)">
        <g id="Group_55342" data-name="Group 55342" clip-path="url(#clip-path)">
          <rect id="Rectangle_26956" data-name="Rectangle 26956" width="11.952" height="18.072" transform="translate(0)" fill="url(#radial-gradient)"/>
        </g>
      </g>
      <g id="Group_55345" data-name="Group 55345" transform="translate(5.408 22.133)">
        <g id="Group_55344" data-name="Group 55344" clip-path="url(#clip-path-2)">
          <rect id="Rectangle_26957" data-name="Rectangle 26957" width="13.087" height="16.964" transform="translate(-0.249 0)" fill="url(#radial-gradient-2)"/>
        </g>
      </g>
      <g id="Group_55347" data-name="Group 55347" transform="translate(0 16.614)">
        <g id="Group_55346" data-name="Group 55346" clip-path="url(#clip-path-3)">
          <rect id="Rectangle_26958" data-name="Rectangle 26958" width="18.072" height="11.952" transform="translate(0 0)" fill="url(#radial-gradient-3)"/>
        </g>
      </g>
      <g id="Group_55349" data-name="Group 55349" transform="translate(6.332 5.408)">
        <g id="Group_55348" data-name="Group 55348" clip-path="url(#clip-path-4)">
          <rect id="Rectangle_26959" data-name="Rectangle 26959" width="17.099" height="12.838" transform="translate(-0.249 0)" fill="url(#radial-gradient-4)"/>
        </g>
      </g>
      <g id="Group_55351" data-name="Group 55351" transform="translate(16.614)">
        <g id="Group_55350" data-name="Group 55350" clip-path="url(#clip-path-5)">
          <rect id="Rectangle_26960" data-name="Rectangle 26960" width="11.952" height="18.072" transform="translate(0 0)" fill="url(#radial-gradient-5)"/>
        </g>
      </g>
      <g id="Group_55353" data-name="Group 55353" transform="translate(27.112 6.332)">
        <g id="Group_55352" data-name="Group 55352" clip-path="url(#clip-path-6)">
          <rect id="Rectangle_26961" data-name="Rectangle 26961" width="13.087" height="16.85" transform="translate(-0.177)" fill="url(#radial-gradient-6)"/>
        </g>
      </g>
      <g id="Group_55355" data-name="Group 55355" transform="translate(27.108 16.614)">
        <g id="Group_55354" data-name="Group 55354" clip-path="url(#clip-path-7)">
          <rect id="Rectangle_26962" data-name="Rectangle 26962" width="18.072" height="11.952" transform="translate(0 0)" fill="url(#radial-gradient-7)"/>
        </g>
      </g>
      <g id="Group_55357" data-name="Group 55357" transform="translate(22.133 27.112)">
        <g id="Group_55356" data-name="Group 55356" clip-path="url(#clip-path-8)">
          <rect id="Rectangle_26963" data-name="Rectangle 26963" width="17.099" height="12.909" transform="translate(-0.135)" fill="url(#radial-gradient-8)"/>
        </g>
      </g>
    </g>
    <path id="Path_8725" data-name="Path 8725" d="M133.926,81.662a2.159,2.159,0,0,0-3.082-.028,2.157,2.157,0,0,0-3.08.028,2.206,2.206,0,0,0,.077,3.074l2.449,2.449a.791.791,0,0,0,1.119,0l2.449-2.449A2.206,2.206,0,0,0,133.926,81.662Z" transform="translate(-8.887 286.906)" fill="url(#linear-gradient)"/>
    <path id="Path_8726" data-name="Path 8726" d="M129.515,91h0a.177.177,0,0,1-.161-.118l-1.022-2.989-.427,1.25a.177.177,0,0,1-.168.118h-1.711a.177.177,0,1,1,0-.353h1.589l.554-1.619a.177.177,0,0,1,.334,0l1.04,3.042,1.01-2.378a.176.176,0,0,1,.316-.018l.533.971h1.608a.177.177,0,0,1,0,.353H131.3a.177.177,0,0,1-.155-.09l-.418-.749-1.049,2.472A.177.177,0,0,1,129.515,91Z" transform="translate(-7.558 282.033)" fill="#fff"/>
    <g id="EDHP" transform="translate(94.951 336.439)">
      <path id="Path_51357" data-name="Path 51357" d="M0,0H3.962V1.078H1.345v1.6h2.4V3.759h-2.4V5.5h2.7V6.578H0Z" transform="matrix(0.764, -0.645, 0.645, 0.764, 0, 10.985)" fill="#fff"/>
      <path id="Path_51356" data-name="Path 51356" d="M0,0H2.239A4.188,4.188,0,0,1,3.672.226a2.767,2.767,0,0,1,1.041.65A2.718,2.718,0,0,1,5.344,1.9a4.085,4.085,0,0,1,.212,1.359,4.146,4.146,0,0,1-.217,1.387A2.8,2.8,0,0,1,4.7,5.689a2.791,2.791,0,0,1-1.037.659,4.073,4.073,0,0,1-1.428.23H0ZM1.345,5.5h.7a2.731,2.731,0,0,0,.967-.157,1.685,1.685,0,0,0,.677-.451,1.907,1.907,0,0,0,.392-.7,3,3,0,0,0,.129-.912,2.969,2.969,0,0,0-.129-.9,1.863,1.863,0,0,0-.392-.7,1.708,1.708,0,0,0-.677-.447,2.731,2.731,0,0,0-.967-.157h-.7Z" transform="matrix(0.967, -0.254, 0.254, 0.967, 14.894, 1.414)" fill="#fff"/>
      <path id="Path_51355" data-name="Path 51355" d="M0,0H1.345V2.681H3.87V0H5.215V6.578H3.87V3.759H1.345V6.578H0Z" transform="matrix(0.979, 0.206, -0.206, 0.979, 33.919, 0.497)" fill="#fff"/>
      <path id="Path_51354" data-name="Path 51354" d="M0,0H2.469a3.992,3.992,0,0,1,.912.1,2.068,2.068,0,0,1,.76.341,1.668,1.668,0,0,1,.516.627,2.2,2.2,0,0,1,.189.967,2.355,2.355,0,0,1-.189.99,1.745,1.745,0,0,1-.516.663,2.115,2.115,0,0,1-.756.369,3.482,3.482,0,0,1-.908.115H1.345v2.4H0ZM1.345,3.087h.986A1.614,1.614,0,0,0,2.8,3.036a1.026,1.026,0,0,0,.382-.175.809.809,0,0,0,.235-.3A1.129,1.129,0,0,0,3.5,2.082.9.9,0,0,0,3.16,1.29a1.543,1.543,0,0,0-.894-.212H1.345Z" transform="translate(51.74 8.252) rotate(37.884)" fill="#fff"/>
    </g>
    <g id="العنوان" transform="translate(89.295 379.359)">
      <path id="Path_51329" data-name="Path 51329" d="M32.76,24.376a.477.477,0,0,0-.263.27.5.5,0,0,0,.014.383.461.461,0,0,0,.259.265.433.433,0,0,0,.159.03.51.51,0,0,0,.209-.048.477.477,0,0,0,.259-.264.484.484,0,0,0-.01-.376.478.478,0,0,0-.261-.272.437.437,0,0,0-.166-.033.488.488,0,0,0-.2.045" transform="translate(-29.532 -22.061)" fill="#fff"/>
      <path id="Path_51330" data-name="Path 51330" d="M28.542,15.551a.433.433,0,0,0,.159.03.51.51,0,0,0,.209-.048.476.476,0,0,0,.259-.264.483.483,0,0,0-.01-.376.477.477,0,0,0-.261-.272.438.438,0,0,0-.166-.033.488.488,0,0,0-.2.045.477.477,0,0,0-.263.27.5.5,0,0,0,.014.383.461.461,0,0,0,.259.265" transform="translate(-25.687 -13.227)" fill="#fff"/>
      <path id="Path_51331" data-name="Path 51331" d="M5.616,72.409a.441.441,0,0,0-.133-.021.515.515,0,0,0-.473.354.5.5,0,0,0,.043.381.458.458,0,0,0,.279.243.435.435,0,0,0,.126.019.5.5,0,0,0,.241-.066.479.479,0,0,0,.2-.659.475.475,0,0,0-.281-.25" transform="translate(-4.54 -65.634)" fill="#fff"/>
      <path id="Path_51332" data-name="Path 51332" d="M.708,63.944a.479.479,0,0,0,.2-.659.473.473,0,0,0-.281-.25.438.438,0,0,0-.133-.021.477.477,0,0,0-.231.063.481.481,0,0,0-.242.291.5.5,0,0,0,.043.381.458.458,0,0,0,.279.243.435.435,0,0,0,.126.019.5.5,0,0,0,.24-.066" transform="translate(0 -57.136)" fill="#fff"/>
      <path id="Path_51333" data-name="Path 51333" d="M10.936,33.11l1.979-2.34a.1.1,0,0,0-.009-.132l-.555-.5a.089.089,0,0,0-.06-.023h-.006a.089.089,0,0,0-.062.032L10.33,32.386a.922.922,0,0,1-.147.144.233.233,0,0,1-.118.048H10.05a.287.287,0,0,1-.126-.036,1.019,1.019,0,0,1-.21-.153.231.231,0,0,0-.157-.062H9.547a.5.5,0,0,1-.148-.308.35.35,0,0,1,.123-.275l.114-.111a1.575,1.575,0,0,0,.328-.451,1.159,1.159,0,0,0,.113-.521A1.4,1.4,0,0,0,9.94,30.1a2.3,2.3,0,0,0-.4-.576,3.137,3.137,0,0,0-.55-.463,3.3,3.3,0,0,0-.665-.341l.157-.153a.1.1,0,0,0,0-.132l-.51-.558a.088.088,0,0,0-.128,0L6.6,29.1l-.269-.294a.259.259,0,0,0-.05-.042.2.2,0,0,0-.037-.145.58.58,0,0,1-.1-.237.445.445,0,0,1,0-.193,1.848,1.848,0,0,0,.243-.159,1.765,1.765,0,0,0,.386-.4,1.209,1.209,0,0,0,.2-.515,1.371,1.371,0,0,0-.058-.6,2.3,2.3,0,0,0-.342-.651,2.914,2.914,0,0,0-.277-.321,2.464,2.464,0,0,0-.4-.329.088.088,0,0,0-.049-.015.089.089,0,0,0-.072.037L5.42,25.7a.1.1,0,0,0-.018.071.094.094,0,0,0,.038.062,1.712,1.712,0,0,1,.241.209,2.043,2.043,0,0,1,.17.2,1,1,0,0,1,.233.579.523.523,0,0,1-.233.408,1.051,1.051,0,0,1-.184.116.315.315,0,0,1-.138.032H5.511a.327.327,0,0,1-.169-.072,1.07,1.07,0,0,1-.22-.238l-.662-.918a.221.221,0,0,0-.034-.107l-.441-.692c0-.006-.009-.011-.013-.017s0-.012-.007-.017l-.425-.7c0-.006-.009-.011-.014-.017s0-.013-.008-.019l-.408-.713a.225.225,0,0,0-.049-.058h0a.6.6,0,0,1-.074-.41.4.4,0,0,1,.211-.27L4.341,22.5a.1.1,0,0,0,.037-.126L4.032,21.7a.091.091,0,0,0-.053-.045.087.087,0,0,0-.069.007l-1.043.574c-.039.021-.082.042-.13.062a.658.658,0,0,1-.136.041.458.458,0,0,1-.085.008l-.047,0a.228.228,0,0,1-.1-.035.464.464,0,0,1-.142-.147c-.044-.071-.1-.174-.17-.307a.243.243,0,0,0-.064-.077.236.236,0,0,0-.01-.037L1.963,21.7a.375.375,0,0,1-.044-.257c.011-.03.054-.091.223-.166L3.424,20.7a.092.092,0,0,0,.048-.051.1.1,0,0,0,0-.071l-.466-1.109a1.86,1.86,0,0,0-.289-.481,1.273,1.273,0,0,0-.4-.322,1.1,1.1,0,0,0-.494-.114,1.36,1.36,0,0,0-.555.13,1.167,1.167,0,0,0-.443.325,1,1,0,0,0-.207.43,1.269,1.269,0,0,0-.005.468,2.073,2.073,0,0,0,.133.456,1.761,1.761,0,0,0,.23.406c.059.076.114.14.163.191a.734.734,0,0,0-.081.424,2.205,2.205,0,0,0,.178.626l.062.149a.136.136,0,0,0,.071.073.5.5,0,0,0,.037.1c.068.133.131.248.186.344a1.9,1.9,0,0,0,.214.3,1.109,1.109,0,0,0,.475.323.818.818,0,0,0-.035.177,1.3,1.3,0,0,0,.007.3,1.663,1.663,0,0,0,.064.281,1.545,1.545,0,0,0,.1.235.129.129,0,0,0,.052.054l0,.01.408.713a.156.156,0,0,0,.019.025c0,.009.008.018.014.027l.425.7a.15.15,0,0,0,.019.025c0,.008.008.016.013.025l.442.692,0,0a.448.448,0,0,0,.072.155l.767,1.064a1.242,1.242,0,0,0,.781.544.832.832,0,0,0-.013.194,1.1,1.1,0,0,0,.047.27,1.263,1.263,0,0,0,.094.226,1.589,1.589,0,0,0,.108.175.1.1,0,0,0,.045.033.412.412,0,0,0,.109.219L7.9,31.708a1.155,1.155,0,0,0,.825.449H8.73a.918.918,0,0,0,.04.35,1.2,1.2,0,0,0,.27.451.1.1,0,0,0,.078.034.143.143,0,0,0,.07-.021.47.47,0,0,0,.081.1,2.386,2.386,0,0,0,.487.354.951.951,0,0,0,.432.117h0a.754.754,0,0,0,.394-.115,1.5,1.5,0,0,0,.35-.313M1.456,19.78a.345.345,0,0,1,.065-.139.409.409,0,0,1,.162-.115.558.558,0,0,1,.225-.055.313.313,0,0,1,.135.029.531.531,0,0,1,.246.294l.134.32-.71.318a1.2,1.2,0,0,1-.089-.11,1.222,1.222,0,0,1-.114-.222.9.9,0,0,1-.052-.168.366.366,0,0,1,0-.153M8.932,31.009a.85.85,0,0,1-.15.119.325.325,0,0,1-.132.048H8.63a.279.279,0,0,1-.114-.029.555.555,0,0,1-.168-.133L7.23,29.793l.492-.48a3.121,3.121,0,0,1,.615.256,2.05,2.05,0,0,1,.521.41.93.93,0,0,1,.277.556.59.59,0,0,1-.2.474" transform="translate(-0.538 -16.825)" fill="#fff"/>
      <path id="Path_51334" data-name="Path 51334" d="M116.579,152.918a.094.094,0,0,0-.034-.062l-.582-.477a.088.088,0,0,0-.056-.02.089.089,0,0,0-.071.035l-2.477,3.223a.1.1,0,0,0,.015.131l.582.477a.089.089,0,0,0,.056.02h.01a.09.09,0,0,0,.06-.035l2.477-3.222a.1.1,0,0,0,.019-.069" transform="translate(-103.103 -138.143)" fill="#fff"/>
      <path id="Path_51335" data-name="Path 51335" d="M162.409,176.6a.464.464,0,0,0,.254.08.432.432,0,0,0,.105-.013.477.477,0,0,0,.294-.23.5.5,0,0,0,.069-.369.468.468,0,0,0-.215-.3.481.481,0,0,0-.263-.084.443.443,0,0,0-.1.012.465.465,0,0,0-.295.224.5.5,0,0,0-.069.376.485.485,0,0,0,.221.308" transform="translate(-147.527 -159.289)" fill="#fff"/>
      <path id="Path_51336" data-name="Path 51336" d="M171.257,181.554a.5.5,0,0,0-.069.377.485.485,0,0,0,.221.308.464.464,0,0,0,.254.08.432.432,0,0,0,.105-.013.477.477,0,0,0,.294-.23.5.5,0,0,0,.069-.369.469.469,0,0,0-.215-.3.481.481,0,0,0-.263-.083.434.434,0,0,0-.1.012.464.464,0,0,0-.3.224" transform="translate(-155.714 -164.401)" fill="#fff"/>
      <path id="Path_51337" data-name="Path 51337" d="M164.434,230.438a.465.465,0,0,0-.237-.287.492.492,0,0,0-.235-.064.434.434,0,0,0-.133.021.467.467,0,0,0-.278.246.5.5,0,0,0-.041.381.481.481,0,0,0,.243.289.473.473,0,0,0,.226.061.429.429,0,0,0,.136-.023.482.482,0,0,0,.277-.252.5.5,0,0,0,.042-.374" transform="translate(-148.722 -208.62)" fill="#fff"/>
      <path id="Path_51338" data-name="Path 51338" d="M149.161,190.506l-.653-.354a.088.088,0,0,0-.069-.007.091.091,0,0,0-.053.046l-.549,1.08c-.021.04-.045.083-.073.127a.7.7,0,0,1-.09.113.427.427,0,0,1-.1.078.3.3,0,0,1-.109.034h-.023a.426.426,0,0,1-.17-.039c-.077-.034-.182-.086-.31-.156a.233.233,0,0,0-.1-.028.223.223,0,0,0-.019-.016l-.037-.024c-.13-.084-.168-.148-.178-.186s-.005-.107.092-.267l.742-1.224a.1.1,0,0,0,.011-.07.093.093,0,0,0-.04-.058l-.992-.642a1.76,1.76,0,0,0-.5-.227,1.277,1.277,0,0,0-.327-.044,1.172,1.172,0,0,0-.181.014,1.1,1.1,0,0,0-.469.2,1.432,1.432,0,0,0-.386.432,1.231,1.231,0,0,0-.186.527,1.022,1.022,0,0,0,.065.475,1.23,1.23,0,0,0,.252.388,1.963,1.963,0,0,0,.359.3,1.67,1.67,0,0,0,.413.2c.092.028.171.049.239.063a.725.725,0,0,0,.166.4,2.1,2.1,0,0,0,.49.412l.133.086a.133.133,0,0,0,.073.022l.027,0a.5.5,0,0,0,.073.049c.128.069.244.129.344.177a1.711,1.711,0,0,0,.335.118,1.34,1.34,0,0,0,.29.034.863.863,0,0,0,.437-.11,1.315,1.315,0,0,0,.493-.564l.62-1.219a.1.1,0,0,0-.038-.126m-3.26-.044a1.162,1.162,0,0,1-.134-.039,1.143,1.143,0,0,1-.216-.116.861.861,0,0,1-.134-.108.358.358,0,0,1-.084-.126.347.347,0,0,1-.023-.153.43.43,0,0,1,.07-.189.436.436,0,0,1,.282-.232.346.346,0,0,1,.064-.006.564.564,0,0,1,.3.1l.286.185Z" transform="translate(-131.343 -171.043)" fill="#fff"/>
      <path id="Path_51339" data-name="Path 51339" d="M173.6,235.089a.493.493,0,0,0-.235-.064.437.437,0,0,0-.133.021.468.468,0,0,0-.278.246.5.5,0,0,0-.041.381.481.481,0,0,0,.243.289.472.472,0,0,0,.226.061.429.429,0,0,0,.136-.023.481.481,0,0,0,.276-.252.5.5,0,0,0,.042-.374.465.465,0,0,0-.237-.287" transform="translate(-157.275 -213.097)" fill="#fff"/>
      <path id="Path_51340" data-name="Path 51340" d="M200.76,202.469l.174-.6a.1.1,0,0,0-.007-.071.091.091,0,0,0-.054-.045l-.706-.219a.723.723,0,0,1-.414-.284.511.511,0,0,1-.045-.439.532.532,0,0,1,.126-.234.445.445,0,0,1,.181-.112.6.6,0,0,1,.179-.027h.034a.883.883,0,0,1,.213.037,2.007,2.007,0,0,1,.289.115c.094.046.164.084.209.112a.088.088,0,0,0,.07.011.091.091,0,0,0,.056-.045l.284-.531a.1.1,0,0,0-.026-.12,1.947,1.947,0,0,0-.342-.2,3.129,3.129,0,0,0-.411-.16,1.772,1.772,0,0,0-.524-.082h-.018a1.369,1.369,0,0,0-.513.1,1.169,1.169,0,0,0-.433.318,1.4,1.4,0,0,0-.281.536,1.145,1.145,0,0,0-.043.36,1.544,1.544,0,0,0,.023.214l-.317-.1a.21.21,0,0,0-.08-.055l-.755-.28-.024-.007-.014-.008-.748-.3-.024-.007-.014-.009-.741-.318a.222.222,0,0,0-.052-.015l0,0a.646.646,0,0,1-.127-.079.308.308,0,0,1-.082-.1.241.241,0,0,1-.022-.131.591.591,0,0,1,.054-.194l1.217-2.737a.1.1,0,0,0,0-.071.092.092,0,0,0-.047-.052l-.675-.32a.088.088,0,0,0-.038-.008.09.09,0,0,0-.082.054l-1.317,2.961a.892.892,0,0,0-.083.474.844.844,0,0,0,.174.415,1.493,1.493,0,0,0,.348.323,3.3,3.3,0,0,0,.435.248.1.1,0,0,0,.041.009h0l.014.007.741.319a.148.148,0,0,0,.032.009l.025.013.748.3a.146.146,0,0,0,.032.008l.026.012.752.279a.458.458,0,0,0,.145.073l2.32.719a.089.089,0,0,0,.026,0,.091.091,0,0,0,.087-.066" transform="translate(-177.208 -177.994)" fill="#fff"/>
      <path id="Path_51341" data-name="Path 51341" d="M265.581,224.56l-.733-.084h-.01a.089.089,0,0,0-.056.02.094.094,0,0,0-.033.063l-.317,2.955a.949.949,0,0,1-.041.2.243.243,0,0,1-.071.109.269.269,0,0,1-.135.054.712.712,0,0,1-.109.008,1.32,1.32,0,0,1-.148-.009l-.029,0-.028,0a.238.238,0,0,0-.031-.01.558.558,0,0,1-.36-.188.411.411,0,0,1-.08-.337l.468-2.91a.093.093,0,0,0-.074-.107l-.727-.125h-.015a.089.089,0,0,0-.053.017.093.093,0,0,0-.036.061l-.471,2.932a.95.95,0,0,1-.052.2.243.243,0,0,1-.076.1.268.268,0,0,1-.138.047c-.019,0-.04,0-.062,0a1.183,1.183,0,0,1-.195-.019.259.259,0,0,0-.043,0h-.007a.221.221,0,0,0-.042-.016l-.356-.083.379-1.738a.1.1,0,0,0-.012-.07.091.091,0,0,0-.057-.041l-.724-.169-.02,0a.091.091,0,0,0-.088.073l-.493,2.261a.608.608,0,0,1-.142.317.2.2,0,0,1-.137.046.444.444,0,0,1-.1-.013.775.775,0,0,1-.1-.032l-.115-.046a.088.088,0,0,0-.069,0,.092.092,0,0,0-.049.051l-.217.563a.1.1,0,0,0,.039.115,1.7,1.7,0,0,0,.218.105,1.957,1.957,0,0,0,.3.094,1.563,1.563,0,0,0,.354.041h.005a.81.81,0,0,0,.361-.086.847.847,0,0,0,.306-.272,1.363,1.363,0,0,0,.185-.4l.456.106.027,0,.025,0a.48.48,0,0,0,.084.022,2.7,2.7,0,0,0,.451.043,1.416,1.416,0,0,0,.246-.02.858.858,0,0,0,.375-.156.779.779,0,0,0,.1.123,1.108,1.108,0,0,0,.214.16,1.358,1.358,0,0,0,.244.109,1.63,1.63,0,0,0,.237.061l.022,0a.128.128,0,0,0,.037-.006.488.488,0,0,0,.073.014,2.979,2.979,0,0,0,.336.021,1.742,1.742,0,0,0,.259-.018.953.953,0,0,0,.422-.161.792.792,0,0,0,.26-.327,1.572,1.572,0,0,0,.114-.464l.331-3.088a.1.1,0,0,0-.019-.069.089.089,0,0,0-.06-.034" transform="translate(-236.121 -203.283)" fill="#fff"/>
      <path id="Path_51342" data-name="Path 51342" d="M359.909,233.393h.01a.447.447,0,0,0,.336-.146.5.5,0,0,0,.126-.358.494.494,0,0,0-.137-.349.444.444,0,0,0-.331-.134h-.01a.462.462,0,0,0-.343.145.487.487,0,0,0-.129.354.493.493,0,0,0,.14.355.459.459,0,0,0,.338.134" transform="translate(-326.965 -210.723)" fill="#fff"/>
      <path id="Path_51343" data-name="Path 51343" d="M349.29,233.565h.01a.448.448,0,0,0,.336-.146.5.5,0,0,0,.126-.358.493.493,0,0,0-.137-.348.445.445,0,0,0-.331-.134h-.01a.463.463,0,0,0-.343.145.488.488,0,0,0-.129.354.494.494,0,0,0,.14.355.459.459,0,0,0,.338.134" transform="translate(-317.306 -210.878)" fill="#fff"/>
      <path id="Path_51344" data-name="Path 51344" d="M390.205,277.01l-.045,0a.465.465,0,0,0-.334.167.532.532,0,0,0,.053.706.451.451,0,0,0,.308.113l.047,0a.449.449,0,0,0,.327-.167.5.5,0,0,0,.1-.366.489.489,0,0,0-.157-.339.436.436,0,0,0-.3-.115" transform="translate(-354.515 -251.165)" fill="#fff"/>
      <path id="Path_51345" data-name="Path 51345" d="M379.617,277.832l-.045,0a.464.464,0,0,0-.334.166.532.532,0,0,0,.053.706.45.45,0,0,0,.308.113l.047,0a.449.449,0,0,0,.327-.167.5.5,0,0,0,.1-.366.49.49,0,0,0-.157-.339.437.437,0,0,0-.3-.115" transform="translate(-344.883 -251.91)" fill="#fff"/>
      <path id="Path_51346" data-name="Path 51346" d="M347.564,248.083l.043,0c.144-.011.273-.025.382-.039a1.708,1.708,0,0,0,.345-.084,1.026,1.026,0,0,0,.577-.464,1.369,1.369,0,0,0,.127-.749l-.1-1.373a.092.092,0,0,0-.09-.086l-.742.059a.09.09,0,0,0-.062.032.1.1,0,0,0-.022.068l.091,1.217c0,.044,0,.094,0,.147a.713.713,0,0,1-.018.145.454.454,0,0,1-.047.122.314.314,0,0,1-.075.089.415.415,0,0,1-.183.074c-.082.014-.2.027-.343.038a.242.242,0,0,0-.056.012.237.237,0,0,0-.052-.007h-.06a.328.328,0,0,1-.23-.057c-.023-.022-.061-.086-.064-.276l-.023-1.444a.092.092,0,0,0-.09-.092l-1.172.02a1.736,1.736,0,0,0-.541.092,1.257,1.257,0,0,0-.442.261,1.163,1.163,0,0,0-.291.428,1.488,1.488,0,0,0-.1.579,1.241,1.241,0,0,0,.121.547.982.982,0,0,0,.305.362,1.171,1.171,0,0,0,.416.184,1.891,1.891,0,0,0,.425.048h.033a1.645,1.645,0,0,0,.451-.064c.091-.028.169-.055.234-.082a.691.691,0,0,0,.348.239,1.922,1.922,0,0,0,.567.07h.061l.157,0a.14.14,0,0,0,.063-.016.447.447,0,0,0,.051,0m-1.632-1a1.143,1.143,0,0,1-.242.024h-.013a.845.845,0,0,1-.157-.015.342.342,0,0,1-.137-.058.334.334,0,0,1-.1-.115.435.435,0,0,1-.041-.2.457.457,0,0,1,.114-.353.509.509,0,0,1,.357-.122l.338-.006.013.8a1.152,1.152,0,0,1-.132.043" transform="translate(-313.229 -222.4)" fill="#fff"/>
      <path id="Path_51347" data-name="Path 51347" d="M414.849,185.88l-1.473-2.709a.09.09,0,0,0-.079-.048.087.087,0,0,0-.044.012l-.643.373a.093.093,0,0,0-.043.056.1.1,0,0,0,.008.071l1.409,2.592a.959.959,0,0,1,.082.191.252.252,0,0,1,0,.131.284.284,0,0,1-.079.126,1.023,1.023,0,0,1-.21.153.24.24,0,0,0-.091.09l-.008,0a.551.551,0,0,1-.243.053h0a.407.407,0,0,1-.183-.041c-.012-.046-.025-.093-.041-.142a1.921,1.921,0,0,0-.078-.2,1.624,1.624,0,0,0-.3-.458,1.18,1.18,0,0,0-.419-.287,1.138,1.138,0,0,0-.423-.079c-.029,0-.058,0-.088,0a1.569,1.569,0,0,0-.567.16,1.329,1.329,0,0,0-.439.329,1.237,1.237,0,0,0-.252.461,1.55,1.55,0,0,0-.055.546,2.134,2.134,0,0,0,.128.585c.024.08.043.15.056.209a.516.516,0,0,1,.014.142.185.185,0,0,1-.03.093.234.234,0,0,1-.1.075l-.128.061a.236.236,0,0,0-.108.1h0a.226.226,0,0,0-.07.012.607.607,0,0,1-.188.034.372.372,0,0,1-.148-.029.341.341,0,0,1-.186-.234l-.048-.155a1.6,1.6,0,0,0-.251-.5,1.1,1.1,0,0,0-.406-.331,1.3,1.3,0,0,0-.555-.114,2.166,2.166,0,0,0-.668.12,3.073,3.073,0,0,0-.643.311,3.362,3.362,0,0,0-.586.471l-.065-.212a.091.091,0,0,0-.086-.065.087.087,0,0,0-.027,0l-.707.232a.091.091,0,0,0-.053.046.1.1,0,0,0-.006.071l.523,1.7-.356.117a.206.206,0,0,0-.125-.044.217.217,0,0,0-.05.006l-.782.184-.015.006-.023,0-.786.164-.016.006-.025,0-.79.144a.223.223,0,0,0-.062.021h0l-.362.051-.231-1.766a.094.094,0,0,0-.035-.062.089.089,0,0,0-.055-.019h-.012l-.736.1a.093.093,0,0,0-.078.1l.3,2.3a.618.618,0,0,1-.026.348.258.258,0,0,1-.21.116.752.752,0,0,1-.107.007l-.124,0h0a.089.089,0,0,0-.062.026.1.1,0,0,0-.028.066l-.014.606a.093.093,0,0,0,.075.094,1.669,1.669,0,0,0,.24.021h.038a2,2,0,0,0,.275-.02,1.565,1.565,0,0,0,.35-.091.831.831,0,0,0,.31-.211.876.876,0,0,0,.195-.365,1.4,1.4,0,0,0,.037-.446l.463-.065a.123.123,0,0,0,.056-.024h.01l.79-.144a.153.153,0,0,0,.029-.009l.031-.005.786-.164.028-.009.029-.005.756-.178a.332.332,0,0,0,.134.029.443.443,0,0,0,.138-.024l2.882-.947a1.166,1.166,0,0,0,.753-.58.84.84,0,0,0,.322.114.951.951,0,0,0,.134.01,1.209,1.209,0,0,0,.376-.065.116.116,0,0,0,.076-.122l.018,0a.418.418,0,0,0,.179-.045l.157-.075a1.162,1.162,0,0,0,.367-.251.787.787,0,0,0,.157-.289,1.494,1.494,0,0,0,.3.033,1.117,1.117,0,0,0,.127-.007,1.589,1.589,0,0,0,.919-.465,1.181,1.181,0,0,0,.242-.393.753.753,0,0,0,.181.054,1.119,1.119,0,0,0,.178.015q.044,0,.087,0a1.064,1.064,0,0,0,.239-.047,1.589,1.589,0,0,0,.191-.075.1.1,0,0,0,.055-.087.484.484,0,0,0,.1-.042,2.4,2.4,0,0,0,.485-.356,1.009,1.009,0,0,0,.253-.385.824.824,0,0,0,.027-.422,1.561,1.561,0,0,0-.169-.446m-5.891,3a.273.273,0,0,1-.082.113.546.546,0,0,1-.189.1l-1.551.51-.205-.666a3.228,3.228,0,0,1,.49-.461,2.019,2.019,0,0,1,.584-.307,1.148,1.148,0,0,1,.354-.064.645.645,0,0,1,.251.048.576.576,0,0,1,.326.393.9.9,0,0,1,.039.192.354.354,0,0,1-.016.144m3.408-1.463a.374.374,0,0,1-.215.246.627.627,0,0,1-.271.064.992.992,0,0,1-.288-.051,2.384,2.384,0,0,1-.087-.318,1.207,1.207,0,0,1-.022-.307.6.6,0,0,1,.063-.238.324.324,0,0,1,.154-.143.388.388,0,0,1,.167-.041.329.329,0,0,1,.164.045.748.748,0,0,1,.289.362.55.55,0,0,1,.045.38" transform="translate(-365.184 -166.038)" fill="#fff"/>
      <path id="Path_51348" data-name="Path 51348" d="M538.592,175.148a.09.09,0,0,0-.056-.041l-.02,0a.088.088,0,0,0-.048.014l-.629.407a.1.1,0,0,0-.029.129l2.112,3.488a.091.091,0,0,0,.056.041l.02,0a.088.088,0,0,0,.048-.014l.629-.407a.1.1,0,0,0,.029-.129Z" transform="translate(-489.219 -158.767)" fill="#fff"/>
      <path id="Path_51349" data-name="Path 51349" d="M576.855,154.483a.44.44,0,0,0,.053,0,.509.509,0,0,0,.483-.443.5.5,0,0,0-.111-.363.466.466,0,0,0-.314-.191.436.436,0,0,0-.058,0,.454.454,0,0,0-.292.111.487.487,0,0,0-.081.693.466.466,0,0,0,.32.193" transform="translate(-524.36 -139.166)" fill="#fff"/>
      <path id="Path_51350" data-name="Path 51350" d="M569.069,160.641a.5.5,0,0,0-.111-.363.466.466,0,0,0-.314-.19.433.433,0,0,0-.058,0,.454.454,0,0,0-.292.111.487.487,0,0,0-.081.693.467.467,0,0,0,.32.193.446.446,0,0,0,.053,0,.509.509,0,0,0,.483-.443" transform="translate(-516.789 -145.147)" fill="#fff"/>
      <path id="Path_51351" data-name="Path 51351" d="M652.9,68.3a.476.476,0,0,0,.262.082.457.457,0,0,0,.1-.011.466.466,0,0,0,.3-.227.482.482,0,0,0,.065-.37.49.49,0,0,0-.222-.3.475.475,0,0,0-.261-.082.443.443,0,0,0-.1.011.455.455,0,0,0-.3.221.5.5,0,0,0-.069.373.474.474,0,0,0,.215.308" transform="translate(-593.717 -61.102)" fill="#fff"/>
      <path id="Path_51352" data-name="Path 51352" d="M589.18,15.8a1.477,1.477,0,0,0-.4-.246l-2.769-1.213a.088.088,0,0,0-.069,0,.092.092,0,0,0-.049.05l-.288.7a.1.1,0,0,0,.048.122l2.649,1.161a.894.894,0,0,1,.178.1.243.243,0,0,1,.081.1.292.292,0,0,1,.012.15,1.069,1.069,0,0,1-.075.254.252.252,0,0,0-.018.129l-.005.008a.569.569,0,0,1-.162.2.41.41,0,0,1-.169.083c-.036-.029-.075-.058-.116-.087a1.826,1.826,0,0,0-.182-.111,1.53,1.53,0,0,0-.509-.173,1.194,1.194,0,0,0-.169-.012,1.13,1.13,0,0,0-.333.05,1.187,1.187,0,0,0-.45.263,1.661,1.661,0,0,0-.355.485,1.407,1.407,0,0,0-.152.537,1.264,1.264,0,0,0,.073.524,1.514,1.514,0,0,0,.279.466,2.024,2.024,0,0,0,.448.382c.066.048.123.091.168.13a.5.5,0,0,1,.095.1.186.186,0,0,1,.031.093.241.241,0,0,1-.033.12l-.065.129c0,.007,0,.014-.007.021a.227.227,0,0,0-.088.084.569.569,0,0,1-.307.27.383.383,0,0,1-.111.017.4.4,0,0,1-.221-.072l-1.1-.712a.089.089,0,0,0-.125.029l-.392.644a.1.1,0,0,0-.012.07.094.094,0,0,0,.04.058l1.115.724a.912.912,0,0,1,.16.128.247.247,0,0,1,.064.113.293.293,0,0,1-.012.15,1.065,1.065,0,0,1-.114.238h0a.223.223,0,0,0-.044.048l-.454.683c0,.006-.005.012-.008.017a.222.222,0,0,0-.015.017l-.47.671a.225.225,0,0,0-.037.18.465.465,0,0,1-.27.171.29.29,0,0,1-.046,0,.346.346,0,0,1-.231-.1l-.119-.106a1.516,1.516,0,0,0-.469-.29,1.053,1.053,0,0,0-.513-.062,1.3,1.3,0,0,0-.524.2,2.243,2.243,0,0,0-.513.468,3.225,3.225,0,0,0-.389.613,3.517,3.517,0,0,0-.259.719l-.163-.145a.088.088,0,0,0-.127.01l-.484.582a.1.1,0,0,0-.022.068.093.093,0,0,0,.031.064l1.308,1.162-.242.29h-.017a.206.206,0,0,0-.149.064l-.572.581s-.006.008-.009.012l-.018.015-.585.567s-.007.009-.011.014l-.02.015-.6.552a.223.223,0,0,0-.062.1l-.025.02a.382.382,0,0,1-.219.111h-.011c-.031,0-.1-.031-.213-.179l-.869-1.132a.089.089,0,0,0-.071-.035.087.087,0,0,0-.056.02l-.917.751a1.827,1.827,0,0,0-.375.413,1.333,1.333,0,0,0-.2.485,1.2,1.2,0,0,0,.021.522,1.463,1.463,0,0,0,.265.52,1.177,1.177,0,0,0,.418.358.947.947,0,0,0,.408.1h.048a1.16,1.16,0,0,0,.439-.116,1.954,1.954,0,0,0,.392-.25,1.721,1.721,0,0,0,.321-.335c.055-.079.1-.15.137-.212a.64.64,0,0,0,.161.021.711.711,0,0,0,.255-.05,2.075,2.075,0,0,0,.539-.339l.123-.1a.142.142,0,0,0,.052-.1l.013-.01.6-.552a.159.159,0,0,0,.021-.025l.022-.019.585-.567a.16.16,0,0,0,.02-.024l.02-.018.55-.56a.38.38,0,0,0,.232-.143l1.971-2.369a1.221,1.221,0,0,0,.346-.9.842.842,0,0,0,.332-.078,1.158,1.158,0,0,0,.406-.324.12.12,0,0,0,0-.15.519.519,0,0,0,.045-.055l.471-.671a.153.153,0,0,0,.016-.03c.005-.007.011-.013.017-.021l.454-.683a.186.186,0,0,0,.011-.021.483.483,0,0,0,.064-.082,2.264,2.264,0,0,0,.29-.654.931.931,0,0,0,.005-.418.741.741,0,0,0,.15-.052,1.094,1.094,0,0,0,.226-.142,1.381,1.381,0,0,0,.192-.191,1.732,1.732,0,0,0,.147-.2.142.142,0,0,0,.012-.026.44.44,0,0,0,.108-.141l.08-.159a1.232,1.232,0,0,0,.142-.43.8.8,0,0,0-.047-.328,1.4,1.4,0,0,0,.356-.25,1.682,1.682,0,0,0,.452-.948,1.213,1.213,0,0,0-.041-.463.774.774,0,0,0,.175-.072,1.125,1.125,0,0,0,.377-.347,1.659,1.659,0,0,0,.107-.18.1.1,0,0,0-.008-.1.5.5,0,0,0,.051-.094,2.537,2.537,0,0,0,.174-.588,1.04,1.04,0,0,0-.028-.464.8.8,0,0,0-.228-.351M578.439,29.958a1.191,1.191,0,0,1-.178.171.86.86,0,0,1-.143.095.335.335,0,0,1-.143.04h-.016a.329.329,0,0,1-.131-.029.414.414,0,0,1-.149-.132.458.458,0,0,1-.117-.352.537.537,0,0,1,.212-.321l.265-.217.481.627a1.208,1.208,0,0,1-.08.117m5.284-5.108a.576.576,0,0,1-.111.186l-1.061,1.275-.513-.456a3.378,3.378,0,0,1,.182-.658,2.124,2.124,0,0,1,.341-.578.887.887,0,0,1,.507-.342.53.53,0,0,1,.089-.008.576.576,0,0,1,.388.166.87.87,0,0,1,.13.142.347.347,0,0,1,.06.131.282.282,0,0,1-.013.141m3.977-6.177a.658.658,0,0,1-.175.221,1.017,1.017,0,0,1-.259.143,2.264,2.264,0,0,1-.257-.2,1.15,1.15,0,0,1-.2-.229.591.591,0,0,1-.091-.228.34.34,0,0,1,.037-.21.349.349,0,0,1,.264-.206.457.457,0,0,1,.074-.006.8.8,0,0,1,.369.11.528.528,0,0,1,.261.272.389.389,0,0,1-.024.33" transform="translate(-524.605 -13)" fill="#fff"/>
      <path id="Path_51353" data-name="Path 51353" d="M685.23,1.479a.092.092,0,0,0-.051-.049L681.443.006A.087.087,0,0,0,681.411,0a.091.091,0,0,0-.085.061l-.257.72a.1.1,0,0,0,0,.071.092.092,0,0,0,.051.049l3.737,1.424a.087.087,0,0,0,.031.006.091.091,0,0,0,.085-.061l.257-.72a.1.1,0,0,0,0-.071" transform="translate(-619.546 0)" fill="#fff"/>
    </g>
    <g id="Ellipse_17" data-name="Ellipse 17" transform="translate(101.5 350.5)" fill="none" stroke="#49e3cd" stroke-width="0.5" stroke-dasharray="2">
      <circle cx="20.5" cy="20.5" r="20.5" stroke="none"/>
      <circle cx="20.5" cy="20.5" r="20.25" fill="none"/>
    </g>
    <path id="Icon_map-health" data-name="Icon map-health" d="M7.136,2.859A.134.134,0,0,0,7,2.725H5.264a.134.134,0,0,1-.134-.134V.854A.134.134,0,0,0,5,.72H2.859a.134.134,0,0,0-.134.134V2.591a.134.134,0,0,1-.134.134H.854a.134.134,0,0,0-.134.134V5a.134.134,0,0,0,.134.134H2.591a.134.134,0,0,1,.134.134V7a.134.134,0,0,0,.134.134H5A.134.134,0,0,0,5.131,7V5.264a.134.134,0,0,1,.134-.134H7A.134.134,0,0,0,7.136,5Z" transform="translate(149.796 362.064)" fill="#15d1f0"/>
    <path id="Icon_map-health-2" data-name="Icon map-health" d="M7.136,2.859A.134.134,0,0,0,7,2.725H5.264a.134.134,0,0,1-.134-.134V.854A.134.134,0,0,0,5,.72H2.859a.134.134,0,0,0-.134.134V2.591a.134.134,0,0,1-.134.134H.854a.134.134,0,0,0-.134.134V5a.134.134,0,0,0,.134.134H2.591a.134.134,0,0,1,.134.134V7a.134.134,0,0,0,.134.134H5A.134.134,0,0,0,5.131,7V5.264a.134.134,0,0,1,.134-.134H7A.134.134,0,0,0,7.136,5Z" transform="translate(85.916 362.064)" fill="#15d1f0"/>
  </g>
  <text id="أهلًا_بك_في_تطبيق" data-name="أهلًا بك في تطبيق" transform="translate(396 62)" fill="#0dbbd6" font-size="16" font-family="SSTArabic-Roman, SST Arabic"><tspan x="-118" y="0">أهلًا بك في تطبيق</tspan></text>
  <text id="المنصة_الرقمية_للرعـاية_الصـحـية" data-name="المنصة الرقمية
للرعـاية الصـحـية" transform="translate(396 101)" fill="#303134" font-size="23" font-family="SSTArabic-Bold, SST Arabic" font-weight="700"><tspan x="-145" y="0">المنصة الرقمية</tspan><tspan y="0"></tspan><tspan x="-146" y="35">للرعـاية الصـحـية</tspan></text>
  <g id="up" clip-path="url(#clip-path-9)">
    <g id="Group_52460" data-name="Group 52460" transform="translate(-5.457 -11)">
      <path id="Path_3719" data-name="Path 3719" d="M1.08,176.609S17.639,84.931,113.065,70.27,252.105,4.884,252.105,4.884H31.477s-21-10.989-30.4,0c-6.185,7.228-2.481,31.454,0,51.887,1.405,11.577-.331,43.464,0,56.555C2.12,154.489,1.08,176.609,1.08,176.609Z" transform="translate(2.307 2.529)" fill="url(#linear-gradient)"/>
    </g>
  </g>
</svg>
