<svg xmlns="http://www.w3.org/2000/svg" width="23.307" height="23.307" viewBox="0 0 23.307 23.307">
  <path id="user-circle" d="M11.653.563A11.653,11.653,0,1,0,23.307,12.216,11.651,11.651,0,0,0,11.653.563Zm0,4.511A4.135,4.135,0,1,1,7.518,9.209,4.135,4.135,0,0,1,11.653,5.074Zm0,16.164a9,9,0,0,1-6.884-3.2A5.239,5.239,0,0,1,9.4,15.223a1.15,1.15,0,0,1,.334.052,6.221,6.221,0,0,0,1.922.324,6.2,6.2,0,0,0,1.922-.324,1.15,1.15,0,0,1,.334-.052,5.239,5.239,0,0,1,4.628,2.81A9,9,0,0,1,11.653,21.238Z" transform="translate(0 -0.563)" fill="#fff"/>
</svg>
