<svg xmlns="http://www.w3.org/2000/svg" width="23.307" height="26.636" viewBox="0 0 23.307 26.636">
  <path id="user-md" d="M11.653,13.318A6.659,6.659,0,1,0,4.994,6.659,6.659,6.659,0,0,0,11.653,13.318ZM5.41,22.058A1.249,1.249,0,1,0,6.659,20.81,1.246,1.246,0,0,0,5.41,22.058Zm11.237-7.044v2.549a4.168,4.168,0,0,1,3.33,4.079v2.169a.835.835,0,0,1-.671.817l-1.675.333a.414.414,0,0,1-.489-.328l-.161-.817a.412.412,0,0,1,.328-.489l1-.2V21.642a2.5,2.5,0,1,0-4.994.1V23.13l1,.2a.422.422,0,0,1,.328.489l-.161.817a.422.422,0,0,1-.489.328l-1.623-.218a.831.831,0,0,1-.718-.827V21.642a4.172,4.172,0,0,1,3.33-4.079V15.212c-.114.036-.229.057-.343.1a9,9,0,0,1-5.972,0A5.75,5.75,0,0,0,7.5,15.04v4.245a2.913,2.913,0,1,1-1.665,0V15.1A6.974,6.974,0,0,0,0,21.975v2.331a2.333,2.333,0,0,0,2.331,2.331H20.976a2.333,2.333,0,0,0,2.331-2.331V21.975A6.982,6.982,0,0,0,16.648,15.014Z" fill="#fff"/>
</svg>
