<svg xmlns="http://www.w3.org/2000/svg" width="22.243" height="20.76" viewBox="0 0 22.243 20.76">
  <g id="user_off" transform="translate(-3 -3)">
    <path id="Path_3726" data-name="Path 3726" d="M12.69,4.483A3.707,3.707,0,1,1,8.983,8.19,3.707,3.707,0,0,1,12.69,4.483M12.69,3a5.19,5.19,0,1,0,5.19,5.19A5.19,5.19,0,0,0,12.69,3Z" transform="translate(-2.276)" fill="#b7cee6"/>
    <path id="Path_3727" data-name="Path 3727" d="M17.829,35.9H16.346V32.19a3.707,3.707,0,0,0-3.707-3.707H8.19A3.707,3.707,0,0,0,4.483,32.19V35.9H3V32.19A5.19,5.19,0,0,1,8.19,27h4.449a5.19,5.19,0,0,1,5.19,5.19Z" transform="translate(0 -12.137)" fill="#b7cee6"/>
    <path id="Path_3728" data-name="Path 3728" d="M33,6h7.414V7.483H33Z" transform="translate(-15.171 -1.517)" fill="#b7cee6"/>
    <path id="Path_3729" data-name="Path 3729" d="M33,13.5h7.414v1.483H33Z" transform="translate(-15.171 -5.31)" fill="#b7cee6"/>
    <path id="Path_3730" data-name="Path 3730" d="M33,21h5.19v1.483H33Z" transform="translate(-15.171 -9.103)" fill="#b7cee6"/>
  </g>
</svg>
